<?xml version="1.0" encoding="UTF-8" standalone="no"?>
<!DOCTYPE svg PUBLIC "-//W3C//DTD SVG 1.1//EN"
 "http://www.w3.org/Graphics/SVG/1.1/DTD/svg11.dtd">
<!-- Generated by graphviz version 2.38.0 (20140413.2041)
 -->
<!-- Title: geometry2 Pages: 1 -->
<svg width="331pt" height="397pt"
 viewBox="0.00 0.00 330.50 397.00" xmlns="http://www.w3.org/2000/svg" xmlns:xlink="http://www.w3.org/1999/xlink">
<g id="graph0" class="graph" transform="scale(1 1) rotate(0) translate(4 393)">
<title>geometry2</title>
<polygon fill="white" stroke="none" points="-4,4 -4,-393 326.5,-393 326.5,4 -4,4"/>
<!-- Node1 -->
<g id="node1" class="node"><title>Node1</title>
<polygon fill="#bfbfbf" stroke="black" points="83,-0.5 83,-156.5 203,-156.5 203,-0.5 83,-0.5"/>
<text text-anchor="middle" x="143" y="-144.5" font-family="Helvetica,sans-Serif" font-size="10.00">geometry2</text>
<polyline fill="none" stroke="black" points="83,-137.5 203,-137.5 "/>
<text text-anchor="start" x="91" y="-125.5" font-family="Helvetica,sans-Serif" font-size="10.00">+ Nvert</text>
<text text-anchor="start" x="91" y="-114.5" font-family="Helvetica,sans-Serif" font-size="10.00">+ Nelem</text>
<text text-anchor="start" x="91" y="-103.5" font-family="Helvetica,sans-Serif" font-size="10.00">+ NBdElemD</text>
<text text-anchor="start" x="91" y="-92.5" font-family="Helvetica,sans-Serif" font-size="10.00">+ NBdElemN</text>
<text text-anchor="start" x="91" y="-81.5" font-family="Helvetica,sans-Serif" font-size="10.00">+ fIdx</text>
<text text-anchor="start" x="91" y="-70.5" font-family="Helvetica,sans-Serif" font-size="10.00">+ isInDirichletBoundary</text>
<polyline fill="none" stroke="black" points="83,-63.5 203,-63.5 "/>
<text text-anchor="start" x="91" y="-51.5" font-family="Helvetica,sans-Serif" font-size="10.00">+ geometry2()</text>
<text text-anchor="start" x="91" y="-40.5" font-family="Helvetica,sans-Serif" font-size="10.00">+ ~geometry2()</text>
<text text-anchor="start" x="91" y="-29.5" font-family="Helvetica,sans-Serif" font-size="10.00">+ operator=()</text>
<text text-anchor="start" x="91" y="-18.5" font-family="Helvetica,sans-Serif" font-size="10.00">+ resize()</text>
<text text-anchor="start" x="91" y="-7.5" font-family="Helvetica,sans-Serif" font-size="10.00">+ updateFIdx()</text>
</g>
<!-- Node2 -->
<g id="node2" class="node"><title>Node2</title>
<g id="a_node2"><a xlink:href="../../d6/dc6/structcoord.html" target="_top" xlink:title="A template for coordinates. ">
<polygon fill="white" stroke="black" points="0,-226.5 0,-283.5 80,-283.5 80,-226.5 0,-226.5"/>
<text text-anchor="middle" x="40" y="-271.5" font-family="Helvetica,sans-Serif" font-size="10.00">coord&lt; T, n &gt;</text>
<polyline fill="none" stroke="black" points="0,-264.5 80,-264.5 "/>
<text text-anchor="middle" x="40" y="-252.5" font-family="Helvetica,sans-Serif" font-size="10.00"> </text>
<polyline fill="none" stroke="black" points="0,-245.5 80,-245.5 "/>
<text text-anchor="middle" x="40" y="-233.5" font-family="Helvetica,sans-Serif" font-size="10.00"> </text>
</a>
</g>
</g>
<!-- Node2&#45;&gt;Node1 -->
<g id="edge1" class="edge"><title>Node2&#45;&gt;Node1</title>
<path fill="none" stroke="#404040" d="M56.3207,-226.35C65.8753,-210.163 78.5244,-188.733 91.198,-167.262"/>
<polygon fill="none" stroke="#404040" points="91.3082,-167.075 90.9135,-159.874 97.4081,-156.741 97.8028,-163.941 91.3082,-167.075"/>
<text text-anchor="middle" x="108.5" y="-189" font-family="Helvetica,sans-Serif" font-size="10.00"> +vertices</text>
</g>
<!-- Node3 -->
<g id="node3" class="node"><title>Node3</title>
<polygon fill="white" stroke="#bfbfbf" points="84.5,-331.5 84.5,-388.5 113.5,-388.5 113.5,-331.5 84.5,-331.5"/>
<text text-anchor="middle" x="99" y="-376.5" font-family="Helvetica,sans-Serif" font-size="10.00">T</text>
<polyline fill="none" stroke="#bfbfbf" points="84.5,-369.5 113.5,-369.5 "/>
<text text-anchor="middle" x="99" y="-357.5" font-family="Helvetica,sans-Serif" font-size="10.00"> </text>
<polyline fill="none" stroke="#bfbfbf" points="84.5,-350.5 113.5,-350.5 "/>
<text text-anchor="middle" x="99" y="-338.5" font-family="Helvetica,sans-Serif" font-size="10.00"> </text>
</g>
<!-- Node3&#45;&gt;Node2 -->
<g id="edge2" class="edge"><title>Node3&#45;&gt;Node2</title>
<path fill="none" stroke="#404040" d="M84.4157,-333.539C77.6442,-321.718 69.4498,-307.412 61.9526,-294.324"/>
<polygon fill="none" stroke="#404040" points="61.8301,-294.11 55.3769,-290.892 55.8655,-283.697 62.3187,-286.916 61.8301,-294.11"/>
<text text-anchor="middle" x="79.5" y="-305" font-family="Helvetica,sans-Serif" font-size="10.00"> +x</text>
</g>
<!-- Node4 -->
<g id="node4" class="node"><title>Node4</title>
<g id="a_node4"><a xlink:href="../../d9/db2/structelement.html" target="_top" xlink:title="A template for element indices. Template struct for indices of the elements. ">
<polygon fill="white" stroke="black" points="98.5,-226.5 98.5,-283.5 187.5,-283.5 187.5,-226.5 98.5,-226.5"/>
<text text-anchor="middle" x="143" y="-271.5" font-family="Helvetica,sans-Serif" font-size="10.00">element&lt; T, n &gt;</text>
<polyline fill="none" stroke="black" points="98.5,-264.5 187.5,-264.5 "/>
<text text-anchor="middle" x="143" y="-252.5" font-family="Helvetica,sans-Serif" font-size="10.00"> </text>
<polyline fill="none" stroke="black" points="98.5,-245.5 187.5,-245.5 "/>
<text text-anchor="middle" x="143" y="-233.5" font-family="Helvetica,sans-Serif" font-size="10.00"> </text>
</a>
</g>
</g>
<!-- Node3&#45;&gt;Node4 -->
<g id="edge4" class="edge"><title>Node3&#45;&gt;Node4</title>
<path fill="none" stroke="#404040" d="M110.791,-331.398C115.575,-320.199 121.187,-307.062 126.374,-294.92"/>
<polygon fill="none" stroke="#404040" points="126.462,-294.714 125.141,-287.625 131.176,-283.678 132.498,-290.767 126.462,-294.714"/>
<text text-anchor="middle" x="136" y="-305" font-family="Helvetica,sans-Serif" font-size="10.00"> +vert</text>
</g>
<!-- Node4&#45;&gt;Node1 -->
<g id="edge3" class="edge"><title>Node4&#45;&gt;Node1</title>
<path fill="none" stroke="#404040" d="M143,-226.35C143,-210.604 143,-189.898 143,-169.018"/>
<polygon fill="none" stroke="#404040" points="143,-168.741 139,-162.741 143,-156.741 147,-162.741 143,-168.741"/>
<text text-anchor="middle" x="190" y="-200" font-family="Helvetica,sans-Serif" font-size="10.00"> +boundaryNeumann</text>
<text text-anchor="middle" x="190" y="-189" font-family="Helvetica,sans-Serif" font-size="10.00">+element</text>
<text text-anchor="middle" x="190" y="-178" font-family="Helvetica,sans-Serif" font-size="10.00">+boundaryDirichlet</text>
</g>
<!-- Node5 -->
<g id="node5" class="node"><title>Node5</title>
<polygon fill="white" stroke="#bfbfbf" points="205.5,-226.5 205.5,-283.5 322.5,-283.5 322.5,-226.5 205.5,-226.5"/>
<text text-anchor="middle" x="264" y="-271.5" font-family="Helvetica,sans-Serif" font-size="10.00">std::complex&lt; dtype &gt;</text>
<polyline fill="none" stroke="#bfbfbf" points="205.5,-264.5 322.5,-264.5 "/>
<text text-anchor="middle" x="264" y="-252.5" font-family="Helvetica,sans-Serif" font-size="10.00"> </text>
<polyline fill="none" stroke="#bfbfbf" points="205.5,-245.5 322.5,-245.5 "/>
<text text-anchor="middle" x="264" y="-233.5" font-family="Helvetica,sans-Serif" font-size="10.00"> </text>
</g>
<!-- Node5&#45;&gt;Node1 -->
<g id="edge5" class="edge"><title>Node5&#45;&gt;Node1</title>
<path fill="none" stroke="#404040" d="M259.56,-226.256C256.163,-210.425 250.413,-190.675 241,-175 232.959,-161.611 222.585,-148.8 211.607,-137.154"/>
<polygon fill="none" stroke="#404040" points="211.516,-137.061 204.461,-135.571 203.122,-128.485 210.178,-129.976 211.516,-137.061"/>
<text text-anchor="middle" x="268.5" y="-189" font-family="Helvetica,sans-Serif" font-size="10.00"> +fVal</text>
</g>
</g>
</svg>
