<?xml version="1.0" encoding="UTF-8" standalone="no"?>
<!DOCTYPE svg PUBLIC "-//W3C//DTD SVG 1.1//EN"
 "http://www.w3.org/Graphics/SVG/1.1/DTD/svg11.dtd">
<!-- Generated by graphviz version 2.38.0 (20140413.2041)
 -->
<!-- Title: /home/solid/secondary/lebedev/bin/Master_Thesis_Num/FEM_EigenvalueDecomposition/tests/TrigQualityCheck.cpp Pages: 1 -->
<svg width="570pt" height="285pt"
 viewBox="0.00 0.00 570.00 285.00" xmlns="http://www.w3.org/2000/svg" xmlns:xlink="http://www.w3.org/1999/xlink">
<g id="graph0" class="graph" transform="scale(1 1) rotate(0) translate(4 281)">
<title>/home/solid/secondary/lebedev/bin/Master_Thesis_Num/FEM_EigenvalueDecomposition/tests/TrigQualityCheck.cpp</title>
<polygon fill="white" stroke="none" points="-4,4 -4,-281 566,-281 566,4 -4,4"/>
<!-- Node1 -->
<g id="node1" class="node"><title>Node1</title>
<polygon fill="#bfbfbf" stroke="black" points="254.5,-224.5 254.5,-276.5 442.5,-276.5 442.5,-224.5 254.5,-224.5"/>
<text text-anchor="start" x="262.5" y="-264.5" font-family="Helvetica,sans-Serif" font-size="10.00">/home/solid/secondary</text>
<text text-anchor="start" x="262.5" y="-253.5" font-family="Helvetica,sans-Serif" font-size="10.00">/lebedev/bin/Master_Thesis</text>
<text text-anchor="start" x="262.5" y="-242.5" font-family="Helvetica,sans-Serif" font-size="10.00">_Num/FEM_EigenvalueDecomposition</text>
<text text-anchor="middle" x="348.5" y="-231.5" font-family="Helvetica,sans-Serif" font-size="10.00">/tests/TrigQualityCheck.cpp</text>
</g>
<!-- Node2 -->
<g id="node2" class="node"><title>Node2</title>
<polygon fill="white" stroke="#bfbfbf" points="115,-168.5 115,-187.5 160,-187.5 160,-168.5 115,-168.5"/>
<text text-anchor="middle" x="137.5" y="-175.5" font-family="Helvetica,sans-Serif" font-size="10.00">cstdlib</text>
</g>
<!-- Node1&#45;&gt;Node2 -->
<g id="edge1" class="edge"><title>Node1&#45;&gt;Node2</title>
<path fill="none" stroke="midnightblue" d="M273.515,-224.446C237.857,-212.532 197.111,-198.917 169.586,-189.721"/>
<polygon fill="midnightblue" stroke="midnightblue" points="170.671,-186.393 160.078,-186.544 168.453,-193.032 170.671,-186.393"/>
</g>
<!-- Node3 -->
<g id="node3" class="node"><title>Node3</title>
<polygon fill="white" stroke="#bfbfbf" points="178.5,-168.5 178.5,-187.5 234.5,-187.5 234.5,-168.5 178.5,-168.5"/>
<text text-anchor="middle" x="206.5" y="-175.5" font-family="Helvetica,sans-Serif" font-size="10.00">iostream</text>
</g>
<!-- Node1&#45;&gt;Node3 -->
<g id="edge2" class="edge"><title>Node1&#45;&gt;Node3</title>
<path fill="none" stroke="midnightblue" d="M298.036,-224.446C276.008,-213.509 251.093,-201.14 232.825,-192.07"/>
<polygon fill="midnightblue" stroke="midnightblue" points="234.188,-188.839 223.675,-187.527 231.075,-195.109 234.188,-188.839"/>
</g>
<!-- Node4 -->
<g id="node4" class="node"><title>Node4</title>
<g id="a_node4"><a xlink:href="../../d1/d4e/_geometry_8h.html" target="_top" xlink:title="Geometry.h">
<polygon fill="white" stroke="black" points="260,-112.5 260,-131.5 329,-131.5 329,-112.5 260,-112.5"/>
<text text-anchor="middle" x="294.5" y="-119.5" font-family="Helvetica,sans-Serif" font-size="10.00">Geometry.h</text>
</a>
</g>
</g>
<!-- Node1&#45;&gt;Node4 -->
<g id="edge3" class="edge"><title>Node1&#45;&gt;Node4</title>
<path fill="none" stroke="midnightblue" d="M345.497,-224.321C342.837,-207.721 338.006,-185.834 329.5,-168 324.504,-157.524 316.741,-147.204 309.794,-139.094"/>
<polygon fill="midnightblue" stroke="midnightblue" points="312.286,-136.631 303.001,-131.529 307.078,-141.308 312.286,-136.631"/>
</g>
<!-- Node9 -->
<g id="node9" class="node"><title>Node9</title>
<polygon fill="white" stroke="#bfbfbf" points="344,-0.5 344,-19.5 421,-19.5 421,-0.5 344,-0.5"/>
<text text-anchor="middle" x="382.5" y="-7.5" font-family="Helvetica,sans-Serif" font-size="10.00">Eigen/Sparse</text>
</g>
<!-- Node1&#45;&gt;Node9 -->
<g id="edge14" class="edge"><title>Node1&#45;&gt;Node9</title>
<path fill="none" stroke="midnightblue" d="M352.074,-224.427C358.915,-176.443 373.718,-72.6036 379.804,-29.9134"/>
<polygon fill="midnightblue" stroke="midnightblue" points="383.299,-30.1974 381.245,-19.8035 376.369,-29.2094 383.299,-30.1974"/>
</g>
<!-- Node10 -->
<g id="node10" class="node"><title>Node10</title>
<polygon fill="white" stroke="#bfbfbf" points="439.5,-0.5 439.5,-19.5 527.5,-19.5 527.5,-0.5 439.5,-0.5"/>
<text text-anchor="middle" x="483.5" y="-7.5" font-family="Helvetica,sans-Serif" font-size="10.00">Eigen/Cholesky</text>
</g>
<!-- Node1&#45;&gt;Node10 -->
<g id="edge13" class="edge"><title>Node1&#45;&gt;Node10</title>
<path fill="none" stroke="midnightblue" d="M362.692,-224.427C390.143,-175.931 449.887,-70.3832 473.555,-28.569"/>
<polygon fill="midnightblue" stroke="midnightblue" points="476.637,-30.2302 478.517,-19.8035 470.545,-26.782 476.637,-30.2302"/>
</g>
<!-- Node12 -->
<g id="node12" class="node"><title>Node12</title>
<g id="a_node12"><a xlink:href="../../d6/d9b/_functions_8h.html" target="_top" xlink:title="Function declarations. ">
<polygon fill="white" stroke="black" points="253,-168.5 253,-187.5 320,-187.5 320,-168.5 253,-168.5"/>
<text text-anchor="middle" x="286.5" y="-175.5" font-family="Helvetica,sans-Serif" font-size="10.00">Functions.h</text>
</a>
</g>
</g>
<!-- Node1&#45;&gt;Node12 -->
<g id="edge11" class="edge"><title>Node1&#45;&gt;Node12</title>
<path fill="none" stroke="midnightblue" d="M326.467,-224.446C317.921,-214.728 308.38,-203.88 300.764,-195.22"/>
<polygon fill="midnightblue" stroke="midnightblue" points="303.379,-192.893 294.147,-187.695 298.123,-197.516 303.379,-192.893"/>
</g>
<!-- Node13 -->
<g id="node13" class="node"><title>Node13</title>
<g id="a_node13"><a xlink:href="../../d6/d1b/_gauss_quad_param_8h.html" target="_top" xlink:title="GaussQuadParam.h">
<polygon fill="white" stroke="black" points="453,-168.5 453,-187.5 562,-187.5 562,-168.5 453,-168.5"/>
<text text-anchor="middle" x="507.5" y="-175.5" font-family="Helvetica,sans-Serif" font-size="10.00">GaussQuadParam.h</text>
</a>
</g>
</g>
<!-- Node1&#45;&gt;Node13 -->
<g id="edge15" class="edge"><title>Node1&#45;&gt;Node13</title>
<path fill="none" stroke="midnightblue" d="M405.005,-224.446C430.012,-213.358 458.34,-200.797 478.867,-191.696"/>
<polygon fill="midnightblue" stroke="midnightblue" points="480.546,-194.78 488.269,-187.527 477.709,-188.381 480.546,-194.78"/>
</g>
<!-- Node5 -->
<g id="node5" class="node"><title>Node5</title>
<g id="a_node5"><a xlink:href="../../de/d4c/_misc_8h.html" target="_top" xlink:title="Auxiliary structures. ">
<polygon fill="white" stroke="black" points="272,-56.5 272,-75.5 317,-75.5 317,-56.5 272,-56.5"/>
<text text-anchor="middle" x="294.5" y="-63.5" font-family="Helvetica,sans-Serif" font-size="10.00">Misc.h</text>
</a>
</g>
</g>
<!-- Node4&#45;&gt;Node5 -->
<g id="edge4" class="edge"><title>Node4&#45;&gt;Node5</title>
<path fill="none" stroke="midnightblue" d="M294.5,-112.083C294.5,-105.006 294.5,-94.8611 294.5,-85.9865"/>
<polygon fill="midnightblue" stroke="midnightblue" points="298,-85.751 294.5,-75.7511 291,-85.7511 298,-85.751"/>
</g>
<!-- Node6 -->
<g id="node6" class="node"><title>Node6</title>
<polygon fill="white" stroke="#bfbfbf" points="212,-0.5 212,-19.5 253,-19.5 253,-0.5 212,-0.5"/>
<text text-anchor="middle" x="232.5" y="-7.5" font-family="Helvetica,sans-Serif" font-size="10.00">string</text>
</g>
<!-- Node5&#45;&gt;Node6 -->
<g id="edge5" class="edge"><title>Node5&#45;&gt;Node6</title>
<path fill="none" stroke="midnightblue" d="M284.539,-56.324C275.373,-48.3414 261.563,-36.3128 250.472,-26.6529"/>
<polygon fill="midnightblue" stroke="midnightblue" points="252.482,-23.7624 242.643,-19.8339 247.885,-29.041 252.482,-23.7624"/>
</g>
<!-- Node7 -->
<g id="node7" class="node"><title>Node7</title>
<polygon fill="white" stroke="#bfbfbf" points="271,-0.5 271,-19.5 326,-19.5 326,-0.5 271,-0.5"/>
<text text-anchor="middle" x="298.5" y="-7.5" font-family="Helvetica,sans-Serif" font-size="10.00">complex</text>
</g>
<!-- Node5&#45;&gt;Node7 -->
<g id="edge6" class="edge"><title>Node5&#45;&gt;Node7</title>
<path fill="none" stroke="midnightblue" d="M295.161,-56.083C295.685,-49.0059 296.436,-38.8611 297.094,-29.9865"/>
<polygon fill="midnightblue" stroke="midnightblue" points="300.603,-29.9823 297.852,-19.7511 293.623,-29.4652 300.603,-29.9823"/>
</g>
<!-- Node8 -->
<g id="node8" class="node"><title>Node8</title>
<polygon fill="white" stroke="#bfbfbf" points="0,-0.5 0,-19.5 75,-19.5 75,-0.5 0,-0.5"/>
<text text-anchor="middle" x="37.5" y="-7.5" font-family="Helvetica,sans-Serif" font-size="10.00">Eigen/Dense</text>
</g>
<!-- Node5&#45;&gt;Node8 -->
<g id="edge7" class="edge"><title>Node5&#45;&gt;Node8</title>
<path fill="none" stroke="midnightblue" d="M271.693,-60.2079C229.944,-51.4357 140.436,-32.6286 84.965,-20.9732"/>
<polygon fill="midnightblue" stroke="midnightblue" points="85.5286,-17.5153 75.0226,-18.8841 84.0892,-24.3657 85.5286,-17.5153"/>
</g>
<!-- Node5&#45;&gt;Node9 -->
<g id="edge8" class="edge"><title>Node5&#45;&gt;Node9</title>
<path fill="none" stroke="midnightblue" d="M308.639,-56.324C322.366,-47.9002 343.436,-34.9709 359.564,-25.0741"/>
<polygon fill="midnightblue" stroke="midnightblue" points="361.704,-27.8678 368.396,-19.6545 358.043,-21.9016 361.704,-27.8678"/>
</g>
<!-- Node5&#45;&gt;Node10 -->
<g id="edge9" class="edge"><title>Node5&#45;&gt;Node10</title>
<path fill="none" stroke="midnightblue" d="M317.298,-58.4863C348.572,-49.551 405.262,-33.3538 443.639,-22.389"/>
<polygon fill="midnightblue" stroke="midnightblue" points="444.803,-25.6963 453.457,-19.5837 442.88,-18.9657 444.803,-25.6963"/>
</g>
<!-- Node11 -->
<g id="node11" class="node"><title>Node11</title>
<polygon fill="white" stroke="#bfbfbf" points="93,-0.5 93,-19.5 194,-19.5 194,-0.5 93,-0.5"/>
<text text-anchor="middle" x="143.5" y="-7.5" font-family="Helvetica,sans-Serif" font-size="10.00">Eigen/Eigenvalues</text>
</g>
<!-- Node5&#45;&gt;Node11 -->
<g id="edge10" class="edge"><title>Node5&#45;&gt;Node11</title>
<path fill="none" stroke="midnightblue" d="M271.894,-56.9157C246.798,-47.9408 206.032,-33.3624 177.175,-23.0429"/>
<polygon fill="midnightblue" stroke="midnightblue" points="178.105,-19.6583 167.51,-19.5865 175.748,-26.2495 178.105,-19.6583"/>
</g>
<!-- Node12&#45;&gt;Node4 -->
<g id="edge12" class="edge"><title>Node12&#45;&gt;Node4</title>
<path fill="none" stroke="midnightblue" d="M287.821,-168.083C288.881,-160.927 290.406,-150.635 291.731,-141.691"/>
<polygon fill="midnightblue" stroke="midnightblue" points="295.2,-142.156 293.204,-131.751 288.276,-141.13 295.2,-142.156"/>
</g>
</g>
</svg>
