<?xml version="1.0" encoding="UTF-8" standalone="no"?>
<!DOCTYPE svg PUBLIC "-//W3C//DTD SVG 1.1//EN"
 "http://www.w3.org/Graphics/SVG/1.1/DTD/svg11.dtd">
<!-- Generated by graphviz version 2.38.0 (20140413.2041)
 -->
<!-- Title: params Pages: 1 -->
<svg width="158pt" height="398pt"
 viewBox="0.00 0.00 157.50 398.00" xmlns="http://www.w3.org/2000/svg" xmlns:xlink="http://www.w3.org/1999/xlink">
<g id="graph0" class="graph" transform="scale(1 1) rotate(0) translate(4 394)">
<title>params</title>
<polygon fill="white" stroke="none" points="-4,4 -4,-394 153.5,-394 153.5,4 -4,4"/>
<!-- Node1 -->
<g id="node1" class="node"><title>Node1</title>
<polygon fill="#bfbfbf" stroke="black" points="11,-0.5 11,-123.5 84,-123.5 84,-0.5 11,-0.5"/>
<text text-anchor="middle" x="47.5" y="-111.5" font-family="Helvetica,sans-Serif" font-size="10.00">params</text>
<polyline fill="none" stroke="black" points="11,-104.5 84,-104.5 "/>
<text text-anchor="start" x="19" y="-92.5" font-family="Helvetica,sans-Serif" font-size="10.00">+ Nref</text>
<text text-anchor="start" x="19" y="-81.5" font-family="Helvetica,sans-Serif" font-size="10.00">+ n</text>
<text text-anchor="start" x="19" y="-70.5" font-family="Helvetica,sans-Serif" font-size="10.00">+ Neig</text>
<text text-anchor="start" x="19" y="-59.5" font-family="Helvetica,sans-Serif" font-size="10.00">+ tol</text>
<text text-anchor="start" x="19" y="-48.5" font-family="Helvetica,sans-Serif" font-size="10.00">+ recompute</text>
<text text-anchor="start" x="19" y="-37.5" font-family="Helvetica,sans-Serif" font-size="10.00">+ xShft</text>
<text text-anchor="start" x="19" y="-26.5" font-family="Helvetica,sans-Serif" font-size="10.00">+ yShft</text>
<polyline fill="none" stroke="black" points="11,-19.5 84,-19.5 "/>
<text text-anchor="middle" x="47.5" y="-7.5" font-family="Helvetica,sans-Serif" font-size="10.00"> </text>
</g>
<!-- Node2 -->
<g id="node2" class="node"><title>Node2</title>
<g id="a_node2"><a xlink:title="STL class. ">
<polygon fill="white" stroke="#bfbfbf" points="17.5,-226.5 17.5,-283.5 77.5,-283.5 77.5,-226.5 17.5,-226.5"/>
<text text-anchor="middle" x="47.5" y="-271.5" font-family="Helvetica,sans-Serif" font-size="10.00">std::string</text>
<polyline fill="none" stroke="#bfbfbf" points="17.5,-264.5 77.5,-264.5 "/>
<text text-anchor="middle" x="47.5" y="-252.5" font-family="Helvetica,sans-Serif" font-size="10.00"> </text>
<polyline fill="none" stroke="#bfbfbf" points="17.5,-245.5 77.5,-245.5 "/>
<text text-anchor="middle" x="47.5" y="-233.5" font-family="Helvetica,sans-Serif" font-size="10.00"> </text>
</a>
</g>
</g>
<!-- Node2&#45;&gt;Node1 -->
<g id="edge1" class="edge"><title>Node2&#45;&gt;Node1</title>
<path fill="none" stroke="#404040" d="M47.5,-226.227C47.5,-202.57 47.5,-167.49 47.5,-135.907"/>
<polygon fill="none" stroke="#404040" points="47.5001,-135.549 43.5,-129.549 47.5,-123.549 51.5,-129.549 47.5001,-135.549"/>
<text text-anchor="middle" x="98.5" y="-200" font-family="Helvetica,sans-Serif" font-size="10.00"> +BoundaryFilenameN</text>
<text text-anchor="middle" x="98.5" y="-189" font-family="Helvetica,sans-Serif" font-size="10.00">+MatPrefix</text>
<text text-anchor="middle" x="98.5" y="-178" font-family="Helvetica,sans-Serif" font-size="10.00">+omega</text>
<text text-anchor="middle" x="98.5" y="-167" font-family="Helvetica,sans-Serif" font-size="10.00">+CoordinateFilename</text>
<text text-anchor="middle" x="98.5" y="-156" font-family="Helvetica,sans-Serif" font-size="10.00">+BoundaryFilenameD</text>
<text text-anchor="middle" x="98.5" y="-145" font-family="Helvetica,sans-Serif" font-size="10.00">+ElementsFilename</text>
</g>
<!-- Node3 -->
<g id="node3" class="node"><title>Node3</title>
<g id="a_node3"><a xlink:title="STL class. ">
<polygon fill="white" stroke="#bfbfbf" points="0,-321.5 0,-389.5 95,-389.5 95,-321.5 0,-321.5"/>
<text text-anchor="start" x="8" y="-377.5" font-family="Helvetica,sans-Serif" font-size="10.00">std::basic_string&lt;</text>
<text text-anchor="middle" x="47.5" y="-366.5" font-family="Helvetica,sans-Serif" font-size="10.00"> char &gt;</text>
<polyline fill="none" stroke="#bfbfbf" points="0,-359.5 95,-359.5 "/>
<text text-anchor="middle" x="47.5" y="-347.5" font-family="Helvetica,sans-Serif" font-size="10.00"> </text>
<polyline fill="none" stroke="#bfbfbf" points="0,-340.5 95,-340.5 "/>
<text text-anchor="middle" x="47.5" y="-328.5" font-family="Helvetica,sans-Serif" font-size="10.00"> </text>
</a>
</g>
</g>
<!-- Node3&#45;&gt;Node2 -->
<g id="edge2" class="edge"><title>Node3&#45;&gt;Node2</title>
<path fill="none" stroke="midnightblue" d="M47.5,-311.375C47.5,-301.94 47.5,-292.201 47.5,-283.571"/>
<polygon fill="none" stroke="midnightblue" points="44.0001,-311.427 47.5,-321.427 51.0001,-311.427 44.0001,-311.427"/>
</g>
</g>
</svg>
