<?xml version="1.0" encoding="UTF-8" standalone="no"?>
<!DOCTYPE svg PUBLIC "-//W3C//DTD SVG 1.1//EN"
 "http://www.w3.org/Graphics/SVG/1.1/DTD/svg11.dtd">
<!-- Generated by graphviz version 2.38.0 (20140413.2041)
 -->
<!-- Title: MGLTriMesh Pages: 1 -->
<svg width="105pt" height="248pt"
 viewBox="0.00 0.00 105.00 248.00" xmlns="http://www.w3.org/2000/svg" xmlns:xlink="http://www.w3.org/1999/xlink">
<g id="graph0" class="graph" transform="scale(1 1) rotate(0) translate(4 244)">
<title>MGLTriMesh</title>
<polygon fill="white" stroke="none" points="-4,4 -4,-244 101,-244 101,4 -4,4"/>
<!-- Node1 -->
<g id="node1" class="node"><title>Node1</title>
<polygon fill="#bfbfbf" stroke="black" points="-7.10543e-15,-0.5 -7.10543e-15,-145.5 97,-145.5 97,-0.5 -7.10543e-15,-0.5"/>
<text text-anchor="middle" x="48.5" y="-133.5" font-family="Helvetica,sans-Serif" font-size="10.00">MGLTriMesh</text>
<polyline fill="none" stroke="black" points="-7.10543e-15,-126.5 97,-126.5 "/>
<text text-anchor="start" x="8" y="-114.5" font-family="Helvetica,sans-Serif" font-size="10.00">+ Ntri</text>
<text text-anchor="start" x="8" y="-103.5" font-family="Helvetica,sans-Serif" font-size="10.00">+ Nvert</text>
<text text-anchor="start" x="8" y="-92.5" font-family="Helvetica,sans-Serif" font-size="10.00">+ vertices</text>
<text text-anchor="start" x="8" y="-81.5" font-family="Helvetica,sans-Serif" font-size="10.00">+ Triangle</text>
<text text-anchor="start" x="8" y="-70.5" font-family="Helvetica,sans-Serif" font-size="10.00">+ LineStyle</text>
<text text-anchor="start" x="8" y="-59.5" font-family="Helvetica,sans-Serif" font-size="10.00">+ VertexStyle</text>
<polyline fill="none" stroke="black" points="-7.10543e-15,-52.5 97,-52.5 "/>
<text text-anchor="start" x="8" y="-40.5" font-family="Helvetica,sans-Serif" font-size="10.00">+ MGLTriMesh()</text>
<text text-anchor="start" x="8" y="-29.5" font-family="Helvetica,sans-Serif" font-size="10.00">+ ~MGLTriMesh()</text>
<text text-anchor="start" x="8" y="-18.5" font-family="Helvetica,sans-Serif" font-size="10.00">+ updateFval()</text>
<text text-anchor="start" x="8" y="-7.5" font-family="Helvetica,sans-Serif" font-size="10.00">+ Draw()</text>
</g>
<!-- Node2 -->
<g id="node2" class="node"><title>Node2</title>
<polygon fill="white" stroke="#bfbfbf" points="20,-182.5 20,-239.5 77,-239.5 77,-182.5 20,-182.5"/>
<text text-anchor="middle" x="48.5" y="-227.5" font-family="Helvetica,sans-Serif" font-size="10.00">mglDraw</text>
<polyline fill="none" stroke="#bfbfbf" points="20,-220.5 77,-220.5 "/>
<text text-anchor="middle" x="48.5" y="-208.5" font-family="Helvetica,sans-Serif" font-size="10.00"> </text>
<polyline fill="none" stroke="#bfbfbf" points="20,-201.5 77,-201.5 "/>
<text text-anchor="middle" x="48.5" y="-189.5" font-family="Helvetica,sans-Serif" font-size="10.00"> </text>
</g>
<!-- Node2&#45;&gt;Node1 -->
<g id="edge1" class="edge"><title>Node2&#45;&gt;Node1</title>
<path fill="none" stroke="midnightblue" d="M48.5,-172.356C48.5,-163.999 48.5,-154.872 48.5,-145.656"/>
<polygon fill="none" stroke="midnightblue" points="45.0001,-172.478 48.5,-182.478 52.0001,-172.478 45.0001,-172.478"/>
</g>
</g>
</svg>
