<?xml version="1.0" encoding="UTF-8" standalone="no"?>
<!DOCTYPE svg PUBLIC "-//W3C//DTD SVG 1.1//EN"
 "http://www.w3.org/Graphics/SVG/1.1/DTD/svg11.dtd">
<!-- Generated by graphviz version 2.38.0 (20140413.2041)
 -->
<!-- Title: element&lt; T, n &gt; Pages: 1 -->
<svg width="97pt" height="171pt"
 viewBox="0.00 0.00 97.00 171.00" xmlns="http://www.w3.org/2000/svg" xmlns:xlink="http://www.w3.org/1999/xlink">
<g id="graph0" class="graph" transform="scale(1 1) rotate(0) translate(4 167)">
<title>element&lt; T, n &gt;</title>
<polygon fill="white" stroke="none" points="-4,4 -4,-167 93,-167 93,4 -4,4"/>
<!-- Node1 -->
<g id="node1" class="node"><title>Node1</title>
<polygon fill="#bfbfbf" stroke="black" points="-7.10543e-15,-0.5 -7.10543e-15,-57.5 89,-57.5 89,-0.5 -7.10543e-15,-0.5"/>
<text text-anchor="middle" x="44.5" y="-45.5" font-family="Helvetica,sans-Serif" font-size="10.00">element&lt; T, n &gt;</text>
<polyline fill="none" stroke="black" points="-7.10543e-15,-38.5 89,-38.5 "/>
<text text-anchor="middle" x="44.5" y="-26.5" font-family="Helvetica,sans-Serif" font-size="10.00"> </text>
<polyline fill="none" stroke="black" points="-7.10543e-15,-19.5 89,-19.5 "/>
<text text-anchor="middle" x="44.5" y="-7.5" font-family="Helvetica,sans-Serif" font-size="10.00"> </text>
</g>
<!-- Node2 -->
<g id="node2" class="node"><title>Node2</title>
<polygon fill="white" stroke="#bfbfbf" points="30,-105.5 30,-162.5 59,-162.5 59,-105.5 30,-105.5"/>
<text text-anchor="middle" x="44.5" y="-150.5" font-family="Helvetica,sans-Serif" font-size="10.00">T</text>
<polyline fill="none" stroke="#bfbfbf" points="30,-143.5 59,-143.5 "/>
<text text-anchor="middle" x="44.5" y="-131.5" font-family="Helvetica,sans-Serif" font-size="10.00"> </text>
<polyline fill="none" stroke="#bfbfbf" points="30,-124.5 59,-124.5 "/>
<text text-anchor="middle" x="44.5" y="-112.5" font-family="Helvetica,sans-Serif" font-size="10.00"> </text>
</g>
<!-- Node2&#45;&gt;Node1 -->
<g id="edge1" class="edge"><title>Node2&#45;&gt;Node1</title>
<path fill="none" stroke="#404040" d="M44.5,-105.398C44.5,-94.5451 44.5,-81.8731 44.5,-70.0493"/>
<polygon fill="none" stroke="#404040" points="44.5001,-69.6783 40.5,-63.6783 44.5,-57.6783 48.5,-63.6783 44.5001,-69.6783"/>
<text text-anchor="middle" x="57.5" y="-79" font-family="Helvetica,sans-Serif" font-size="10.00"> +vert</text>
</g>
</g>
</svg>
