<?xml version="1.0" encoding="UTF-8" standalone="no"?>
<!DOCTYPE svg PUBLIC "-//W3C//DTD SVG 1.1//EN"
 "http://www.w3.org/Graphics/SVG/1.1/DTD/svg11.dtd">
<!-- Generated by graphviz version 2.38.0 (20140413.2041)
 -->
<!-- Title: /home/solid/secondary/lebedev/bin/Master_Thesis_Num/FEM_EigenvalueDecomposition/tests/PertTheoSolution.cpp Pages: 1 -->
<svg width="2086pt" height="329pt"
 viewBox="0.00 0.00 2086.00 329.00" xmlns="http://www.w3.org/2000/svg" xmlns:xlink="http://www.w3.org/1999/xlink">
<g id="graph0" class="graph" transform="scale(1 1) rotate(0) translate(4 325)">
<title>/home/solid/secondary/lebedev/bin/Master_Thesis_Num/FEM_EigenvalueDecomposition/tests/PertTheoSolution.cpp</title>
<polygon fill="white" stroke="none" points="-4,4 -4,-325 2082,-325 2082,4 -4,4"/>
<!-- Node1 -->
<g id="node1" class="node"><title>Node1</title>
<polygon fill="#bfbfbf" stroke="black" points="698.5,-268.5 698.5,-320.5 886.5,-320.5 886.5,-268.5 698.5,-268.5"/>
<text text-anchor="start" x="706.5" y="-308.5" font-family="Helvetica,sans-Serif" font-size="10.00">/home/solid/secondary</text>
<text text-anchor="start" x="706.5" y="-297.5" font-family="Helvetica,sans-Serif" font-size="10.00">/lebedev/bin/Master_Thesis</text>
<text text-anchor="start" x="706.5" y="-286.5" font-family="Helvetica,sans-Serif" font-size="10.00">_Num/FEM_EigenvalueDecomposition</text>
<text text-anchor="middle" x="792.5" y="-275.5" font-family="Helvetica,sans-Serif" font-size="10.00">/tests/PertTheoSolution.cpp</text>
</g>
<!-- Node2 -->
<g id="node2" class="node"><title>Node2</title>
<polygon fill="white" stroke="#bfbfbf" points="0,-190.5 0,-209.5 45,-209.5 45,-190.5 0,-190.5"/>
<text text-anchor="middle" x="22.5" y="-197.5" font-family="Helvetica,sans-Serif" font-size="10.00">cstdlib</text>
</g>
<!-- Node1&#45;&gt;Node2 -->
<g id="edge1" class="edge"><title>Node1&#45;&gt;Node2</title>
<path fill="none" stroke="midnightblue" d="M698.258,-293.461C525.814,-292.114 166.878,-283.041 54.5,-232 47.3078,-228.733 40.7613,-223.14 35.49,-217.595"/>
<polygon fill="midnightblue" stroke="midnightblue" points="37.9345,-215.071 28.7526,-209.784 32.6339,-219.643 37.9345,-215.071"/>
</g>
<!-- Node3 -->
<g id="node3" class="node"><title>Node3</title>
<polygon fill="white" stroke="#bfbfbf" points="63.5,-190.5 63.5,-209.5 119.5,-209.5 119.5,-190.5 63.5,-190.5"/>
<text text-anchor="middle" x="91.5" y="-197.5" font-family="Helvetica,sans-Serif" font-size="10.00">iostream</text>
</g>
<!-- Node1&#45;&gt;Node3 -->
<g id="edge2" class="edge"><title>Node1&#45;&gt;Node3</title>
<path fill="none" stroke="midnightblue" d="M698.418,-291.657C540.378,-287.426 229.017,-273.892 128.5,-232 120.417,-228.631 112.767,-222.847 106.544,-217.181"/>
<polygon fill="midnightblue" stroke="midnightblue" points="108.611,-214.302 99.0364,-209.766 103.692,-219.283 108.611,-214.302"/>
</g>
<!-- Node4 -->
<g id="node4" class="node"><title>Node4</title>
<polygon fill="white" stroke="#bfbfbf" points="137.5,-190.5 137.5,-209.5 189.5,-209.5 189.5,-190.5 137.5,-190.5"/>
<text text-anchor="middle" x="163.5" y="-197.5" font-family="Helvetica,sans-Serif" font-size="10.00">iomanip</text>
</g>
<!-- Node1&#45;&gt;Node4 -->
<g id="edge3" class="edge"><title>Node1&#45;&gt;Node4</title>
<path fill="none" stroke="midnightblue" d="M698.326,-290.567C554.302,-284.939 286.821,-269.654 199.5,-232 191.585,-228.587 184.134,-222.795 178.086,-217.135"/>
<polygon fill="midnightblue" stroke="midnightblue" points="180.308,-214.403 170.797,-209.734 175.32,-219.315 180.308,-214.403"/>
</g>
<!-- Node5 -->
<g id="node5" class="node"><title>Node5</title>
<polygon fill="white" stroke="#bfbfbf" points="208,-190.5 208,-209.5 261,-209.5 261,-190.5 208,-190.5"/>
<text text-anchor="middle" x="234.5" y="-197.5" font-family="Helvetica,sans-Serif" font-size="10.00">sstream</text>
</g>
<!-- Node1&#45;&gt;Node5 -->
<g id="edge4" class="edge"><title>Node1&#45;&gt;Node5</title>
<path fill="none" stroke="midnightblue" d="M698.444,-289.013C569.429,-281.741 345.059,-264.769 270.5,-232 262.609,-228.532 255.162,-222.73 249.111,-217.077"/>
<polygon fill="midnightblue" stroke="midnightblue" points="251.333,-214.346 241.814,-209.694 246.354,-219.267 251.333,-214.346"/>
</g>
<!-- Node6 -->
<g id="node6" class="node"><title>Node6</title>
<polygon fill="white" stroke="#bfbfbf" points="279.5,-190.5 279.5,-209.5 329.5,-209.5 329.5,-190.5 279.5,-190.5"/>
<text text-anchor="middle" x="304.5" y="-197.5" font-family="Helvetica,sans-Serif" font-size="10.00">fstream</text>
</g>
<!-- Node1&#45;&gt;Node6 -->
<g id="edge5" class="edge"><title>Node1&#45;&gt;Node6</title>
<path fill="none" stroke="midnightblue" d="M698.315,-286.488C585.965,-277.104 405.54,-258.513 343.5,-232 335,-228.367 326.8,-222.365 320.13,-216.604"/>
<polygon fill="midnightblue" stroke="midnightblue" points="322.312,-213.855 312.594,-209.634 317.559,-218.993 322.312,-213.855"/>
</g>
<!-- Node7 -->
<g id="node7" class="node"><title>Node7</title>
<g id="a_node7"><a xlink:href="../../d1/d4e/_geometry_8h.html" target="_top" xlink:title="Geometry.h">
<polygon fill="white" stroke="black" points="323,-112.5 323,-131.5 392,-131.5 392,-112.5 323,-112.5"/>
<text text-anchor="middle" x="357.5" y="-119.5" font-family="Helvetica,sans-Serif" font-size="10.00">Geometry.h</text>
</a>
</g>
</g>
<!-- Node1&#45;&gt;Node7 -->
<g id="edge6" class="edge"><title>Node1&#45;&gt;Node7</title>
<path fill="none" stroke="midnightblue" d="M698.06,-291.889C589.925,-287.985 421.957,-274.956 377.5,-232 353.253,-208.572 352.83,-166.14 354.977,-141.702"/>
<polygon fill="midnightblue" stroke="midnightblue" points="358.474,-141.918 356.105,-131.592 351.517,-141.142 358.474,-141.918"/>
</g>
<!-- Node11 -->
<g id="node11" class="node"><title>Node11</title>
<polygon fill="white" stroke="#bfbfbf" points="492,-0.5 492,-19.5 567,-19.5 567,-0.5 492,-0.5"/>
<text text-anchor="middle" x="529.5" y="-7.5" font-family="Helvetica,sans-Serif" font-size="10.00">Eigen/Dense</text>
</g>
<!-- Node1&#45;&gt;Node11 -->
<g id="edge21" class="edge"><title>Node1&#45;&gt;Node11</title>
<path fill="none" stroke="midnightblue" d="M698.186,-286.232C622.884,-278.239 526.052,-262.283 501.5,-232 452.448,-171.498 497.903,-69.414 519.526,-28.6174"/>
<polygon fill="midnightblue" stroke="midnightblue" points="522.602,-30.2879 524.323,-19.8337 516.458,-26.9331 522.602,-30.2879"/>
</g>
<!-- Node15 -->
<g id="node15" class="node"><title>Node15</title>
<g id="a_node15"><a xlink:href="../../d6/d9b/_functions_8h.html" target="_top" xlink:title="Function declarations. ">
<polygon fill="white" stroke="black" points="386,-190.5 386,-209.5 453,-209.5 453,-190.5 386,-190.5"/>
<text text-anchor="middle" x="419.5" y="-197.5" font-family="Helvetica,sans-Serif" font-size="10.00">Functions.h</text>
</a>
</g>
</g>
<!-- Node1&#45;&gt;Node15 -->
<g id="edge14" class="edge"><title>Node1&#45;&gt;Node15</title>
<path fill="none" stroke="midnightblue" d="M698.412,-285.397C632.031,-277.377 542.02,-261.784 467.5,-232 457.353,-227.944 447.051,-221.639 438.606,-215.771"/>
<polygon fill="midnightblue" stroke="midnightblue" points="440.412,-212.757 430.266,-209.703 436.293,-218.417 440.412,-212.757"/>
</g>
<!-- Node16 -->
<g id="node16" class="node"><title>Node16</title>
<polygon fill="white" stroke="#bfbfbf" points="510,-185 510,-215 681,-215 681,-185 510,-185"/>
<text text-anchor="start" x="518" y="-203" font-family="Helvetica,sans-Serif" font-size="10.00">../lib/Eigen_3.2.6</text>
<text text-anchor="middle" x="595.5" y="-192" font-family="Helvetica,sans-Serif" font-size="10.00">/unsupported/Eigen/ArpackSupport</text>
</g>
<!-- Node1&#45;&gt;Node16 -->
<g id="edge16" class="edge"><title>Node1&#45;&gt;Node16</title>
<path fill="none" stroke="midnightblue" d="M739.189,-268.468C706.286,-253.019 664.794,-233.537 634.866,-219.484"/>
<polygon fill="midnightblue" stroke="midnightblue" points="636.12,-216.206 625.581,-215.124 633.145,-222.543 636.12,-216.206"/>
</g>
<!-- Node17 -->
<g id="node17" class="node"><title>Node17</title>
<polygon fill="white" stroke="#bfbfbf" points="699.5,-190.5 699.5,-209.5 767.5,-209.5 767.5,-190.5 699.5,-190.5"/>
<text text-anchor="middle" x="733.5" y="-197.5" font-family="Helvetica,sans-Serif" font-size="10.00">Eigen/Core</text>
</g>
<!-- Node1&#45;&gt;Node17 -->
<g id="edge17" class="edge"><title>Node1&#45;&gt;Node17</title>
<path fill="none" stroke="midnightblue" d="M776.378,-268.224C766.287,-252.404 753.547,-232.43 744.586,-218.38"/>
<polygon fill="midnightblue" stroke="midnightblue" points="747.392,-216.272 739.064,-209.723 741.491,-220.036 747.392,-216.272"/>
</g>
<!-- Node18 -->
<g id="node18" class="node"><title>Node18</title>
<polygon fill="white" stroke="#bfbfbf" points="785.5,-185 785.5,-215 917.5,-215 917.5,-185 785.5,-185"/>
<text text-anchor="start" x="793.5" y="-203" font-family="Helvetica,sans-Serif" font-size="10.00">Eigen/src/Core/util</text>
<text text-anchor="middle" x="851.5" y="-192" font-family="Helvetica,sans-Serif" font-size="10.00">/DisableStupidWarnings.h</text>
</g>
<!-- Node1&#45;&gt;Node18 -->
<g id="edge18" class="edge"><title>Node1&#45;&gt;Node18</title>
<path fill="none" stroke="midnightblue" d="M808.622,-268.224C817.493,-254.316 828.411,-237.198 837.01,-223.717"/>
<polygon fill="midnightblue" stroke="midnightblue" points="840.112,-225.362 842.539,-215.049 834.211,-221.598 840.112,-225.362"/>
</g>
<!-- Node19 -->
<g id="node19" class="node"><title>Node19</title>
<polygon fill="white" stroke="#bfbfbf" points="935.5,-190.5 935.5,-209.5 1055.5,-209.5 1055.5,-190.5 935.5,-190.5"/>
<text text-anchor="middle" x="995.5" y="-197.5" font-family="Helvetica,sans-Serif" font-size="10.00">Eigen/SparseCholesky</text>
</g>
<!-- Node1&#45;&gt;Node19 -->
<g id="edge19" class="edge"><title>Node1&#45;&gt;Node19</title>
<path fill="none" stroke="midnightblue" d="M847.435,-268.468C886.214,-250.798 936.571,-227.852 967.434,-213.789"/>
<polygon fill="midnightblue" stroke="midnightblue" points="969.082,-216.884 976.731,-209.553 966.18,-210.514 969.082,-216.884"/>
</g>
<!-- Node20 -->
<g id="node20" class="node"><title>Node20</title>
<polygon fill="white" stroke="#bfbfbf" points="1073,-168.5 1073,-231.5 1276,-231.5 1276,-168.5 1073,-168.5"/>
<text text-anchor="start" x="1081" y="-219.5" font-family="Helvetica,sans-Serif" font-size="10.00">/home/solid/secondary</text>
<text text-anchor="start" x="1081" y="-208.5" font-family="Helvetica,sans-Serif" font-size="10.00">/lebedev/bin/Master_Thesis</text>
<text text-anchor="start" x="1081" y="-197.5" font-family="Helvetica,sans-Serif" font-size="10.00">_Num/lib/Eigen_3.2.6/unsupported</text>
<text text-anchor="start" x="1081" y="-186.5" font-family="Helvetica,sans-Serif" font-size="10.00">/Eigen/src/Eigenvalues/ArpackSelfAdjoint</text>
<text text-anchor="middle" x="1174.5" y="-175.5" font-family="Helvetica,sans-Serif" font-size="10.00">EigenSolver.h</text>
</g>
<!-- Node1&#45;&gt;Node20 -->
<g id="edge20" class="edge"><title>Node1&#45;&gt;Node20</title>
<path fill="none" stroke="midnightblue" d="M886.572,-273.501C936.523,-262.578 999.144,-248.409 1063.1,-232.317"/>
<polygon fill="midnightblue" stroke="midnightblue" points="1064.13,-235.669 1072.96,-229.824 1062.41,-228.882 1064.13,-235.669"/>
</g>
<!-- Node21 -->
<g id="node21" class="node"><title>Node21</title>
<polygon fill="white" stroke="#bfbfbf" points="1294,-185 1294,-215 1435,-215 1435,-185 1294,-185"/>
<text text-anchor="start" x="1302" y="-203" font-family="Helvetica,sans-Serif" font-size="10.00">Eigen/src/Core/util</text>
<text text-anchor="middle" x="1364.5" y="-192" font-family="Helvetica,sans-Serif" font-size="10.00">/ReenableStupidWarnings.h</text>
</g>
<!-- Node1&#45;&gt;Node21 -->
<g id="edge22" class="edge"><title>Node1&#45;&gt;Node21</title>
<path fill="none" stroke="midnightblue" d="M886.931,-288.736C987.132,-282.061 1149.45,-266.597 1285.5,-232 1298.46,-228.705 1312.15,-223.851 1324.44,-218.957"/>
<polygon fill="midnightblue" stroke="midnightblue" points="1326.03,-222.089 1333.95,-215.053 1323.37,-215.614 1326.03,-222.089"/>
</g>
<!-- Node22 -->
<g id="node22" class="node"><title>Node22</title>
<polygon fill="white" stroke="#bfbfbf" points="1453,-185 1453,-215 1614,-215 1614,-185 1453,-185"/>
<text text-anchor="start" x="1461" y="-203" font-family="Helvetica,sans-Serif" font-size="10.00">../lib/Eigen_3.2.6</text>
<text text-anchor="middle" x="1533.5" y="-192" font-family="Helvetica,sans-Serif" font-size="10.00">/unsupported/Eigen/SparseExtra</text>
</g>
<!-- Node1&#45;&gt;Node22 -->
<g id="edge23" class="edge"><title>Node1&#45;&gt;Node22</title>
<path fill="none" stroke="midnightblue" d="M886.713,-291.713C1014.46,-287.685 1249.12,-274.586 1444.5,-232 1459.57,-228.716 1475.6,-223.648 1489.85,-218.555"/>
<polygon fill="midnightblue" stroke="midnightblue" points="1491.22,-221.782 1499.4,-215.047 1488.81,-215.211 1491.22,-221.782"/>
</g>
<!-- Node23 -->
<g id="node23" class="node"><title>Node23</title>
<polygon fill="white" stroke="#bfbfbf" points="1632,-190.5 1632,-209.5 1755,-209.5 1755,-190.5 1632,-190.5"/>
<text text-anchor="middle" x="1693.5" y="-197.5" font-family="Helvetica,sans-Serif" font-size="10.00">Eigen/OrderingMethods</text>
</g>
<!-- Node1&#45;&gt;Node23 -->
<g id="edge24" class="edge"><title>Node1&#45;&gt;Node23</title>
<path fill="none" stroke="midnightblue" d="M886.816,-290.575C1074.03,-284.104 1486.33,-266.353 1623.5,-232 1639.22,-228.063 1655.84,-220.845 1668.94,-214.364"/>
<polygon fill="midnightblue" stroke="midnightblue" points="1670.9,-217.294 1678.2,-209.618 1667.71,-211.065 1670.9,-217.294"/>
</g>
<!-- Node24 -->
<g id="node24" class="node"><title>Node24</title>
<polygon fill="white" stroke="#bfbfbf" points="1773.5,-190.5 1773.5,-209.5 1831.5,-209.5 1831.5,-190.5 1773.5,-190.5"/>
<text text-anchor="middle" x="1802.5" y="-197.5" font-family="Helvetica,sans-Serif" font-size="10.00">arcomp.h</text>
</g>
<!-- Node1&#45;&gt;Node24 -->
<g id="edge25" class="edge"><title>Node1&#45;&gt;Node24</title>
<path fill="none" stroke="midnightblue" d="M886.584,-290.816C1114.66,-283.844 1684.22,-263.484 1764.5,-232 1773.08,-228.634 1781.2,-222.569 1787.72,-216.691"/>
<polygon fill="midnightblue" stroke="midnightblue" points="1790.31,-219.051 1795.02,-209.562 1785.42,-214.041 1790.31,-219.051"/>
</g>
<!-- Node25 -->
<g id="node25" class="node"><title>Node25</title>
<polygon fill="white" stroke="#bfbfbf" points="1849.5,-190.5 1849.5,-209.5 1911.5,-209.5 1911.5,-190.5 1849.5,-190.5"/>
<text text-anchor="middle" x="1880.5" y="-197.5" font-family="Helvetica,sans-Serif" font-size="10.00">arlnsmat.h</text>
</g>
<!-- Node1&#45;&gt;Node25 -->
<g id="edge26" class="edge"><title>Node1&#45;&gt;Node25</title>
<path fill="none" stroke="midnightblue" d="M886.761,-291.152C1127.57,-284.703 1752.62,-264.974 1840.5,-232 1849.41,-228.658 1857.94,-222.597 1864.81,-216.715"/>
<polygon fill="midnightblue" stroke="midnightblue" points="1867.57,-218.933 1872.54,-209.579 1862.82,-213.79 1867.57,-218.933"/>
</g>
<!-- Node26 -->
<g id="node26" class="node"><title>Node26</title>
<polygon fill="white" stroke="#bfbfbf" points="1930,-190.5 1930,-209.5 1995,-209.5 1995,-190.5 1930,-190.5"/>
<text text-anchor="middle" x="1962.5" y="-197.5" font-family="Helvetica,sans-Serif" font-size="10.00">arlgnsym.h</text>
</g>
<!-- Node1&#45;&gt;Node26 -->
<g id="edge27" class="edge"><title>Node1&#45;&gt;Node26</title>
<path fill="none" stroke="midnightblue" d="M886.933,-291.453C1140.68,-285.516 1824.59,-266.485 1920.5,-232 1929.94,-228.606 1939.07,-222.352 1946.39,-216.345"/>
<polygon fill="midnightblue" stroke="midnightblue" points="1948.87,-218.826 1954.07,-209.593 1944.25,-213.57 1948.87,-218.826"/>
</g>
<!-- Node27 -->
<g id="node27" class="node"><title>Node27</title>
<polygon fill="white" stroke="#bfbfbf" points="2013,-190.5 2013,-209.5 2078,-209.5 2078,-190.5 2013,-190.5"/>
<text text-anchor="middle" x="2045.5" y="-197.5" font-family="Helvetica,sans-Serif" font-size="10.00">arrsnsym.h</text>
</g>
<!-- Node1&#45;&gt;Node27 -->
<g id="edge28" class="edge"><title>Node1&#45;&gt;Node27</title>
<path fill="none" stroke="midnightblue" d="M886.718,-291.903C1153.36,-286.938 1900.68,-269.784 2004.5,-232 2013.78,-228.622 2022.7,-222.37 2029.84,-216.36"/>
<polygon fill="midnightblue" stroke="midnightblue" points="2032.24,-218.907 2037.31,-209.604 2027.55,-213.715 2032.24,-218.907"/>
</g>
<!-- Node8 -->
<g id="node8" class="node"><title>Node8</title>
<g id="a_node8"><a xlink:href="../../de/d4c/_misc_8h.html" target="_top" xlink:title="Auxiliary structures. ">
<polygon fill="white" stroke="black" points="288,-56.5 288,-75.5 333,-75.5 333,-56.5 288,-56.5"/>
<text text-anchor="middle" x="310.5" y="-63.5" font-family="Helvetica,sans-Serif" font-size="10.00">Misc.h</text>
</a>
</g>
</g>
<!-- Node7&#45;&gt;Node8 -->
<g id="edge7" class="edge"><title>Node7&#45;&gt;Node8</title>
<path fill="none" stroke="midnightblue" d="M349.739,-112.083C342.963,-104.298 332.957,-92.8015 324.745,-83.3665"/>
<polygon fill="midnightblue" stroke="midnightblue" points="327.322,-80.9963 318.117,-75.7511 322.042,-85.592 327.322,-80.9963"/>
</g>
<!-- Node9 -->
<g id="node9" class="node"><title>Node9</title>
<polygon fill="white" stroke="#bfbfbf" points="39,-0.5 39,-19.5 80,-19.5 80,-0.5 39,-0.5"/>
<text text-anchor="middle" x="59.5" y="-7.5" font-family="Helvetica,sans-Serif" font-size="10.00">string</text>
</g>
<!-- Node8&#45;&gt;Node9 -->
<g id="edge8" class="edge"><title>Node8&#45;&gt;Node9</title>
<path fill="none" stroke="midnightblue" d="M287.759,-61.0721C249.177,-54.2586 168.271,-39.3259 90.1002,-19.9538"/>
<polygon fill="midnightblue" stroke="midnightblue" points="90.6397,-16.4808 80.0887,-17.4442 88.9375,-23.2708 90.6397,-16.4808"/>
</g>
<!-- Node10 -->
<g id="node10" class="node"><title>Node10</title>
<polygon fill="white" stroke="#bfbfbf" points="98,-0.5 98,-19.5 153,-19.5 153,-0.5 98,-0.5"/>
<text text-anchor="middle" x="125.5" y="-7.5" font-family="Helvetica,sans-Serif" font-size="10.00">complex</text>
</g>
<!-- Node8&#45;&gt;Node10 -->
<g id="edge9" class="edge"><title>Node8&#45;&gt;Node10</title>
<path fill="none" stroke="midnightblue" d="M287.815,-58.3785C256.771,-49.317 200.645,-32.9341 163.22,-22.0101"/>
<polygon fill="midnightblue" stroke="midnightblue" points="163.777,-18.5266 153.196,-19.0843 161.815,-25.2462 163.777,-18.5266"/>
</g>
<!-- Node8&#45;&gt;Node11 -->
<g id="edge10" class="edge"><title>Node8&#45;&gt;Node11</title>
<path fill="none" stroke="midnightblue" d="M333.112,-59.4244C368.849,-50.6126 439.047,-33.3036 485.108,-21.9459"/>
<polygon fill="midnightblue" stroke="midnightblue" points="485.963,-25.34 494.835,-19.5476 484.288,-18.5435 485.963,-25.34"/>
</g>
<!-- Node12 -->
<g id="node12" class="node"><title>Node12</title>
<polygon fill="white" stroke="#bfbfbf" points="171,-0.5 171,-19.5 248,-19.5 248,-0.5 171,-0.5"/>
<text text-anchor="middle" x="209.5" y="-7.5" font-family="Helvetica,sans-Serif" font-size="10.00">Eigen/Sparse</text>
</g>
<!-- Node8&#45;&gt;Node12 -->
<g id="edge11" class="edge"><title>Node8&#45;&gt;Node12</title>
<path fill="none" stroke="midnightblue" d="M294.273,-56.324C278.149,-47.7034 253.2,-34.3643 234.536,-24.3855"/>
<polygon fill="midnightblue" stroke="midnightblue" points="236.156,-21.283 225.687,-19.6545 232.856,-27.456 236.156,-21.283"/>
</g>
<!-- Node13 -->
<g id="node13" class="node"><title>Node13</title>
<polygon fill="white" stroke="#bfbfbf" points="266.5,-0.5 266.5,-19.5 354.5,-19.5 354.5,-0.5 266.5,-0.5"/>
<text text-anchor="middle" x="310.5" y="-7.5" font-family="Helvetica,sans-Serif" font-size="10.00">Eigen/Cholesky</text>
</g>
<!-- Node8&#45;&gt;Node13 -->
<g id="edge12" class="edge"><title>Node8&#45;&gt;Node13</title>
<path fill="none" stroke="midnightblue" d="M310.5,-56.083C310.5,-49.0059 310.5,-38.8611 310.5,-29.9865"/>
<polygon fill="midnightblue" stroke="midnightblue" points="314,-29.751 310.5,-19.7511 307,-29.7511 314,-29.751"/>
</g>
<!-- Node14 -->
<g id="node14" class="node"><title>Node14</title>
<polygon fill="white" stroke="#bfbfbf" points="373,-0.5 373,-19.5 474,-19.5 474,-0.5 373,-0.5"/>
<text text-anchor="middle" x="423.5" y="-7.5" font-family="Helvetica,sans-Serif" font-size="10.00">Eigen/Eigenvalues</text>
</g>
<!-- Node8&#45;&gt;Node14 -->
<g id="edge13" class="edge"><title>Node8&#45;&gt;Node14</title>
<path fill="none" stroke="midnightblue" d="M328.405,-56.4435C346.754,-47.6751 375.505,-33.9355 396.594,-23.8579"/>
<polygon fill="midnightblue" stroke="midnightblue" points="398.165,-26.9862 405.679,-19.5164 395.147,-20.6703 398.165,-26.9862"/>
</g>
<!-- Node15&#45;&gt;Node7 -->
<g id="edge15" class="edge"><title>Node15&#45;&gt;Node7</title>
<path fill="none" stroke="midnightblue" d="M412.388,-190.282C402.297,-177.912 383.638,-155.04 370.903,-139.429"/>
<polygon fill="midnightblue" stroke="midnightblue" points="373.563,-137.153 364.529,-131.616 368.139,-141.578 373.563,-137.153"/>
</g>
</g>
</svg>
