<?xml version="1.0" encoding="UTF-8" standalone="no"?>
<!DOCTYPE svg PUBLIC "-//W3C//DTD SVG 1.1//EN"
 "http://www.w3.org/Graphics/SVG/1.1/DTD/svg11.dtd">
<!-- Generated by graphviz version 2.38.0 (20140413.2041)
 -->
<!-- Title: geometry Pages: 1 -->
<svg width="97pt" height="364pt"
 viewBox="0.00 0.00 97.00 364.00" xmlns="http://www.w3.org/2000/svg" xmlns:xlink="http://www.w3.org/1999/xlink">
<g id="graph0" class="graph" transform="scale(1 1) rotate(0) translate(4 360)">
<title>geometry</title>
<polygon fill="white" stroke="none" points="-4,4 -4,-360 93,-360 93,4 -4,4"/>
<!-- Node1 -->
<g id="node1" class="node"><title>Node1</title>
<polygon fill="#bfbfbf" stroke="black" points="4.5,-0.5 4.5,-145.5 84.5,-145.5 84.5,-0.5 4.5,-0.5"/>
<text text-anchor="middle" x="44.5" y="-133.5" font-family="Helvetica,sans-Serif" font-size="10.00">geometry</text>
<polyline fill="none" stroke="black" points="4.5,-126.5 84.5,-126.5 "/>
<text text-anchor="start" x="12.5" y="-114.5" font-family="Helvetica,sans-Serif" font-size="10.00">+ Nvert</text>
<text text-anchor="start" x="12.5" y="-103.5" font-family="Helvetica,sans-Serif" font-size="10.00">+ Nelem</text>
<text text-anchor="start" x="12.5" y="-92.5" font-family="Helvetica,sans-Serif" font-size="10.00">+ x0</text>
<text text-anchor="start" x="12.5" y="-81.5" font-family="Helvetica,sans-Serif" font-size="10.00">+ xMax</text>
<text text-anchor="start" x="12.5" y="-70.5" font-family="Helvetica,sans-Serif" font-size="10.00">+ vertices</text>
<text text-anchor="start" x="12.5" y="-59.5" font-family="Helvetica,sans-Serif" font-size="10.00">+ fIdx</text>
<polyline fill="none" stroke="black" points="4.5,-52.5 84.5,-52.5 "/>
<text text-anchor="start" x="12.5" y="-40.5" font-family="Helvetica,sans-Serif" font-size="10.00">+ geometry()</text>
<text text-anchor="start" x="12.5" y="-29.5" font-family="Helvetica,sans-Serif" font-size="10.00">+ operator=()</text>
<text text-anchor="start" x="12.5" y="-18.5" font-family="Helvetica,sans-Serif" font-size="10.00">+ resize()</text>
<text text-anchor="start" x="12.5" y="-7.5" font-family="Helvetica,sans-Serif" font-size="10.00">+ ~geometry()</text>
</g>
<!-- Node2 -->
<g id="node2" class="node"><title>Node2</title>
<g id="a_node2"><a xlink:href="../../d9/db2/structelement.html" target="_top" xlink:title="A template for element indices. Template struct for indices of the elements. ">
<polygon fill="white" stroke="black" points="-7.10543e-15,-193.5 -7.10543e-15,-250.5 89,-250.5 89,-193.5 -7.10543e-15,-193.5"/>
<text text-anchor="middle" x="44.5" y="-238.5" font-family="Helvetica,sans-Serif" font-size="10.00">element&lt; T, n &gt;</text>
<polyline fill="none" stroke="black" points="-7.10543e-15,-231.5 89,-231.5 "/>
<text text-anchor="middle" x="44.5" y="-219.5" font-family="Helvetica,sans-Serif" font-size="10.00"> </text>
<polyline fill="none" stroke="black" points="-7.10543e-15,-212.5 89,-212.5 "/>
<text text-anchor="middle" x="44.5" y="-200.5" font-family="Helvetica,sans-Serif" font-size="10.00"> </text>
</a>
</g>
</g>
<!-- Node2&#45;&gt;Node1 -->
<g id="edge1" class="edge"><title>Node2&#45;&gt;Node1</title>
<path fill="none" stroke="#404040" d="M44.5,-193.35C44.5,-183.014 44.5,-170.664 44.5,-157.886"/>
<polygon fill="none" stroke="#404040" points="44.5001,-157.555 40.5,-151.556 44.5,-145.555 48.5,-151.555 44.5001,-157.555"/>
<text text-anchor="middle" x="63.5" y="-167" font-family="Helvetica,sans-Serif" font-size="10.00"> +nodes</text>
</g>
<!-- Node3 -->
<g id="node3" class="node"><title>Node3</title>
<polygon fill="white" stroke="#bfbfbf" points="30,-298.5 30,-355.5 59,-355.5 59,-298.5 30,-298.5"/>
<text text-anchor="middle" x="44.5" y="-343.5" font-family="Helvetica,sans-Serif" font-size="10.00">T</text>
<polyline fill="none" stroke="#bfbfbf" points="30,-336.5 59,-336.5 "/>
<text text-anchor="middle" x="44.5" y="-324.5" font-family="Helvetica,sans-Serif" font-size="10.00"> </text>
<polyline fill="none" stroke="#bfbfbf" points="30,-317.5 59,-317.5 "/>
<text text-anchor="middle" x="44.5" y="-305.5" font-family="Helvetica,sans-Serif" font-size="10.00"> </text>
</g>
<!-- Node3&#45;&gt;Node2 -->
<g id="edge2" class="edge"><title>Node3&#45;&gt;Node2</title>
<path fill="none" stroke="#404040" d="M44.5,-298.398C44.5,-287.545 44.5,-274.873 44.5,-263.049"/>
<polygon fill="none" stroke="#404040" points="44.5001,-262.678 40.5,-256.678 44.5,-250.678 48.5,-256.678 44.5001,-262.678"/>
<text text-anchor="middle" x="57.5" y="-272" font-family="Helvetica,sans-Serif" font-size="10.00"> +vert</text>
</g>
</g>
</svg>
