<?xml version="1.0" encoding="UTF-8" standalone="no"?>
<!DOCTYPE svg PUBLIC "-//W3C//DTD SVG 1.1//EN"
 "http://www.w3.org/Graphics/SVG/1.1/DTD/svg11.dtd">
<!-- Generated by graphviz version 2.38.0 (20140413.2041)
 -->
<!-- Title: /home/solid/secondary/lebedev/bin/Master_Thesis_Num/FEM_EigenvalueDecomposition/Geometry.h Pages: 1 -->
<svg width="2462pt" height="239pt"
 viewBox="0.00 0.00 2462.00 239.00" xmlns="http://www.w3.org/2000/svg" xmlns:xlink="http://www.w3.org/1999/xlink">
<g id="graph0" class="graph" transform="scale(1 1) rotate(0) translate(4 235)">
<title>/home/solid/secondary/lebedev/bin/Master_Thesis_Num/FEM_EigenvalueDecomposition/Geometry.h</title>
<polygon fill="white" stroke="none" points="-4,4 -4,-235 2458,-235 2458,4 -4,4"/>
<!-- Node1 -->
<g id="node1" class="node"><title>Node1</title>
<polygon fill="#bfbfbf" stroke="black" points="1353,-178.5 1353,-230.5 1541,-230.5 1541,-178.5 1353,-178.5"/>
<text text-anchor="start" x="1361" y="-218.5" font-family="Helvetica,sans-Serif" font-size="10.00">/home/solid/secondary</text>
<text text-anchor="start" x="1361" y="-207.5" font-family="Helvetica,sans-Serif" font-size="10.00">/lebedev/bin/Master_Thesis</text>
<text text-anchor="start" x="1361" y="-196.5" font-family="Helvetica,sans-Serif" font-size="10.00">_Num/FEM_EigenvalueDecomposition</text>
<text text-anchor="middle" x="1447" y="-185.5" font-family="Helvetica,sans-Serif" font-size="10.00">/Geometry.h</text>
</g>
<!-- Node2 -->
<g id="node2" class="node"><title>Node2</title>
<g id="a_node2"><a xlink:href="../../d6/d9b/_functions_8h.html" target="_top" xlink:title="Function declarations. ">
<polygon fill="white" stroke="black" points="1072,-89.5 1072,-141.5 1260,-141.5 1260,-89.5 1072,-89.5"/>
<text text-anchor="start" x="1080" y="-129.5" font-family="Helvetica,sans-Serif" font-size="10.00">/home/solid/secondary</text>
<text text-anchor="start" x="1080" y="-118.5" font-family="Helvetica,sans-Serif" font-size="10.00">/lebedev/bin/Master_Thesis</text>
<text text-anchor="start" x="1080" y="-107.5" font-family="Helvetica,sans-Serif" font-size="10.00">_Num/FEM_EigenvalueDecomposition</text>
<text text-anchor="middle" x="1166" y="-96.5" font-family="Helvetica,sans-Serif" font-size="10.00">/Functions.h</text>
</a>
</g>
</g>
<!-- Node1&#45;&gt;Node2 -->
<g id="edge1" class="edge"><title>Node1&#45;&gt;Node2</title>
<path fill="none" stroke="midnightblue" d="M1356.3,-175.418C1321.07,-164.511 1281.04,-152.117 1246.82,-141.521"/>
<polygon fill="midnightblue" stroke="midnightblue" points="1355.51,-178.838 1366.1,-178.453 1357.58,-172.152 1355.51,-178.838"/>
</g>
<!-- Node4 -->
<g id="node4" class="node"><title>Node4</title>
<g id="a_node4"><a xlink:href="../../df/d0a/main_8cpp.html" target="_top" xlink:title="/home/solid/secondary\l/lebedev/bin/Master_Thesis\l_Num/FEM_EigenvalueDecomposition\l/main.cpp">
<polygon fill="white" stroke="black" points="0,-0.5 0,-52.5 188,-52.5 188,-0.5 0,-0.5"/>
<text text-anchor="start" x="8" y="-40.5" font-family="Helvetica,sans-Serif" font-size="10.00">/home/solid/secondary</text>
<text text-anchor="start" x="8" y="-29.5" font-family="Helvetica,sans-Serif" font-size="10.00">/lebedev/bin/Master_Thesis</text>
<text text-anchor="start" x="8" y="-18.5" font-family="Helvetica,sans-Serif" font-size="10.00">_Num/FEM_EigenvalueDecomposition</text>
<text text-anchor="middle" x="94" y="-7.5" font-family="Helvetica,sans-Serif" font-size="10.00">/main.cpp</text>
</a>
</g>
</g>
<!-- Node1&#45;&gt;Node4 -->
<g id="edge14" class="edge"><title>Node1&#45;&gt;Node4</title>
<path fill="none" stroke="midnightblue" d="M1342.87,-199.855C1128.1,-191.851 642.399,-171.103 479,-142 365.207,-121.733 237.373,-79.7108 161.383,-52.6011"/>
<polygon fill="midnightblue" stroke="midnightblue" points="1342.77,-203.354 1352.89,-200.227 1343.03,-196.359 1342.77,-203.354"/>
</g>
<!-- Node5 -->
<g id="node5" class="node"><title>Node5</title>
<g id="a_node5"><a xlink:href="../../d3/d58/_arpack_cshift_8cpp.html" target="_top" xlink:title="/home/solid/secondary\l/lebedev/bin/Master_Thesis\l_Num/FEM_EigenvalueDecomposition\l/tests/ArpackCshift.cpp">
<polygon fill="white" stroke="black" points="206,-0.5 206,-52.5 394,-52.5 394,-0.5 206,-0.5"/>
<text text-anchor="start" x="214" y="-40.5" font-family="Helvetica,sans-Serif" font-size="10.00">/home/solid/secondary</text>
<text text-anchor="start" x="214" y="-29.5" font-family="Helvetica,sans-Serif" font-size="10.00">/lebedev/bin/Master_Thesis</text>
<text text-anchor="start" x="214" y="-18.5" font-family="Helvetica,sans-Serif" font-size="10.00">_Num/FEM_EigenvalueDecomposition</text>
<text text-anchor="middle" x="300" y="-7.5" font-family="Helvetica,sans-Serif" font-size="10.00">/tests/ArpackCshift.cpp</text>
</a>
</g>
</g>
<!-- Node1&#45;&gt;Node5 -->
<g id="edge18" class="edge"><title>Node1&#45;&gt;Node5</title>
<path fill="none" stroke="midnightblue" d="M1342.53,-202.018C1194.54,-198.356 915.933,-185.69 683,-142 570.451,-120.89 443.879,-79.4263 368.115,-52.6158"/>
<polygon fill="midnightblue" stroke="midnightblue" points="1342.88,-205.528 1352.96,-202.267 1343.04,-198.53 1342.88,-205.528"/>
</g>
<!-- Node7 -->
<g id="node7" class="node"><title>Node7</title>
<g id="a_node7"><a xlink:href="../../d8/dd4/_p2___mesh_test_8cpp.html" target="_top" xlink:title="/home/solid/secondary\l/lebedev/bin/Master_Thesis\l_Num/FEM_EigenvalueDecomposition\l/tests/P2_MeshTest.cpp">
<polygon fill="white" stroke="black" points="412,-0.5 412,-52.5 600,-52.5 600,-0.5 412,-0.5"/>
<text text-anchor="start" x="420" y="-40.5" font-family="Helvetica,sans-Serif" font-size="10.00">/home/solid/secondary</text>
<text text-anchor="start" x="420" y="-29.5" font-family="Helvetica,sans-Serif" font-size="10.00">/lebedev/bin/Master_Thesis</text>
<text text-anchor="start" x="420" y="-18.5" font-family="Helvetica,sans-Serif" font-size="10.00">_Num/FEM_EigenvalueDecomposition</text>
<text text-anchor="middle" x="506" y="-7.5" font-family="Helvetica,sans-Serif" font-size="10.00">/tests/P2_MeshTest.cpp</text>
</a>
</g>
</g>
<!-- Node1&#45;&gt;Node7 -->
<g id="edge19" class="edge"><title>Node1&#45;&gt;Node7</title>
<path fill="none" stroke="midnightblue" d="M1342.63,-197.851C1229.12,-190.37 1042.77,-174.178 885,-142 774.547,-119.473 650.07,-78.8177 574.868,-52.5063"/>
<polygon fill="midnightblue" stroke="midnightblue" points="1342.5,-201.35 1352.71,-198.505 1342.96,-194.364 1342.5,-201.35"/>
</g>
<!-- Node8 -->
<g id="node8" class="node"><title>Node8</title>
<g id="a_node8"><a xlink:href="../../dd/db5/_p3___mesh_test_8cpp.html" target="_top" xlink:title="/home/solid/secondary\l/lebedev/bin/Master_Thesis\l_Num/FEM_EigenvalueDecomposition\l/tests/P3_MeshTest.cpp">
<polygon fill="white" stroke="black" points="618,-0.5 618,-52.5 806,-52.5 806,-0.5 618,-0.5"/>
<text text-anchor="start" x="626" y="-40.5" font-family="Helvetica,sans-Serif" font-size="10.00">/home/solid/secondary</text>
<text text-anchor="start" x="626" y="-29.5" font-family="Helvetica,sans-Serif" font-size="10.00">/lebedev/bin/Master_Thesis</text>
<text text-anchor="start" x="626" y="-18.5" font-family="Helvetica,sans-Serif" font-size="10.00">_Num/FEM_EigenvalueDecomposition</text>
<text text-anchor="middle" x="712" y="-7.5" font-family="Helvetica,sans-Serif" font-size="10.00">/tests/P3_MeshTest.cpp</text>
</a>
</g>
</g>
<!-- Node1&#45;&gt;Node8 -->
<g id="edge20" class="edge"><title>Node1&#45;&gt;Node8</title>
<path fill="none" stroke="midnightblue" d="M1342.4,-191.247C1264.69,-181.059 1156.43,-164.573 1063,-142 962.066,-117.613 848.318,-78.2393 778.393,-52.612"/>
<polygon fill="midnightblue" stroke="midnightblue" points="1342.31,-194.765 1352.68,-192.581 1343.21,-187.823 1342.31,-194.765"/>
</g>
<!-- Node9 -->
<g id="node9" class="node"><title>Node9</title>
<g id="a_node9"><a xlink:href="../../d7/da5/_pert_theo_solution_8cpp.html" target="_top" xlink:title="/home/solid/secondary\l/lebedev/bin/Master_Thesis\l_Num/FEM_EigenvalueDecomposition\l/tests/PertTheoSolution.cpp">
<polygon fill="white" stroke="black" points="1236,-0.5 1236,-52.5 1424,-52.5 1424,-0.5 1236,-0.5"/>
<text text-anchor="start" x="1244" y="-40.5" font-family="Helvetica,sans-Serif" font-size="10.00">/home/solid/secondary</text>
<text text-anchor="start" x="1244" y="-29.5" font-family="Helvetica,sans-Serif" font-size="10.00">/lebedev/bin/Master_Thesis</text>
<text text-anchor="start" x="1244" y="-18.5" font-family="Helvetica,sans-Serif" font-size="10.00">_Num/FEM_EigenvalueDecomposition</text>
<text text-anchor="middle" x="1330" y="-7.5" font-family="Helvetica,sans-Serif" font-size="10.00">/tests/PertTheoSolution.cpp</text>
</a>
</g>
</g>
<!-- Node1&#45;&gt;Node9 -->
<g id="edge21" class="edge"><title>Node1&#45;&gt;Node9</title>
<path fill="none" stroke="midnightblue" d="M1424.44,-169.568C1401.7,-135.362 1367.13,-83.3611 1346.73,-52.6697"/>
<polygon fill="midnightblue" stroke="midnightblue" points="1421.79,-171.893 1430.24,-178.283 1427.62,-168.018 1421.79,-171.893"/>
</g>
<!-- Node10 -->
<g id="node10" class="node"><title>Node10</title>
<g id="a_node10"><a xlink:href="../../d2/da1/_quality_check_8cpp.html" target="_top" xlink:title="/home/solid/secondary\l/lebedev/bin/Master_Thesis\l_Num/FEM_EigenvalueDecomposition\l/tests/QualityCheck.cpp">
<polygon fill="white" stroke="black" points="1442,-0.5 1442,-52.5 1630,-52.5 1630,-0.5 1442,-0.5"/>
<text text-anchor="start" x="1450" y="-40.5" font-family="Helvetica,sans-Serif" font-size="10.00">/home/solid/secondary</text>
<text text-anchor="start" x="1450" y="-29.5" font-family="Helvetica,sans-Serif" font-size="10.00">/lebedev/bin/Master_Thesis</text>
<text text-anchor="start" x="1450" y="-18.5" font-family="Helvetica,sans-Serif" font-size="10.00">_Num/FEM_EigenvalueDecomposition</text>
<text text-anchor="middle" x="1536" y="-7.5" font-family="Helvetica,sans-Serif" font-size="10.00">/tests/QualityCheck.cpp</text>
</a>
</g>
</g>
<!-- Node1&#45;&gt;Node10 -->
<g id="edge22" class="edge"><title>Node1&#45;&gt;Node10</title>
<path fill="none" stroke="midnightblue" d="M1448.9,-168.349C1451.45,-144.658 1457.36,-113.399 1471,-89 1478.66,-75.3048 1490.39,-62.8432 1501.79,-52.7736"/>
<polygon fill="midnightblue" stroke="midnightblue" points="1445.41,-168.042 1447.97,-178.322 1452.38,-168.688 1445.41,-168.042"/>
</g>
<!-- Node11 -->
<g id="node11" class="node"><title>Node11</title>
<g id="a_node11"><a xlink:href="../../df/d95/_transport_check_8cpp.html" target="_top" xlink:title="/home/solid/secondary\l/lebedev/bin/Master_Thesis\l_Num/FEM_EigenvalueDecomposition\l/tests/TransportCheck.cpp">
<polygon fill="white" stroke="black" points="1648,-0.5 1648,-52.5 1836,-52.5 1836,-0.5 1648,-0.5"/>
<text text-anchor="start" x="1656" y="-40.5" font-family="Helvetica,sans-Serif" font-size="10.00">/home/solid/secondary</text>
<text text-anchor="start" x="1656" y="-29.5" font-family="Helvetica,sans-Serif" font-size="10.00">/lebedev/bin/Master_Thesis</text>
<text text-anchor="start" x="1656" y="-18.5" font-family="Helvetica,sans-Serif" font-size="10.00">_Num/FEM_EigenvalueDecomposition</text>
<text text-anchor="middle" x="1742" y="-7.5" font-family="Helvetica,sans-Serif" font-size="10.00">/tests/TransportCheck.cpp</text>
</a>
</g>
</g>
<!-- Node1&#45;&gt;Node11 -->
<g id="edge23" class="edge"><title>Node1&#45;&gt;Node11</title>
<path fill="none" stroke="midnightblue" d="M1461.85,-169.268C1475.35,-139.623 1495.21,-99.8424 1509,-89 1511.94,-86.6849 1584.55,-67.7039 1647.93,-51.4334"/>
<polygon fill="midnightblue" stroke="midnightblue" points="1458.62,-167.932 1457.71,-178.488 1465,-170.802 1458.62,-167.932"/>
</g>
<!-- Node12 -->
<g id="node12" class="node"><title>Node12</title>
<g id="a_node12"><a xlink:href="../../db/d41/_trig_quality_check_8cpp.html" target="_top" xlink:title="/home/solid/secondary\l/lebedev/bin/Master_Thesis\l_Num/FEM_EigenvalueDecomposition\l/tests/TrigQualityCheck.cpp">
<polygon fill="white" stroke="black" points="1854,-0.5 1854,-52.5 2042,-52.5 2042,-0.5 1854,-0.5"/>
<text text-anchor="start" x="1862" y="-40.5" font-family="Helvetica,sans-Serif" font-size="10.00">/home/solid/secondary</text>
<text text-anchor="start" x="1862" y="-29.5" font-family="Helvetica,sans-Serif" font-size="10.00">/lebedev/bin/Master_Thesis</text>
<text text-anchor="start" x="1862" y="-18.5" font-family="Helvetica,sans-Serif" font-size="10.00">_Num/FEM_EigenvalueDecomposition</text>
<text text-anchor="middle" x="1948" y="-7.5" font-family="Helvetica,sans-Serif" font-size="10.00">/tests/TrigQualityCheck.cpp</text>
</a>
</g>
</g>
<!-- Node1&#45;&gt;Node12 -->
<g id="edge24" class="edge"><title>Node1&#45;&gt;Node12</title>
<path fill="none" stroke="midnightblue" d="M1479.93,-171.286C1488.95,-162.051 1498.56,-151.82 1507,-142 1526.23,-119.616 1521.42,-103.721 1547,-89 1662.62,-22.4519 1713.78,-77.0752 1845,-53 1847.9,-52.4681 1850.84,-51.9031 1853.8,-51.3111"/>
<polygon fill="midnightblue" stroke="midnightblue" points="1477.39,-168.876 1472.85,-178.451 1482.37,-173.794 1477.39,-168.876"/>
</g>
<!-- Node13 -->
<g id="node13" class="node"><title>Node13</title>
<g id="a_node13"><a xlink:href="../../d0/d1b/_visualization_test_8cpp.html" target="_top" xlink:title="/home/solid/secondary\l/lebedev/bin/Master_Thesis\l_Num/FEM_EigenvalueDecomposition\l/tests/VisualizationTest.cpp">
<polygon fill="white" stroke="black" points="2060,-0.5 2060,-52.5 2248,-52.5 2248,-0.5 2060,-0.5"/>
<text text-anchor="start" x="2068" y="-40.5" font-family="Helvetica,sans-Serif" font-size="10.00">/home/solid/secondary</text>
<text text-anchor="start" x="2068" y="-29.5" font-family="Helvetica,sans-Serif" font-size="10.00">/lebedev/bin/Master_Thesis</text>
<text text-anchor="start" x="2068" y="-18.5" font-family="Helvetica,sans-Serif" font-size="10.00">_Num/FEM_EigenvalueDecomposition</text>
<text text-anchor="middle" x="2154" y="-7.5" font-family="Helvetica,sans-Serif" font-size="10.00">/tests/VisualizationTest.cpp</text>
</a>
</g>
</g>
<!-- Node1&#45;&gt;Node13 -->
<g id="edge25" class="edge"><title>Node1&#45;&gt;Node13</title>
<path fill="none" stroke="midnightblue" d="M1500.94,-172.919C1514.73,-163.87 1529.04,-153.323 1541,-142 1562.24,-121.897 1554.42,-103.184 1580,-89 1671.8,-38.0899 1947.36,-69.671 2051,-53 2053.91,-52.5319 2056.86,-52.0227 2059.83,-51.4794"/>
<polygon fill="midnightblue" stroke="midnightblue" points="1498.98,-170.018 1492.44,-178.354 1502.75,-175.915 1498.98,-170.018"/>
</g>
<!-- Node14 -->
<g id="node14" class="node"><title>Node14</title>
<g id="a_node14"><a xlink:href="../../d8/de0/_geometry_8cpp.html" target="_top" xlink:title="/home/solid/secondary\l/lebedev/bin/Master_Thesis\l_Num/FEM_EigenvalueDecomposition\l/Geometry.cpp">
<polygon fill="white" stroke="black" points="1589,-89.5 1589,-141.5 1777,-141.5 1777,-89.5 1589,-89.5"/>
<text text-anchor="start" x="1597" y="-129.5" font-family="Helvetica,sans-Serif" font-size="10.00">/home/solid/secondary</text>
<text text-anchor="start" x="1597" y="-118.5" font-family="Helvetica,sans-Serif" font-size="10.00">/lebedev/bin/Master_Thesis</text>
<text text-anchor="start" x="1597" y="-107.5" font-family="Helvetica,sans-Serif" font-size="10.00">_Num/FEM_EigenvalueDecomposition</text>
<text text-anchor="middle" x="1683" y="-96.5" font-family="Helvetica,sans-Serif" font-size="10.00">/Geometry.cpp</text>
</a>
</g>
</g>
<!-- Node1&#45;&gt;Node14 -->
<g id="edge13" class="edge"><title>Node1&#45;&gt;Node14</title>
<path fill="none" stroke="midnightblue" d="M1524.7,-174.858C1553.91,-164.087 1586.87,-151.936 1615.13,-141.521"/>
<polygon fill="midnightblue" stroke="midnightblue" points="1523.12,-171.71 1514.94,-178.453 1525.54,-178.278 1523.12,-171.71"/>
</g>
<!-- Node15 -->
<g id="node15" class="node"><title>Node15</title>
<g id="a_node15"><a xlink:href="../../d2/da1/_mesh_8h.html" target="_top" xlink:title="/home/solid/secondary\l/lebedev/bin/Master_Thesis\l_Num/FEM_EigenvalueDecomposition/\lMesh.h">
<polygon fill="white" stroke="black" points="1901.5,-89.5 1901.5,-141.5 2092.5,-141.5 2092.5,-89.5 1901.5,-89.5"/>
<text text-anchor="start" x="1909.5" y="-129.5" font-family="Helvetica,sans-Serif" font-size="10.00">/home/solid/secondary</text>
<text text-anchor="start" x="1909.5" y="-118.5" font-family="Helvetica,sans-Serif" font-size="10.00">/lebedev/bin/Master_Thesis</text>
<text text-anchor="start" x="1909.5" y="-107.5" font-family="Helvetica,sans-Serif" font-size="10.00">_Num/FEM_EigenvalueDecomposition/</text>
<text text-anchor="middle" x="1997" y="-96.5" font-family="Helvetica,sans-Serif" font-size="10.00">Mesh.h</text>
</a>
</g>
</g>
<!-- Node1&#45;&gt;Node15 -->
<g id="edge15" class="edge"><title>Node1&#45;&gt;Node15</title>
<path fill="none" stroke="midnightblue" d="M1551.13,-187.028C1651.92,-171.086 1803.42,-147.12 1901.27,-131.643"/>
<polygon fill="midnightblue" stroke="midnightblue" points="1550.57,-183.574 1541.24,-188.594 1551.66,-190.488 1550.57,-183.574"/>
</g>
<!-- Node16 -->
<g id="node16" class="node"><title>Node16</title>
<g id="a_node16"><a xlink:href="../../db/d06/_mesh_8cpp.html" target="_top" xlink:title="/home/solid/secondary\l/lebedev/bin/Master_Thesis\l_Num/FEM_EigenvalueDecomposition\l/Mesh.cpp">
<polygon fill="white" stroke="black" points="2266,-0.5 2266,-52.5 2454,-52.5 2454,-0.5 2266,-0.5"/>
<text text-anchor="start" x="2274" y="-40.5" font-family="Helvetica,sans-Serif" font-size="10.00">/home/solid/secondary</text>
<text text-anchor="start" x="2274" y="-29.5" font-family="Helvetica,sans-Serif" font-size="10.00">/lebedev/bin/Master_Thesis</text>
<text text-anchor="start" x="2274" y="-18.5" font-family="Helvetica,sans-Serif" font-size="10.00">_Num/FEM_EigenvalueDecomposition</text>
<text text-anchor="middle" x="2360" y="-7.5" font-family="Helvetica,sans-Serif" font-size="10.00">/Mesh.cpp</text>
</a>
</g>
</g>
<!-- Node1&#45;&gt;Node16 -->
<g id="edge17" class="edge"><title>Node1&#45;&gt;Node16</title>
<path fill="none" stroke="midnightblue" d="M1551.24,-203.956C1681.81,-202.205 1911.44,-191.415 2101,-142 2179.73,-121.475 2264.91,-79.6341 2315.3,-52.616"/>
<polygon fill="midnightblue" stroke="midnightblue" points="1551.19,-200.456 1541.24,-204.075 1551.28,-207.456 1551.19,-200.456"/>
</g>
<!-- Node3 -->
<g id="node3" class="node"><title>Node3</title>
<g id="a_node3"><a xlink:href="../../dd/d9e/_functions_8cpp.html" target="_top" xlink:title="/home/solid/secondary\l/lebedev/bin/Master_Thesis\l_Num/FEM_EigenvalueDecomposition\l/Functions.cpp">
<polygon fill="white" stroke="black" points="824,-0.5 824,-52.5 1012,-52.5 1012,-0.5 824,-0.5"/>
<text text-anchor="start" x="832" y="-40.5" font-family="Helvetica,sans-Serif" font-size="10.00">/home/solid/secondary</text>
<text text-anchor="start" x="832" y="-29.5" font-family="Helvetica,sans-Serif" font-size="10.00">/lebedev/bin/Master_Thesis</text>
<text text-anchor="start" x="832" y="-18.5" font-family="Helvetica,sans-Serif" font-size="10.00">_Num/FEM_EigenvalueDecomposition</text>
<text text-anchor="middle" x="918" y="-7.5" font-family="Helvetica,sans-Serif" font-size="10.00">/Functions.cpp</text>
</a>
</g>
</g>
<!-- Node2&#45;&gt;Node3 -->
<g id="edge2" class="edge"><title>Node2&#45;&gt;Node3</title>
<path fill="none" stroke="midnightblue" d="M1085.15,-86.1383C1054.25,-75.299 1019.27,-63.0269 989.324,-52.5211"/>
<polygon fill="midnightblue" stroke="midnightblue" points="1084.01,-89.445 1094.6,-89.4527 1086.32,-82.8397 1084.01,-89.445"/>
</g>
<!-- Node2&#45;&gt;Node4 -->
<g id="edge3" class="edge"><title>Node2&#45;&gt;Node4</title>
<path fill="none" stroke="midnightblue" d="M1061.7,-113.991C883.431,-111.76 509.142,-101.146 197,-53 194.087,-52.5507 191.136,-52.0579 188.162,-51.5289"/>
<polygon fill="midnightblue" stroke="midnightblue" points="1061.81,-117.492 1071.86,-114.111 1061.9,-110.493 1061.81,-117.492"/>
</g>
<!-- Node2&#45;&gt;Node5 -->
<g id="edge4" class="edge"><title>Node2&#45;&gt;Node5</title>
<path fill="none" stroke="midnightblue" d="M1061.33,-111.435C913.704,-105.896 636.284,-91.021 403,-53 400.091,-52.5259 397.143,-52.0114 394.173,-51.4635"/>
<polygon fill="midnightblue" stroke="midnightblue" points="1061.61,-114.948 1071.73,-111.818 1061.87,-107.953 1061.61,-114.948"/>
</g>
<!-- Node6 -->
<g id="node6" class="node"><title>Node6</title>
<g id="a_node6"><a xlink:href="../../da/de1/_mesh_i_o_test_8cpp.html" target="_top" xlink:title="/home/solid/secondary\l/lebedev/bin/Master_Thesis\l_Num/FEM_EigenvalueDecomposition\l/tests/MeshIOTest.cpp">
<polygon fill="white" stroke="black" points="1030,-0.5 1030,-52.5 1218,-52.5 1218,-0.5 1030,-0.5"/>
<text text-anchor="start" x="1038" y="-40.5" font-family="Helvetica,sans-Serif" font-size="10.00">/home/solid/secondary</text>
<text text-anchor="start" x="1038" y="-29.5" font-family="Helvetica,sans-Serif" font-size="10.00">/lebedev/bin/Master_Thesis</text>
<text text-anchor="start" x="1038" y="-18.5" font-family="Helvetica,sans-Serif" font-size="10.00">_Num/FEM_EigenvalueDecomposition</text>
<text text-anchor="middle" x="1124" y="-7.5" font-family="Helvetica,sans-Serif" font-size="10.00">/tests/MeshIOTest.cpp</text>
</a>
</g>
</g>
<!-- Node2&#45;&gt;Node6 -->
<g id="edge5" class="edge"><title>Node2&#45;&gt;Node6</title>
<path fill="none" stroke="midnightblue" d="M1149.37,-80.0607C1144.95,-70.8956 1140.25,-61.169 1136.12,-52.6075"/>
<polygon fill="midnightblue" stroke="midnightblue" points="1146.35,-81.8521 1153.85,-89.336 1152.66,-78.8088 1146.35,-81.8521"/>
</g>
<!-- Node2&#45;&gt;Node7 -->
<g id="edge6" class="edge"><title>Node2&#45;&gt;Node7</title>
<path fill="none" stroke="midnightblue" d="M1061.86,-107.154C949.513,-98.2639 765.662,-80.9141 609,-53 606.098,-52.483 603.157,-51.9309 600.192,-51.3503"/>
<polygon fill="midnightblue" stroke="midnightblue" points="1061.59,-110.643 1071.83,-107.936 1062.14,-103.665 1061.59,-110.643"/>
</g>
<!-- Node2&#45;&gt;Node8 -->
<g id="edge7" class="edge"><title>Node2&#45;&gt;Node8</title>
<path fill="none" stroke="midnightblue" d="M1061.65,-98.1609C991.649,-86.7224 897.502,-70.4186 815,-53 812.116,-52.3911 809.19,-51.7587 806.239,-51.1082"/>
<polygon fill="midnightblue" stroke="midnightblue" points="1061.37,-101.661 1071.8,-99.8128 1062.5,-94.7517 1061.37,-101.661"/>
</g>
<!-- Node2&#45;&gt;Node9 -->
<g id="edge8" class="edge"><title>Node2&#45;&gt;Node9</title>
<path fill="none" stroke="midnightblue" d="M1222.3,-84.6354C1241.96,-74.2049 1263.81,-62.6109 1282.67,-52.6075"/>
<polygon fill="midnightblue" stroke="midnightblue" points="1220.63,-81.5578 1213.44,-89.336 1223.91,-87.7415 1220.63,-81.5578"/>
</g>
<!-- Node2&#45;&gt;Node10 -->
<g id="edge9" class="edge"><title>Node2&#45;&gt;Node10</title>
<path fill="none" stroke="midnightblue" d="M1270.36,-90.8777C1319.71,-79.599 1379.44,-65.7984 1433,-53 1435.96,-52.2936 1438.96,-51.5723 1441.99,-50.8411"/>
<polygon fill="midnightblue" stroke="midnightblue" points="1269.28,-87.5337 1260.31,-93.1718 1270.84,-94.3581 1269.28,-87.5337"/>
</g>
<!-- Node2&#45;&gt;Node11 -->
<g id="edge10" class="edge"><title>Node2&#45;&gt;Node11</title>
<path fill="none" stroke="midnightblue" d="M1270.3,-104.374C1366.5,-94.223 1513.04,-76.701 1639,-53 1641.9,-52.4549 1644.83,-51.8784 1647.79,-51.2765"/>
<polygon fill="midnightblue" stroke="midnightblue" points="1269.86,-100.901 1260.28,-105.424 1270.59,-107.863 1269.86,-100.901"/>
</g>
<!-- Node2&#45;&gt;Node12 -->
<g id="edge11" class="edge"><title>Node2&#45;&gt;Node12</title>
<path fill="none" stroke="midnightblue" d="M1270.08,-107.025C1432.13,-95.0562 1737.31,-71.0987 1845,-53 1847.91,-52.5115 1850.85,-51.9844 1853.82,-51.4255"/>
<polygon fill="midnightblue" stroke="midnightblue" points="1269.81,-103.535 1260.1,-107.761 1270.33,-110.517 1269.81,-103.535"/>
</g>
<!-- Node2&#45;&gt;Node13 -->
<g id="edge12" class="edge"><title>Node2&#45;&gt;Node13</title>
<path fill="none" stroke="midnightblue" d="M1270.42,-107.48C1500.42,-91.9876 2031.94,-55.9978 2051,-53 2053.91,-52.5419 2056.86,-52.0415 2059.83,-51.5059"/>
<polygon fill="midnightblue" stroke="midnightblue" points="1270.11,-103.993 1260.37,-108.158 1270.58,-110.978 1270.11,-103.993"/>
</g>
<!-- Node15&#45;&gt;Node16 -->
<g id="edge16" class="edge"><title>Node15&#45;&gt;Node16</title>
<path fill="none" stroke="midnightblue" d="M2102.69,-89.7633C2149.93,-78.6391 2206.28,-65.276 2257,-53 2259.95,-52.2849 2262.96,-51.5561 2265.99,-50.8182"/>
<polygon fill="midnightblue" stroke="midnightblue" points="2101.69,-86.404 2092.75,-92.1019 2103.29,-93.2179 2101.69,-86.404"/>
</g>
</g>
</svg>
