<?xml version="1.0" encoding="UTF-8" standalone="no"?>
<!DOCTYPE svg PUBLIC "-//W3C//DTD SVG 1.1//EN"
 "http://www.w3.org/Graphics/SVG/1.1/DTD/svg11.dtd">
<!-- Generated by graphviz version 2.38.0 (20140413.2041)
 -->
<!-- Title: GaussQuadParam.h Pages: 1 -->
<svg width="776pt" height="84pt"
 viewBox="0.00 0.00 775.50 84.00" xmlns="http://www.w3.org/2000/svg" xmlns:xlink="http://www.w3.org/1999/xlink">
<g id="graph0" class="graph" transform="scale(1 1) rotate(0) translate(4 80)">
<title>GaussQuadParam.h</title>
<polygon fill="white" stroke="none" points="-4,4 -4,-80 771.5,-80 771.5,4 -4,4"/>
<!-- Node1 -->
<g id="node1" class="node"><title>Node1</title>
<polygon fill="#bfbfbf" stroke="black" points="294.5,-56.5 294.5,-75.5 403.5,-75.5 403.5,-56.5 294.5,-56.5"/>
<text text-anchor="middle" x="349" y="-63.5" font-family="Helvetica,sans-Serif" font-size="10.00">GaussQuadParam.h</text>
</g>
<!-- Node2 -->
<g id="node2" class="node"><title>Node2</title>
<g id="a_node2"><a xlink:href="../../df/d0a/main_8cpp_source.html" target="_top" xlink:title="main.cpp">
<polygon fill="white" stroke="black" points="0,-0.5 0,-19.5 56,-19.5 56,-0.5 0,-0.5"/>
<text text-anchor="middle" x="28" y="-7.5" font-family="Helvetica,sans-Serif" font-size="10.00">main.cpp</text>
</a>
</g>
</g>
<!-- Node1&#45;&gt;Node2 -->
<g id="edge1" class="edge"><title>Node1&#45;&gt;Node2</title>
<path fill="none" stroke="midnightblue" d="M284.242,-56.2719C226.505,-48.126 139.802,-34.9979 65,-20 62.148,-19.4282 59.1833,-18.787 56.229,-18.1173"/>
<polygon fill="midnightblue" stroke="midnightblue" points="283.931,-59.7624 294.32,-57.6846 284.903,-52.8301 283.931,-59.7624"/>
</g>
<!-- Node3 -->
<g id="node3" class="node"><title>Node3</title>
<g id="a_node3"><a xlink:href="../../d9/d65/ArpackCshift_8cpp_source.html" target="_top" xlink:title="ArpackCshift.cpp">
<polygon fill="white" stroke="black" points="74.5,-0.5 74.5,-19.5 165.5,-19.5 165.5,-0.5 74.5,-0.5"/>
<text text-anchor="middle" x="120" y="-7.5" font-family="Helvetica,sans-Serif" font-size="10.00">ArpackCshift.cpp</text>
</a>
</g>
</g>
<!-- Node1&#45;&gt;Node3 -->
<g id="edge2" class="edge"><title>Node1&#45;&gt;Node3</title>
<path fill="none" stroke="midnightblue" d="M302.727,-54.0884C259.463,-43.8865 195.745,-28.8612 156.116,-19.5164"/>
<polygon fill="midnightblue" stroke="midnightblue" points="302.178,-57.5549 312.714,-56.4435 303.785,-50.7418 302.178,-57.5549"/>
</g>
<!-- Node4 -->
<g id="node4" class="node"><title>Node4</title>
<g id="a_node4"><a xlink:href="../../de/d94/P2__MeshTest_8cpp.html" target="_top" xlink:title="Unit tests for the quadratic basis. ">
<polygon fill="white" stroke="black" points="184,-0.5 184,-19.5 282,-19.5 282,-0.5 184,-0.5"/>
<text text-anchor="middle" x="233" y="-7.5" font-family="Helvetica,sans-Serif" font-size="10.00">P2_MeshTest.cpp</text>
</a>
</g>
</g>
<!-- Node1&#45;&gt;Node4 -->
<g id="edge3" class="edge"><title>Node1&#45;&gt;Node4</title>
<path fill="none" stroke="midnightblue" d="M321.28,-52.096C299.608,-42.0073 270.098,-28.2697 251.295,-19.5164"/>
<polygon fill="midnightblue" stroke="midnightblue" points="320.077,-55.3962 330.619,-56.4435 323.031,-49.0501 320.077,-55.3962"/>
</g>
<!-- Node5 -->
<g id="node5" class="node"><title>Node5</title>
<g id="a_node5"><a xlink:href="../../d9/d7a/P3__MeshTest_8cpp.html" target="_top" xlink:title="Unit tests for the cubic basis. ">
<polygon fill="white" stroke="black" points="300,-0.5 300,-19.5 398,-19.5 398,-0.5 300,-0.5"/>
<text text-anchor="middle" x="349" y="-7.5" font-family="Helvetica,sans-Serif" font-size="10.00">P3_MeshTest.cpp</text>
</a>
</g>
</g>
<!-- Node1&#45;&gt;Node5 -->
<g id="edge4" class="edge"><title>Node1&#45;&gt;Node5</title>
<path fill="none" stroke="midnightblue" d="M349,-45.8045C349,-36.9102 349,-26.7798 349,-19.7511"/>
<polygon fill="midnightblue" stroke="midnightblue" points="345.5,-46.083 349,-56.083 352.5,-46.083 345.5,-46.083"/>
</g>
<!-- Node6 -->
<g id="node6" class="node"><title>Node6</title>
<g id="a_node6"><a xlink:href="../../d9/db7/QualityCheck_8cpp.html" target="_top" xlink:title="Integrated test using Poisson equation on a square with polynomial solutions. ">
<polygon fill="white" stroke="black" points="416.5,-0.5 416.5,-19.5 511.5,-19.5 511.5,-0.5 416.5,-0.5"/>
<text text-anchor="middle" x="464" y="-7.5" font-family="Helvetica,sans-Serif" font-size="10.00">QualityCheck.cpp</text>
</a>
</g>
</g>
<!-- Node1&#45;&gt;Node6 -->
<g id="edge5" class="edge"><title>Node1&#45;&gt;Node6</title>
<path fill="none" stroke="midnightblue" d="M376.481,-52.096C397.966,-42.0073 427.222,-28.2697 445.863,-19.5164"/>
<polygon fill="midnightblue" stroke="midnightblue" points="374.786,-49.025 367.222,-56.4435 377.762,-55.3612 374.786,-49.025"/>
</g>
<!-- Node7 -->
<g id="node7" class="node"><title>Node7</title>
<g id="a_node7"><a xlink:href="../../d8/ddc/TransportCheck_8cpp.html" target="_top" xlink:title="Integration test with an augmented Poisson equation. ">
<polygon fill="white" stroke="black" points="529.5,-0.5 529.5,-19.5 636.5,-19.5 636.5,-0.5 529.5,-0.5"/>
<text text-anchor="middle" x="583" y="-7.5" font-family="Helvetica,sans-Serif" font-size="10.00">TransportCheck.cpp</text>
</a>
</g>
</g>
<!-- Node1&#45;&gt;Node7 -->
<g id="edge6" class="edge"><title>Node1&#45;&gt;Node7</title>
<path fill="none" stroke="midnightblue" d="M396.004,-54.1529C440.217,-43.95 505.516,-28.8809 546.095,-19.5164"/>
<polygon fill="midnightblue" stroke="midnightblue" points="395.035,-50.7845 386.078,-56.4435 396.609,-57.6052 395.035,-50.7845"/>
</g>
<!-- Node8 -->
<g id="node8" class="node"><title>Node8</title>
<g id="a_node8"><a xlink:href="../../db/dbe/TrigQualityCheck_8cpp.html" target="_top" xlink:title="Implementation of the Poisson equation test with trigonometric solutions. ">
<polygon fill="white" stroke="black" points="654.5,-0.5 654.5,-19.5 767.5,-19.5 767.5,-0.5 654.5,-0.5"/>
<text text-anchor="middle" x="711" y="-7.5" font-family="Helvetica,sans-Serif" font-size="10.00">TrigQualityCheck.cpp</text>
</a>
</g>
</g>
<!-- Node1&#45;&gt;Node8 -->
<g id="edge7" class="edge"><title>Node1&#45;&gt;Node8</title>
<path fill="none" stroke="midnightblue" d="M413.822,-55.3304C482.328,-45.1113 589.288,-29.1559 654.475,-19.4319"/>
<polygon fill="midnightblue" stroke="midnightblue" points="412.961,-51.92 403.587,-56.8572 413.994,-58.8434 412.961,-51.92"/>
</g>
</g>
</svg>
