<?xml version="1.0" encoding="UTF-8" standalone="no"?>
<!DOCTYPE svg PUBLIC "-//W3C//DTD SVG 1.1//EN"
 "http://www.w3.org/Graphics/SVG/1.1/DTD/svg11.dtd">
<!-- Generated by graphviz version 2.38.0 (20140413.2041)
 -->
<!-- Title: /home/solid/secondary/lebedev/bin/Master_Thesis_Num/FEM_EigenvalueDecomposition/tests/arpackpptest.cpp Pages: 1 -->
<svg width="616pt" height="117pt"
 viewBox="0.00 0.00 616.00 117.00" xmlns="http://www.w3.org/2000/svg" xmlns:xlink="http://www.w3.org/1999/xlink">
<g id="graph0" class="graph" transform="scale(1 1) rotate(0) translate(4 113)">
<title>/home/solid/secondary/lebedev/bin/Master_Thesis_Num/FEM_EigenvalueDecomposition/tests/arpackpptest.cpp</title>
<polygon fill="white" stroke="none" points="-4,4 -4,-113 612,-113 612,4 -4,4"/>
<!-- Node1 -->
<g id="node1" class="node"><title>Node1</title>
<polygon fill="#bfbfbf" stroke="black" points="191.5,-56.5 191.5,-108.5 379.5,-108.5 379.5,-56.5 191.5,-56.5"/>
<text text-anchor="start" x="199.5" y="-96.5" font-family="Helvetica,sans-Serif" font-size="10.00">/home/solid/secondary</text>
<text text-anchor="start" x="199.5" y="-85.5" font-family="Helvetica,sans-Serif" font-size="10.00">/lebedev/bin/Master_Thesis</text>
<text text-anchor="start" x="199.5" y="-74.5" font-family="Helvetica,sans-Serif" font-size="10.00">_Num/FEM_EigenvalueDecomposition</text>
<text text-anchor="middle" x="285.5" y="-63.5" font-family="Helvetica,sans-Serif" font-size="10.00">/tests/arpackpptest.cpp</text>
</g>
<!-- Node2 -->
<g id="node2" class="node"><title>Node2</title>
<polygon fill="white" stroke="#bfbfbf" points="0,-0.5 0,-19.5 47,-19.5 47,-0.5 0,-0.5"/>
<text text-anchor="middle" x="23.5" y="-7.5" font-family="Helvetica,sans-Serif" font-size="10.00">stdlib.h</text>
</g>
<!-- Node1&#45;&gt;Node2 -->
<g id="edge1" class="edge"><title>Node1&#45;&gt;Node2</title>
<path fill="none" stroke="midnightblue" d="M191.888,-56.4475C152.912,-45.9955 106.957,-33.6447 56.9985,-20.1278"/>
<polygon fill="midnightblue" stroke="midnightblue" points="57.8572,-16.7344 47.29,-17.5 56.0282,-23.4912 57.8572,-16.7344"/>
</g>
<!-- Node3 -->
<g id="node3" class="node"><title>Node3</title>
<polygon fill="white" stroke="#bfbfbf" points="65.5,-0.5 65.5,-19.5 121.5,-19.5 121.5,-0.5 65.5,-0.5"/>
<text text-anchor="middle" x="93.5" y="-7.5" font-family="Helvetica,sans-Serif" font-size="10.00">iostream</text>
</g>
<!-- Node1&#45;&gt;Node3 -->
<g id="edge2" class="edge"><title>Node1&#45;&gt;Node3</title>
<path fill="none" stroke="midnightblue" d="M217.267,-56.4458C186.384,-45.1059 151.306,-32.2257 126.4,-23.0805"/>
<polygon fill="midnightblue" stroke="midnightblue" points="127.316,-19.6884 116.722,-19.527 124.903,-26.2594 127.316,-19.6884"/>
</g>
<!-- Node4 -->
<g id="node4" class="node"><title>Node4</title>
<polygon fill="white" stroke="#bfbfbf" points="139.5,-0.5 139.5,-19.5 197.5,-19.5 197.5,-0.5 139.5,-0.5"/>
<text text-anchor="middle" x="168.5" y="-7.5" font-family="Helvetica,sans-Serif" font-size="10.00">arcomp.h</text>
</g>
<!-- Node1&#45;&gt;Node4 -->
<g id="edge3" class="edge"><title>Node1&#45;&gt;Node4</title>
<path fill="none" stroke="midnightblue" d="M243.921,-56.4458C226.189,-45.7611 206.187,-33.709 191.24,-24.7021"/>
<polygon fill="midnightblue" stroke="midnightblue" points="193.023,-21.6903 182.651,-19.527 189.41,-27.686 193.023,-21.6903"/>
</g>
<!-- Node5 -->
<g id="node5" class="node"><title>Node5</title>
<polygon fill="white" stroke="#bfbfbf" points="215.5,-0.5 215.5,-19.5 277.5,-19.5 277.5,-0.5 215.5,-0.5"/>
<text text-anchor="middle" x="246.5" y="-7.5" font-family="Helvetica,sans-Serif" font-size="10.00">lcmatrxe.h</text>
</g>
<!-- Node1&#45;&gt;Node5 -->
<g id="edge4" class="edge"><title>Node1&#45;&gt;Node5</title>
<path fill="none" stroke="midnightblue" d="M271.64,-56.4458C266.542,-47.2292 260.88,-36.9951 256.223,-28.5757"/>
<polygon fill="midnightblue" stroke="midnightblue" points="259.214,-26.7516 251.31,-19.6955 253.088,-30.1401 259.214,-26.7516"/>
</g>
<!-- Node6 -->
<g id="node6" class="node"><title>Node6</title>
<polygon fill="white" stroke="#bfbfbf" points="296,-0.5 296,-19.5 355,-19.5 355,-0.5 296,-0.5"/>
<text text-anchor="middle" x="325.5" y="-7.5" font-family="Helvetica,sans-Serif" font-size="10.00">lcmatrxf.h</text>
</g>
<!-- Node1&#45;&gt;Node6 -->
<g id="edge5" class="edge"><title>Node1&#45;&gt;Node6</title>
<path fill="none" stroke="midnightblue" d="M299.715,-56.4458C304.944,-47.2292 310.751,-36.9951 315.528,-28.5757"/>
<polygon fill="midnightblue" stroke="midnightblue" points="318.676,-30.1203 320.566,-19.6955 312.587,-26.6659 318.676,-30.1203"/>
</g>
<!-- Node7 -->
<g id="node7" class="node"><title>Node7</title>
<polygon fill="white" stroke="#bfbfbf" points="373,-0.5 373,-19.5 438,-19.5 438,-0.5 373,-0.5"/>
<text text-anchor="middle" x="405.5" y="-7.5" font-family="Helvetica,sans-Serif" font-size="10.00">arunsmat.h</text>
</g>
<!-- Node1&#45;&gt;Node7 -->
<g id="edge6" class="edge"><title>Node1&#45;&gt;Node7</title>
<path fill="none" stroke="midnightblue" d="M328.145,-56.4458C346.332,-45.7611 366.846,-33.709 382.177,-24.7021"/>
<polygon fill="midnightblue" stroke="midnightblue" points="384.137,-27.6103 390.986,-19.527 380.591,-21.5748 384.137,-27.6103"/>
</g>
<!-- Node8 -->
<g id="node8" class="node"><title>Node8</title>
<polygon fill="white" stroke="#bfbfbf" points="456,-0.5 456,-19.5 525,-19.5 525,-0.5 456,-0.5"/>
<text text-anchor="middle" x="490.5" y="-7.5" font-family="Helvetica,sans-Serif" font-size="10.00">arugcomp.h</text>
</g>
<!-- Node1&#45;&gt;Node8 -->
<g id="edge7" class="edge"><title>Node1&#45;&gt;Node8</title>
<path fill="none" stroke="midnightblue" d="M358.353,-56.4458C391.62,-45.0051 429.446,-31.9966 456.079,-22.8375"/>
<polygon fill="midnightblue" stroke="midnightblue" points="457.387,-26.0889 465.705,-19.527 455.111,-19.4694 457.387,-26.0889"/>
</g>
<!-- Node9 -->
<g id="node9" class="node"><title>Node9</title>
<polygon fill="white" stroke="#bfbfbf" points="543,-0.5 543,-19.5 608,-19.5 608,-0.5 543,-0.5"/>
<text text-anchor="middle" x="575.5" y="-7.5" font-family="Helvetica,sans-Serif" font-size="10.00">lcompsol.h</text>
</g>
<!-- Node1&#45;&gt;Node9 -->
<g id="edge8" class="edge"><title>Node1&#45;&gt;Node9</title>
<path fill="none" stroke="midnightblue" d="M379.655,-58.6107C431.341,-46.0456 492.896,-31.0814 533.015,-21.3282"/>
<polygon fill="midnightblue" stroke="midnightblue" points="533.844,-24.7287 542.734,-18.9654 532.191,-17.9268 533.844,-24.7287"/>
</g>
</g>
</svg>
