<?xml version="1.0" encoding="UTF-8" standalone="no"?>
<!DOCTYPE svg PUBLIC "-//W3C//DTD SVG 1.1//EN"
 "http://www.w3.org/Graphics/SVG/1.1/DTD/svg11.dtd">
<!-- Generated by graphviz version 2.38.0 (20140413.2041)
 -->
<!-- Title: /home/solid/secondary/lebedev/bin/Master_Thesis_Num/FEM_EigenvalueDecomposition/Functions.cpp Pages: 1 -->
<svg width="1071pt" height="285pt"
 viewBox="0.00 0.00 1071.00 285.00" xmlns="http://www.w3.org/2000/svg" xmlns:xlink="http://www.w3.org/1999/xlink">
<g id="graph0" class="graph" transform="scale(1 1) rotate(0) translate(4 281)">
<title>/home/solid/secondary/lebedev/bin/Master_Thesis_Num/FEM_EigenvalueDecomposition/Functions.cpp</title>
<polygon fill="white" stroke="none" points="-4,4 -4,-281 1067,-281 1067,4 -4,4"/>
<!-- Node1 -->
<g id="node1" class="node"><title>Node1</title>
<polygon fill="#bfbfbf" stroke="black" points="577.5,-224.5 577.5,-276.5 765.5,-276.5 765.5,-224.5 577.5,-224.5"/>
<text text-anchor="start" x="585.5" y="-264.5" font-family="Helvetica,sans-Serif" font-size="10.00">/home/solid/secondary</text>
<text text-anchor="start" x="585.5" y="-253.5" font-family="Helvetica,sans-Serif" font-size="10.00">/lebedev/bin/Master_Thesis</text>
<text text-anchor="start" x="585.5" y="-242.5" font-family="Helvetica,sans-Serif" font-size="10.00">_Num/FEM_EigenvalueDecomposition</text>
<text text-anchor="middle" x="671.5" y="-231.5" font-family="Helvetica,sans-Serif" font-size="10.00">/Functions.cpp</text>
</g>
<!-- Node2 -->
<g id="node2" class="node"><title>Node2</title>
<g id="a_node2"><a xlink:href="../../d6/d9b/_functions_8h.html" target="_top" xlink:title="Function declarations. ">
<polygon fill="white" stroke="black" points="183,-168.5 183,-187.5 250,-187.5 250,-168.5 183,-168.5"/>
<text text-anchor="middle" x="216.5" y="-175.5" font-family="Helvetica,sans-Serif" font-size="10.00">Functions.h</text>
</a>
</g>
</g>
<!-- Node1&#45;&gt;Node2 -->
<g id="edge1" class="edge"><title>Node1&#45;&gt;Node2</title>
<path fill="none" stroke="midnightblue" d="M577.157,-237.007C495.854,-225.873 375.131,-208.466 260.29,-188.053"/>
<polygon fill="midnightblue" stroke="midnightblue" points="260.725,-184.575 250.265,-186.261 259.493,-191.466 260.725,-184.575"/>
</g>
<!-- Node11 -->
<g id="node11" class="node"><title>Node11</title>
<polygon fill="white" stroke="#bfbfbf" points="268.5,-168.5 268.5,-187.5 324.5,-187.5 324.5,-168.5 268.5,-168.5"/>
<text text-anchor="middle" x="296.5" y="-175.5" font-family="Helvetica,sans-Serif" font-size="10.00">iostream</text>
</g>
<!-- Node1&#45;&gt;Node11 -->
<g id="edge10" class="edge"><title>Node1&#45;&gt;Node11</title>
<path fill="none" stroke="midnightblue" d="M577.234,-233.873C511.731,-222.656 422.216,-206.62 334.588,-188.139"/>
<polygon fill="midnightblue" stroke="midnightblue" points="335.251,-184.702 324.743,-186.05 333.799,-191.549 335.251,-184.702"/>
</g>
<!-- Node12 -->
<g id="node12" class="node"><title>Node12</title>
<polygon fill="white" stroke="#bfbfbf" points="342.5,-168.5 342.5,-187.5 394.5,-187.5 394.5,-168.5 342.5,-168.5"/>
<text text-anchor="middle" x="368.5" y="-175.5" font-family="Helvetica,sans-Serif" font-size="10.00">iomanip</text>
</g>
<!-- Node1&#45;&gt;Node12 -->
<g id="edge11" class="edge"><title>Node1&#45;&gt;Node12</title>
<path fill="none" stroke="midnightblue" d="M577.407,-228.539C528.566,-217.508 467.681,-203.525 404.939,-188.308"/>
<polygon fill="midnightblue" stroke="midnightblue" points="405.399,-184.818 394.855,-185.856 403.744,-191.62 405.399,-184.818"/>
</g>
<!-- Node13 -->
<g id="node13" class="node"><title>Node13</title>
<polygon fill="white" stroke="#bfbfbf" points="412.5,-168.5 412.5,-187.5 462.5,-187.5 462.5,-168.5 412.5,-168.5"/>
<text text-anchor="middle" x="437.5" y="-175.5" font-family="Helvetica,sans-Serif" font-size="10.00">fstream</text>
</g>
<!-- Node1&#45;&gt;Node13 -->
<g id="edge12" class="edge"><title>Node1&#45;&gt;Node13</title>
<path fill="none" stroke="midnightblue" d="M588.341,-224.446C548.45,-212.427 502.816,-198.678 472.284,-189.48"/>
<polygon fill="midnightblue" stroke="midnightblue" points="473.123,-186.077 462.539,-186.544 471.104,-192.78 473.123,-186.077"/>
</g>
<!-- Node14 -->
<g id="node14" class="node"><title>Node14</title>
<polygon fill="white" stroke="#bfbfbf" points="480.5,-168.5 480.5,-187.5 530.5,-187.5 530.5,-168.5 480.5,-168.5"/>
<text text-anchor="middle" x="505.5" y="-175.5" font-family="Helvetica,sans-Serif" font-size="10.00">cassert</text>
</g>
<!-- Node1&#45;&gt;Node14 -->
<g id="edge13" class="edge"><title>Node1&#45;&gt;Node14</title>
<path fill="none" stroke="midnightblue" d="M612.507,-224.446C586.162,-213.257 556.286,-200.569 534.811,-191.448"/>
<polygon fill="midnightblue" stroke="midnightblue" points="536.15,-188.215 525.578,-187.527 533.414,-194.658 536.15,-188.215"/>
</g>
<!-- Node15 -->
<g id="node15" class="node"><title>Node15</title>
<polygon fill="white" stroke="#bfbfbf" points="549,-168.5 549,-187.5 686,-187.5 686,-168.5 549,-168.5"/>
<text text-anchor="middle" x="617.5" y="-175.5" font-family="Helvetica,sans-Serif" font-size="10.00">boost/program_options.hpp</text>
</g>
<!-- Node1&#45;&gt;Node15 -->
<g id="edge14" class="edge"><title>Node1&#45;&gt;Node15</title>
<path fill="none" stroke="midnightblue" d="M652.31,-224.446C645.02,-214.929 636.899,-204.327 630.336,-195.758"/>
<polygon fill="midnightblue" stroke="midnightblue" points="633.02,-193.506 624.16,-187.695 627.463,-197.763 633.02,-193.506"/>
</g>
<!-- Node16 -->
<g id="node16" class="node"><title>Node16</title>
<polygon fill="white" stroke="#bfbfbf" points="704.5,-168.5 704.5,-187.5 748.5,-187.5 748.5,-168.5 704.5,-168.5"/>
<text text-anchor="middle" x="726.5" y="-175.5" font-family="Helvetica,sans-Serif" font-size="10.00">vector</text>
</g>
<!-- Node1&#45;&gt;Node16 -->
<g id="edge15" class="edge"><title>Node1&#45;&gt;Node16</title>
<path fill="none" stroke="midnightblue" d="M691.046,-224.446C698.471,-214.929 706.742,-204.327 713.426,-195.758"/>
<polygon fill="midnightblue" stroke="midnightblue" points="716.325,-197.733 719.716,-187.695 710.806,-193.427 716.325,-197.733"/>
</g>
<!-- Node17 -->
<g id="node17" class="node"><title>Node17</title>
<polygon fill="white" stroke="#bfbfbf" points="766.5,-168.5 766.5,-187.5 824.5,-187.5 824.5,-168.5 766.5,-168.5"/>
<text text-anchor="middle" x="795.5" y="-175.5" font-family="Helvetica,sans-Serif" font-size="10.00">algorithm</text>
</g>
<!-- Node1&#45;&gt;Node17 -->
<g id="edge16" class="edge"><title>Node1&#45;&gt;Node17</title>
<path fill="none" stroke="midnightblue" d="M715.567,-224.446C734.36,-213.761 755.558,-201.709 771.4,-192.702"/>
<polygon fill="midnightblue" stroke="midnightblue" points="773.539,-195.512 780.502,-187.527 770.079,-189.427 773.539,-195.512"/>
</g>
<!-- Node18 -->
<g id="node18" class="node"><title>Node18</title>
<polygon fill="white" stroke="#bfbfbf" points="842.5,-168.5 842.5,-187.5 880.5,-187.5 880.5,-168.5 842.5,-168.5"/>
<text text-anchor="middle" x="861.5" y="-175.5" font-family="Helvetica,sans-Serif" font-size="10.00">utility</text>
</g>
<!-- Node1&#45;&gt;Node18 -->
<g id="edge17" class="edge"><title>Node1&#45;&gt;Node18</title>
<path fill="none" stroke="midnightblue" d="M739.022,-224.446C771.271,-212.48 808.142,-198.799 832.931,-189.601"/>
<polygon fill="midnightblue" stroke="midnightblue" points="834.287,-192.831 842.445,-186.07 831.852,-186.268 834.287,-192.831"/>
</g>
<!-- Node19 -->
<g id="node19" class="node"><title>Node19</title>
<polygon fill="white" stroke="#bfbfbf" points="898.5,-168.5 898.5,-187.5 934.5,-187.5 934.5,-168.5 898.5,-168.5"/>
<text text-anchor="middle" x="916.5" y="-175.5" font-family="Helvetica,sans-Serif" font-size="10.00">map</text>
</g>
<!-- Node1&#45;&gt;Node19 -->
<g id="edge18" class="edge"><title>Node1&#45;&gt;Node19</title>
<path fill="none" stroke="midnightblue" d="M763.797,-224.491C800.21,-214.376 842.571,-202.302 888.659,-188.167"/>
<polygon fill="midnightblue" stroke="midnightblue" points="889.711,-191.505 898.237,-185.216 887.65,-184.816 889.711,-191.505"/>
</g>
<!-- Node20 -->
<g id="node20" class="node"><title>Node20</title>
<polygon fill="white" stroke="#bfbfbf" points="953,-168.5 953,-187.5 992,-187.5 992,-168.5 953,-168.5"/>
<text text-anchor="middle" x="972.5" y="-175.5" font-family="Helvetica,sans-Serif" font-size="10.00">limits</text>
</g>
<!-- Node1&#45;&gt;Node20 -->
<g id="edge19" class="edge"><title>Node1&#45;&gt;Node20</title>
<path fill="none" stroke="midnightblue" d="M765.729,-230.102C815.725,-219.355 878.346,-205.181 942.943,-187.982"/>
<polygon fill="midnightblue" stroke="midnightblue" points="944.154,-191.281 952.905,-185.31 942.34,-184.52 944.154,-191.281"/>
</g>
<!-- Node21 -->
<g id="node21" class="node"><title>Node21</title>
<polygon fill="white" stroke="#bfbfbf" points="1010,-168.5 1010,-187.5 1063,-187.5 1063,-168.5 1010,-168.5"/>
<text text-anchor="middle" x="1036.5" y="-175.5" font-family="Helvetica,sans-Serif" font-size="10.00">sstream</text>
</g>
<!-- Node1&#45;&gt;Node21 -->
<g id="edge20" class="edge"><title>Node1&#45;&gt;Node21</title>
<path fill="none" stroke="midnightblue" d="M765.723,-233.681C829.397,-222.583 915.552,-206.777 999.796,-188.276"/>
<polygon fill="midnightblue" stroke="midnightblue" points="1000.78,-191.642 1009.79,-186.066 999.272,-184.807 1000.78,-191.642"/>
</g>
<!-- Node3 -->
<g id="node3" class="node"><title>Node3</title>
<g id="a_node3"><a xlink:href="../../d1/d4e/_geometry_8h.html" target="_top" xlink:title="Geometry.h">
<polygon fill="white" stroke="black" points="182,-112.5 182,-131.5 251,-131.5 251,-112.5 182,-112.5"/>
<text text-anchor="middle" x="216.5" y="-119.5" font-family="Helvetica,sans-Serif" font-size="10.00">Geometry.h</text>
</a>
</g>
</g>
<!-- Node2&#45;&gt;Node3 -->
<g id="edge2" class="edge"><title>Node2&#45;&gt;Node3</title>
<path fill="none" stroke="midnightblue" d="M216.5,-168.083C216.5,-161.006 216.5,-150.861 216.5,-141.986"/>
<polygon fill="midnightblue" stroke="midnightblue" points="220,-141.751 216.5,-131.751 213,-141.751 220,-141.751"/>
</g>
<!-- Node4 -->
<g id="node4" class="node"><title>Node4</title>
<g id="a_node4"><a xlink:href="../../de/d4c/_misc_8h.html" target="_top" xlink:title="Auxiliary structures. ">
<polygon fill="white" stroke="black" points="194,-56.5 194,-75.5 239,-75.5 239,-56.5 194,-56.5"/>
<text text-anchor="middle" x="216.5" y="-63.5" font-family="Helvetica,sans-Serif" font-size="10.00">Misc.h</text>
</a>
</g>
</g>
<!-- Node3&#45;&gt;Node4 -->
<g id="edge3" class="edge"><title>Node3&#45;&gt;Node4</title>
<path fill="none" stroke="midnightblue" d="M216.5,-112.083C216.5,-105.006 216.5,-94.8611 216.5,-85.9865"/>
<polygon fill="midnightblue" stroke="midnightblue" points="220,-85.751 216.5,-75.7511 213,-85.7511 220,-85.751"/>
</g>
<!-- Node5 -->
<g id="node5" class="node"><title>Node5</title>
<polygon fill="white" stroke="#bfbfbf" points="0,-0.5 0,-19.5 41,-19.5 41,-0.5 0,-0.5"/>
<text text-anchor="middle" x="20.5" y="-7.5" font-family="Helvetica,sans-Serif" font-size="10.00">string</text>
</g>
<!-- Node4&#45;&gt;Node5 -->
<g id="edge4" class="edge"><title>Node4&#45;&gt;Node5</title>
<path fill="none" stroke="midnightblue" d="M193.735,-59.1563C163.282,-51.2771 107.388,-36.598 50.8757,-20.3266"/>
<polygon fill="midnightblue" stroke="midnightblue" points="51.6451,-16.9057 41.0663,-17.4876 49.6991,-23.6297 51.6451,-16.9057"/>
</g>
<!-- Node6 -->
<g id="node6" class="node"><title>Node6</title>
<polygon fill="white" stroke="#bfbfbf" points="59,-0.5 59,-19.5 114,-19.5 114,-0.5 59,-0.5"/>
<text text-anchor="middle" x="86.5" y="-7.5" font-family="Helvetica,sans-Serif" font-size="10.00">complex</text>
</g>
<!-- Node4&#45;&gt;Node6 -->
<g id="edge5" class="edge"><title>Node4&#45;&gt;Node6</title>
<path fill="none" stroke="midnightblue" d="M195.901,-56.4435C174.507,-47.5566 140.819,-33.5632 116.476,-23.4514"/>
<polygon fill="midnightblue" stroke="midnightblue" points="117.58,-20.1203 107.003,-19.5164 114.895,-26.5848 117.58,-20.1203"/>
</g>
<!-- Node7 -->
<g id="node7" class="node"><title>Node7</title>
<polygon fill="white" stroke="#bfbfbf" points="132,-0.5 132,-19.5 207,-19.5 207,-0.5 132,-0.5"/>
<text text-anchor="middle" x="169.5" y="-7.5" font-family="Helvetica,sans-Serif" font-size="10.00">Eigen/Dense</text>
</g>
<!-- Node4&#45;&gt;Node7 -->
<g id="edge6" class="edge"><title>Node4&#45;&gt;Node7</title>
<path fill="none" stroke="midnightblue" d="M208.739,-56.083C201.963,-48.2982 191.957,-36.8015 183.745,-27.3665"/>
<polygon fill="midnightblue" stroke="midnightblue" points="186.322,-24.9963 177.117,-19.7511 181.042,-29.592 186.322,-24.9963"/>
</g>
<!-- Node8 -->
<g id="node8" class="node"><title>Node8</title>
<polygon fill="white" stroke="#bfbfbf" points="225,-0.5 225,-19.5 302,-19.5 302,-0.5 225,-0.5"/>
<text text-anchor="middle" x="263.5" y="-7.5" font-family="Helvetica,sans-Serif" font-size="10.00">Eigen/Sparse</text>
</g>
<!-- Node4&#45;&gt;Node8 -->
<g id="edge7" class="edge"><title>Node4&#45;&gt;Node8</title>
<path fill="none" stroke="midnightblue" d="M224.261,-56.083C231.037,-48.2982 241.043,-36.8015 249.255,-27.3665"/>
<polygon fill="midnightblue" stroke="midnightblue" points="251.958,-29.592 255.883,-19.7511 246.678,-24.9963 251.958,-29.592"/>
</g>
<!-- Node9 -->
<g id="node9" class="node"><title>Node9</title>
<polygon fill="white" stroke="#bfbfbf" points="320.5,-0.5 320.5,-19.5 408.5,-19.5 408.5,-0.5 320.5,-0.5"/>
<text text-anchor="middle" x="364.5" y="-7.5" font-family="Helvetica,sans-Serif" font-size="10.00">Eigen/Cholesky</text>
</g>
<!-- Node4&#45;&gt;Node9 -->
<g id="edge8" class="edge"><title>Node4&#45;&gt;Node9</title>
<path fill="none" stroke="midnightblue" d="M239.301,-56.6808C263.962,-47.6829 303.503,-33.2558 331.544,-23.0247"/>
<polygon fill="midnightblue" stroke="midnightblue" points="332.745,-26.3122 340.939,-19.5966 330.345,-19.7363 332.745,-26.3122"/>
</g>
<!-- Node10 -->
<g id="node10" class="node"><title>Node10</title>
<polygon fill="white" stroke="#bfbfbf" points="427,-0.5 427,-19.5 528,-19.5 528,-0.5 427,-0.5"/>
<text text-anchor="middle" x="477.5" y="-7.5" font-family="Helvetica,sans-Serif" font-size="10.00">Eigen/Eigenvalues</text>
</g>
<!-- Node4&#45;&gt;Node10 -->
<g id="edge9" class="edge"><title>Node4&#45;&gt;Node10</title>
<path fill="none" stroke="midnightblue" d="M239.205,-60.3023C280.623,-51.7332 369.388,-33.3681 426.116,-21.6312"/>
<polygon fill="midnightblue" stroke="midnightblue" points="426.887,-25.0459 435.97,-19.5924 425.468,-18.1911 426.887,-25.0459"/>
</g>
</g>
</svg>
