<?xml version="1.0" encoding="UTF-8" standalone="no"?>
<!DOCTYPE svg PUBLIC "-//W3C//DTD SVG 1.1//EN"
 "http://www.w3.org/Graphics/SVG/1.1/DTD/svg11.dtd">
<!-- Generated by graphviz version 2.38.0 (20140413.2041)
 -->
<!-- Title: Misc.h Pages: 1 -->
<svg width="1320pt" height="196pt"
 viewBox="0.00 0.00 1319.50 196.00" xmlns="http://www.w3.org/2000/svg" xmlns:xlink="http://www.w3.org/1999/xlink">
<g id="graph0" class="graph" transform="scale(1 1) rotate(0) translate(4 192)">
<title>Misc.h</title>
<polygon fill="white" stroke="none" points="-4,4 -4,-192 1315.5,-192 1315.5,4 -4,4"/>
<!-- Node1 -->
<g id="node1" class="node"><title>Node1</title>
<polygon fill="#bfbfbf" stroke="black" points="931.5,-168.5 931.5,-187.5 976.5,-187.5 976.5,-168.5 931.5,-168.5"/>
<text text-anchor="middle" x="954" y="-175.5" font-family="Helvetica,sans-Serif" font-size="10.00">Misc.h</text>
</g>
<!-- Node2 -->
<g id="node2" class="node"><title>Node2</title>
<g id="a_node2"><a xlink:href="../../d1/d4e/_geometry_8h_source.html" target="_top" xlink:title="Geometry.h">
<polygon fill="white" stroke="black" points="828.5,-112.5 828.5,-131.5 897.5,-131.5 897.5,-112.5 828.5,-112.5"/>
<text text-anchor="middle" x="863" y="-119.5" font-family="Helvetica,sans-Serif" font-size="10.00">Geometry.h</text>
</a>
</g>
</g>
<!-- Node1&#45;&gt;Node2 -->
<g id="edge1" class="edge"><title>Node1&#45;&gt;Node2</title>
<path fill="none" stroke="midnightblue" d="M930.706,-163.177C913.961,-153.241 891.9,-140.149 877.584,-131.655"/>
<polygon fill="midnightblue" stroke="midnightblue" points="928.993,-166.231 939.379,-168.324 932.566,-160.211 928.993,-166.231"/>
</g>
<!-- Node16 -->
<g id="node16" class="node"><title>Node16</title>
<g id="a_node16"><a xlink:href="../../d2/da1/_mesh_8h_source.html" target="_top" xlink:title="Mesh.h">
<polygon fill="white" stroke="black" points="1107.5,-56.5 1107.5,-75.5 1156.5,-75.5 1156.5,-56.5 1107.5,-56.5"/>
<text text-anchor="middle" x="1132" y="-63.5" font-family="Helvetica,sans-Serif" font-size="10.00">Mesh.h</text>
</a>
</g>
</g>
<!-- Node1&#45;&gt;Node16 -->
<g id="edge27" class="edge"><title>Node1&#45;&gt;Node16</title>
<path fill="none" stroke="midnightblue" d="M976.64,-163.009C1014,-139.919 1087.48,-94.5104 1118.1,-75.5914"/>
<polygon fill="midnightblue" stroke="midnightblue" points="974.634,-160.134 967.967,-168.368 978.314,-166.089 974.634,-160.134"/>
</g>
<!-- Node3 -->
<g id="node3" class="node"><title>Node3</title>
<g id="a_node3"><a xlink:href="../../d6/d9b/_functions_8h.html" target="_top" xlink:title="Function declarations. ">
<polygon fill="white" stroke="black" points="632.5,-56.5 632.5,-75.5 699.5,-75.5 699.5,-56.5 632.5,-56.5"/>
<text text-anchor="middle" x="666" y="-63.5" font-family="Helvetica,sans-Serif" font-size="10.00">Functions.h</text>
</a>
</g>
</g>
<!-- Node2&#45;&gt;Node3 -->
<g id="edge2" class="edge"><title>Node2&#45;&gt;Node3</title>
<path fill="none" stroke="midnightblue" d="M821.771,-109.699C784.591,-99.507 730.729,-84.7429 697.069,-75.5164"/>
<polygon fill="midnightblue" stroke="midnightblue" points="821.215,-113.175 831.785,-112.444 823.066,-106.424 821.215,-113.175"/>
</g>
<!-- Node5 -->
<g id="node5" class="node"><title>Node5</title>
<g id="a_node5"><a xlink:href="../../df/d0a/main_8cpp_source.html" target="_top" xlink:title="main.cpp">
<polygon fill="white" stroke="black" points="952,-0.5 952,-19.5 1008,-19.5 1008,-0.5 952,-0.5"/>
<text text-anchor="middle" x="980" y="-7.5" font-family="Helvetica,sans-Serif" font-size="10.00">main.cpp</text>
</a>
</g>
</g>
<!-- Node2&#45;&gt;Node5 -->
<g id="edge15" class="edge"><title>Node2&#45;&gt;Node5</title>
<path fill="none" stroke="midnightblue" d="M896.544,-108.327C912.976,-100.842 932.152,-90.0553 946,-76 962.446,-59.3077 972.815,-33.0315 977.347,-19.5715"/>
<polygon fill="midnightblue" stroke="midnightblue" points="895.033,-105.167 887.247,-112.352 897.814,-111.59 895.033,-105.167"/>
</g>
<!-- Node6 -->
<g id="node6" class="node"><title>Node6</title>
<g id="a_node6"><a xlink:href="../../d3/d58/_arpack_cshift_8cpp_source.html" target="_top" xlink:title="ArpackCshift.cpp">
<polygon fill="white" stroke="black" points="1026.5,-0.5 1026.5,-19.5 1117.5,-19.5 1117.5,-0.5 1026.5,-0.5"/>
<text text-anchor="middle" x="1072" y="-7.5" font-family="Helvetica,sans-Serif" font-size="10.00">ArpackCshift.cpp</text>
</a>
</g>
</g>
<!-- Node2&#45;&gt;Node6 -->
<g id="edge19" class="edge"><title>Node2&#45;&gt;Node6</title>
<path fill="none" stroke="midnightblue" d="M895.045,-108.758C916.15,-100.335 944.179,-88.4544 968,-76 1002.34,-58.0454 1040.42,-32.7669 1059.56,-19.653"/>
<polygon fill="midnightblue" stroke="midnightblue" points="893.603,-105.564 885.584,-112.488 896.17,-112.076 893.603,-105.564"/>
</g>
<!-- Node8 -->
<g id="node8" class="node"><title>Node8</title>
<g id="a_node8"><a xlink:href="../../d8/dd4/_p2___mesh_test_8cpp_source.html" target="_top" xlink:title="P2_MeshTest.cpp">
<polygon fill="white" stroke="black" points="1136,-0.5 1136,-19.5 1234,-19.5 1234,-0.5 1136,-0.5"/>
<text text-anchor="middle" x="1185" y="-7.5" font-family="Helvetica,sans-Serif" font-size="10.00">P2_MeshTest.cpp</text>
</a>
</g>
</g>
<!-- Node2&#45;&gt;Node8 -->
<g id="edge20" class="edge"><title>Node2&#45;&gt;Node8</title>
<path fill="none" stroke="midnightblue" d="M899.218,-109.327C926.875,-100.36 965.906,-87.5875 1000,-76 1058.02,-56.2815 1125.91,-32.1571 1161.11,-19.5712"/>
<polygon fill="midnightblue" stroke="midnightblue" points="898.009,-106.04 889.573,-112.45 900.165,-112.7 898.009,-106.04"/>
</g>
<!-- Node9 -->
<g id="node9" class="node"><title>Node9</title>
<g id="a_node9"><a xlink:href="../../dd/db5/_p3___mesh_test_8cpp_source.html" target="_top" xlink:title="P3_MeshTest.cpp">
<polygon fill="white" stroke="black" points="0,-0.5 0,-19.5 98,-19.5 98,-0.5 0,-0.5"/>
<text text-anchor="middle" x="49" y="-7.5" font-family="Helvetica,sans-Serif" font-size="10.00">P3_MeshTest.cpp</text>
</a>
</g>
</g>
<!-- Node2&#45;&gt;Node9 -->
<g id="edge21" class="edge"><title>Node2&#45;&gt;Node9</title>
<path fill="none" stroke="midnightblue" d="M818.152,-118.688C730.389,-113.784 529.941,-100.709 363,-76 260.57,-60.8396 141.225,-33.3961 83.617,-19.5215"/>
<polygon fill="midnightblue" stroke="midnightblue" points="818.109,-122.191 828.286,-119.246 818.494,-115.202 818.109,-122.191"/>
</g>
<!-- Node10 -->
<g id="node10" class="node"><title>Node10</title>
<g id="a_node10"><a xlink:href="../../d7/da5/_pert_theo_solution_8cpp_source.html" target="_top" xlink:title="PertTheoSolution.cpp">
<polygon fill="white" stroke="black" points="116.5,-0.5 116.5,-19.5 229.5,-19.5 229.5,-0.5 116.5,-0.5"/>
<text text-anchor="middle" x="173" y="-7.5" font-family="Helvetica,sans-Serif" font-size="10.00">PertTheoSolution.cpp</text>
</a>
</g>
</g>
<!-- Node2&#45;&gt;Node10 -->
<g id="edge22" class="edge"><title>Node2&#45;&gt;Node10</title>
<path fill="none" stroke="midnightblue" d="M818.105,-117.576C743.727,-111.543 590.403,-97.5779 462,-76 368.176,-60.233 259.032,-33.3092 205.708,-19.5876"/>
<polygon fill="midnightblue" stroke="midnightblue" points="818.246,-121.099 828.494,-118.409 818.805,-114.121 818.246,-121.099"/>
</g>
<!-- Node11 -->
<g id="node11" class="node"><title>Node11</title>
<g id="a_node11"><a xlink:href="../../d2/da1/_quality_check_8cpp_source.html" target="_top" xlink:title="QualityCheck.cpp">
<polygon fill="white" stroke="black" points="247.5,-0.5 247.5,-19.5 342.5,-19.5 342.5,-0.5 247.5,-0.5"/>
<text text-anchor="middle" x="295" y="-7.5" font-family="Helvetica,sans-Serif" font-size="10.00">QualityCheck.cpp</text>
</a>
</g>
</g>
<!-- Node2&#45;&gt;Node11 -->
<g id="edge23" class="edge"><title>Node2&#45;&gt;Node11</title>
<path fill="none" stroke="midnightblue" d="M817.99,-116.06C756.952,-109.014 644.676,-94.8165 550,-76 467.326,-59.5688 371.368,-33.0598 324.216,-19.5338"/>
<polygon fill="midnightblue" stroke="midnightblue" points="817.723,-119.553 828.056,-117.211 818.518,-112.598 817.723,-119.553"/>
</g>
<!-- Node12 -->
<g id="node12" class="node"><title>Node12</title>
<g id="a_node12"><a xlink:href="../../df/d95/_transport_check_8cpp_source.html" target="_top" xlink:title="TransportCheck.cpp">
<polygon fill="white" stroke="black" points="360.5,-0.5 360.5,-19.5 467.5,-19.5 467.5,-0.5 360.5,-0.5"/>
<text text-anchor="middle" x="414" y="-7.5" font-family="Helvetica,sans-Serif" font-size="10.00">TransportCheck.cpp</text>
</a>
</g>
</g>
<!-- Node2&#45;&gt;Node12 -->
<g id="edge24" class="edge"><title>Node2&#45;&gt;Node12</title>
<path fill="none" stroke="midnightblue" d="M817.992,-114.164C769.511,-106.429 690.27,-92.7072 623,-76 555.143,-59.1471 476.861,-32.9411 438.195,-19.5334"/>
<polygon fill="midnightblue" stroke="midnightblue" points="817.726,-117.666 828.15,-115.769 818.819,-110.752 817.726,-117.666"/>
</g>
<!-- Node13 -->
<g id="node13" class="node"><title>Node13</title>
<g id="a_node13"><a xlink:href="../../db/d41/_trig_quality_check_8cpp_source.html" target="_top" xlink:title="TrigQualityCheck.cpp">
<polygon fill="white" stroke="black" points="689.5,-0.5 689.5,-19.5 802.5,-19.5 802.5,-0.5 689.5,-0.5"/>
<text text-anchor="middle" x="746" y="-7.5" font-family="Helvetica,sans-Serif" font-size="10.00">TrigQualityCheck.cpp</text>
</a>
</g>
</g>
<!-- Node2&#45;&gt;Node13 -->
<g id="edge25" class="edge"><title>Node2&#45;&gt;Node13</title>
<path fill="none" stroke="midnightblue" d="M846.526,-105.512C821.525,-82.0068 774.835,-38.1096 755.138,-19.5914"/>
<polygon fill="midnightblue" stroke="midnightblue" points="844.136,-108.069 853.819,-112.368 848.931,-102.969 844.136,-108.069"/>
</g>
<!-- Node14 -->
<g id="node14" class="node"><title>Node14</title>
<g id="a_node14"><a xlink:href="../../d0/d1b/_visualization_test_8cpp_source.html" target="_top" xlink:title="VisualizationTest.cpp">
<polygon fill="white" stroke="black" points="820.5,-0.5 820.5,-19.5 933.5,-19.5 933.5,-0.5 820.5,-0.5"/>
<text text-anchor="middle" x="877" y="-7.5" font-family="Helvetica,sans-Serif" font-size="10.00">VisualizationTest.cpp</text>
</a>
</g>
</g>
<!-- Node2&#45;&gt;Node14 -->
<g id="edge26" class="edge"><title>Node2&#45;&gt;Node14</title>
<path fill="none" stroke="midnightblue" d="M853.784,-102.765C848.369,-89.6521 843.407,-71.6045 848,-56 852.146,-41.9125 862.221,-28.0728 869.327,-19.5413"/>
<polygon fill="midnightblue" stroke="midnightblue" points="850.705,-104.447 858.05,-112.082 857.069,-101.533 850.705,-104.447"/>
</g>
<!-- Node15 -->
<g id="node15" class="node"><title>Node15</title>
<g id="a_node15"><a xlink:href="../../d8/de0/_geometry_8cpp_source.html" target="_top" xlink:title="Geometry.cpp">
<polygon fill="white" stroke="black" points="857,-56.5 857,-75.5 937,-75.5 937,-56.5 857,-56.5"/>
<text text-anchor="middle" x="897" y="-63.5" font-family="Helvetica,sans-Serif" font-size="10.00">Geometry.cpp</text>
</a>
</g>
</g>
<!-- Node2&#45;&gt;Node15 -->
<g id="edge14" class="edge"><title>Node2&#45;&gt;Node15</title>
<path fill="none" stroke="midnightblue" d="M873.977,-103.566C879.827,-94.2747 886.77,-83.2484 891.49,-75.7511"/>
<polygon fill="midnightblue" stroke="midnightblue" points="870.981,-101.756 868.614,-112.083 876.904,-105.486 870.981,-101.756"/>
</g>
<!-- Node2&#45;&gt;Node16 -->
<g id="edge16" class="edge"><title>Node2&#45;&gt;Node16</title>
<path fill="none" stroke="midnightblue" d="M907.784,-112.699C954.201,-103.987 1028.81,-89.6814 1093,-76 1097.62,-75.015 1102.54,-73.9182 1107.27,-72.8386"/>
<polygon fill="midnightblue" stroke="midnightblue" points="906.938,-109.296 897.753,-114.577 908.227,-116.177 906.938,-109.296"/>
</g>
<!-- Node17 -->
<g id="node17" class="node"><title>Node17</title>
<g id="a_node17"><a xlink:href="../../db/d06/_mesh_8cpp_source.html" target="_top" xlink:title="Mesh.cpp">
<polygon fill="white" stroke="black" points="1252.5,-0.5 1252.5,-19.5 1311.5,-19.5 1311.5,-0.5 1252.5,-0.5"/>
<text text-anchor="middle" x="1282" y="-7.5" font-family="Helvetica,sans-Serif" font-size="10.00">Mesh.cpp</text>
</a>
</g>
</g>
<!-- Node2&#45;&gt;Node17 -->
<g id="edge18" class="edge"><title>Node2&#45;&gt;Node17</title>
<path fill="none" stroke="midnightblue" d="M907.679,-111.19C944.318,-102.821 997.388,-89.9534 1043,-76 1067.87,-68.3911 1073.11,-63.5452 1098,-56 1126.72,-47.2951 1208,-28.1319 1252.31,-17.8456"/>
<polygon fill="midnightblue" stroke="midnightblue" points="906.78,-107.805 897.8,-113.428 908.327,-114.632 906.78,-107.805"/>
</g>
<!-- Node4 -->
<g id="node4" class="node"><title>Node4</title>
<g id="a_node4"><a xlink:href="../../dd/d9e/_functions_8cpp_source.html" target="_top" xlink:title="Functions.cpp">
<polygon fill="white" stroke="black" points="594.5,-0.5 594.5,-19.5 671.5,-19.5 671.5,-0.5 594.5,-0.5"/>
<text text-anchor="middle" x="633" y="-7.5" font-family="Helvetica,sans-Serif" font-size="10.00">Functions.cpp</text>
</a>
</g>
</g>
<!-- Node3&#45;&gt;Node4 -->
<g id="edge3" class="edge"><title>Node3&#45;&gt;Node4</title>
<path fill="none" stroke="midnightblue" d="M655.168,-47.2747C649.528,-38.0454 642.882,-27.1703 638.348,-19.7511"/>
<polygon fill="midnightblue" stroke="midnightblue" points="652.35,-49.3753 660.551,-56.083 658.323,-45.7251 652.35,-49.3753"/>
</g>
<!-- Node3&#45;&gt;Node5 -->
<g id="edge4" class="edge"><title>Node3&#45;&gt;Node5</title>
<path fill="none" stroke="midnightblue" d="M709.72,-58.8503C764.286,-50.9505 860.373,-36.2993 942,-20 945.191,-19.3628 948.522,-18.6481 951.827,-17.9074"/>
<polygon fill="midnightblue" stroke="midnightblue" points="709.102,-55.4032 699.703,-60.2923 710.099,-62.3318 709.102,-55.4032"/>
</g>
<!-- Node3&#45;&gt;Node6 -->
<g id="edge5" class="edge"><title>Node3&#45;&gt;Node6</title>
<path fill="none" stroke="midnightblue" d="M710.062,-59.8485C776.632,-51.953 906.782,-36.0781 1017,-20 1020.06,-19.5531 1023.22,-19.0772 1026.4,-18.5867"/>
<polygon fill="midnightblue" stroke="midnightblue" points="709.457,-56.3956 699.937,-61.0459 710.279,-63.3472 709.457,-56.3956"/>
</g>
<!-- Node7 -->
<g id="node7" class="node"><title>Node7</title>
<g id="a_node7"><a xlink:href="../../da/de1/_mesh_i_o_test_8cpp_source.html" target="_top" xlink:title="MeshIOTest.cpp">
<polygon fill="white" stroke="black" points="486,-0.5 486,-19.5 576,-19.5 576,-0.5 486,-0.5"/>
<text text-anchor="middle" x="531" y="-7.5" font-family="Helvetica,sans-Serif" font-size="10.00">MeshIOTest.cpp</text>
</a>
</g>
</g>
<!-- Node3&#45;&gt;Node7 -->
<g id="edge6" class="edge"><title>Node3&#45;&gt;Node7</title>
<path fill="none" stroke="midnightblue" d="M635.094,-52.6377C609.76,-42.504 574.569,-28.4274 552.291,-19.5164"/>
<polygon fill="midnightblue" stroke="midnightblue" points="634.024,-55.9792 644.609,-56.4435 636.624,-49.4799 634.024,-55.9792"/>
</g>
<!-- Node3&#45;&gt;Node8 -->
<g id="edge7" class="edge"><title>Node3&#45;&gt;Node8</title>
<path fill="none" stroke="midnightblue" d="M709.72,-61.5127C791.57,-54.8088 973.443,-39.0836 1126,-20 1129.19,-19.6013 1132.47,-19.1672 1135.77,-18.7121"/>
<polygon fill="midnightblue" stroke="midnightblue" points="709.228,-58.0411 699.545,-62.3417 709.796,-65.018 709.228,-58.0411"/>
</g>
<!-- Node3&#45;&gt;Node9 -->
<g id="edge8" class="edge"><title>Node3&#45;&gt;Node9</title>
<path fill="none" stroke="midnightblue" d="M622.166,-62.5726C527.765,-57.1035 298.296,-42.5107 107,-20 104.065,-19.6546 101.051,-19.272 98.013,-18.8651"/>
<polygon fill="midnightblue" stroke="midnightblue" points="622.019,-66.0699 632.203,-63.1492 622.421,-59.0814 622.019,-66.0699"/>
</g>
<!-- Node3&#45;&gt;Node10 -->
<g id="edge9" class="edge"><title>Node3&#45;&gt;Node10</title>
<path fill="none" stroke="midnightblue" d="M622.036,-60.8582C544.424,-53.439 378.077,-37.0569 238,-20 235.286,-19.6695 232.509,-19.3219 229.706,-18.9632"/>
<polygon fill="midnightblue" stroke="midnightblue" points="622.1,-64.38 632.387,-61.8447 622.764,-57.4116 622.1,-64.38"/>
</g>
<!-- Node3&#45;&gt;Node11 -->
<g id="edge10" class="edge"><title>Node3&#45;&gt;Node11</title>
<path fill="none" stroke="midnightblue" d="M622.394,-59.0156C561.564,-50.6117 447.807,-34.6928 351,-20 348.274,-19.5863 345.475,-19.1554 342.65,-18.716"/>
<polygon fill="midnightblue" stroke="midnightblue" points="622.021,-62.4973 632.406,-60.397 622.978,-55.563 622.021,-62.4973"/>
</g>
<!-- Node3&#45;&gt;Node12 -->
<g id="edge11" class="edge"><title>Node3&#45;&gt;Node12</title>
<path fill="none" stroke="midnightblue" d="M622.294,-55.6344C574.813,-45.4599 499.619,-29.3469 453.749,-19.5177"/>
<polygon fill="midnightblue" stroke="midnightblue" points="621.764,-59.1003 632.276,-57.7734 623.231,-52.2557 621.764,-59.1003"/>
</g>
<!-- Node3&#45;&gt;Node13 -->
<g id="edge12" class="edge"><title>Node3&#45;&gt;Node13</title>
<path fill="none" stroke="midnightblue" d="M687.301,-50.6221C701.915,-40.7574 720.827,-27.9919 733.179,-19.6545"/>
<polygon fill="midnightblue" stroke="midnightblue" points="685.184,-47.8282 678.853,-56.324 689.1,-53.6302 685.184,-47.8282"/>
</g>
<!-- Node3&#45;&gt;Node14 -->
<g id="edge13" class="edge"><title>Node3&#45;&gt;Node14</title>
<path fill="none" stroke="midnightblue" d="M709.142,-53.959C748.994,-43.7598 807.363,-28.8217 843.723,-19.5164"/>
<polygon fill="midnightblue" stroke="midnightblue" points="708.254,-50.5734 699.434,-56.4435 709.989,-57.3549 708.254,-50.5734"/>
</g>
<!-- Node16&#45;&gt;Node17 -->
<g id="edge17" class="edge"><title>Node16&#45;&gt;Node17</title>
<path fill="none" stroke="midnightblue" d="M1165.22,-53.0392C1193.45,-42.8786 1233.26,-28.5457 1258.34,-19.5164"/>
<polygon fill="midnightblue" stroke="midnightblue" points="1163.99,-49.7632 1155.77,-56.4435 1166.36,-56.3494 1163.99,-49.7632"/>
</g>
</g>
</svg>
