<?xml version="1.0" encoding="UTF-8" standalone="no"?>
<!DOCTYPE svg PUBLIC "-//W3C//DTD SVG 1.1//EN"
 "http://www.w3.org/Graphics/SVG/1.1/DTD/svg11.dtd">
<!-- Generated by graphviz version 2.38.0 (20140413.2041)
 -->
<!-- Title: /home/solid/secondary/lebedev/bin/Master_Thesis_Num/FEM_EigenvalueDecomposition/Mesh.cpp Pages: 1 -->
<svg width="536pt" height="285pt"
 viewBox="0.00 0.00 536.00 285.00" xmlns="http://www.w3.org/2000/svg" xmlns:xlink="http://www.w3.org/1999/xlink">
<g id="graph0" class="graph" transform="scale(1 1) rotate(0) translate(4 281)">
<title>/home/solid/secondary/lebedev/bin/Master_Thesis_Num/FEM_EigenvalueDecomposition/Mesh.cpp</title>
<polygon fill="white" stroke="none" points="-4,4 -4,-281 532,-281 532,4 -4,4"/>
<!-- Node1 -->
<g id="node1" class="node"><title>Node1</title>
<polygon fill="#bfbfbf" stroke="black" points="158.5,-224.5 158.5,-276.5 346.5,-276.5 346.5,-224.5 158.5,-224.5"/>
<text text-anchor="start" x="166.5" y="-264.5" font-family="Helvetica,sans-Serif" font-size="10.00">/home/solid/secondary</text>
<text text-anchor="start" x="166.5" y="-253.5" font-family="Helvetica,sans-Serif" font-size="10.00">/lebedev/bin/Master_Thesis</text>
<text text-anchor="start" x="166.5" y="-242.5" font-family="Helvetica,sans-Serif" font-size="10.00">_Num/FEM_EigenvalueDecomposition</text>
<text text-anchor="middle" x="252.5" y="-231.5" font-family="Helvetica,sans-Serif" font-size="10.00">/Mesh.cpp</text>
</g>
<!-- Node2 -->
<g id="node2" class="node"><title>Node2</title>
<g id="a_node2"><a xlink:href="../../d2/da1/_mesh_8h.html" target="_top" xlink:title="Mesh.h">
<polygon fill="white" stroke="black" points="122,-168.5 122,-187.5 171,-187.5 171,-168.5 122,-168.5"/>
<text text-anchor="middle" x="146.5" y="-175.5" font-family="Helvetica,sans-Serif" font-size="10.00">Mesh.h</text>
</a>
</g>
</g>
<!-- Node1&#45;&gt;Node2 -->
<g id="edge1" class="edge"><title>Node1&#45;&gt;Node2</title>
<path fill="none" stroke="midnightblue" d="M214.83,-224.446C199.068,-213.963 181.327,-202.163 167.873,-193.215"/>
<polygon fill="midnightblue" stroke="midnightblue" points="169.586,-190.151 159.321,-187.527 165.709,-195.979 169.586,-190.151"/>
</g>
<!-- Node10 -->
<g id="node10" class="node"><title>Node10</title>
<g id="a_node10"><a xlink:href="../../d1/d4e/_geometry_8h.html" target="_top" xlink:title="Geometry.h">
<polygon fill="white" stroke="black" points="245,-112.5 245,-131.5 314,-131.5 314,-112.5 245,-112.5"/>
<text text-anchor="middle" x="279.5" y="-119.5" font-family="Helvetica,sans-Serif" font-size="10.00">Geometry.h</text>
</a>
</g>
</g>
<!-- Node1&#45;&gt;Node10 -->
<g id="edge14" class="edge"><title>Node1&#45;&gt;Node10</title>
<path fill="none" stroke="midnightblue" d="M257.899,-224.205C263.115,-199.768 270.891,-163.337 275.552,-141.499"/>
<polygon fill="midnightblue" stroke="midnightblue" points="279.011,-142.06 277.675,-131.55 272.165,-140.599 279.011,-142.06"/>
</g>
<!-- Node13 -->
<g id="node13" class="node"><title>Node13</title>
<polygon fill="white" stroke="#bfbfbf" points="280.5,-168.5 280.5,-187.5 336.5,-187.5 336.5,-168.5 280.5,-168.5"/>
<text text-anchor="middle" x="308.5" y="-175.5" font-family="Helvetica,sans-Serif" font-size="10.00">iostream</text>
</g>
<!-- Node1&#45;&gt;Node13 -->
<g id="edge15" class="edge"><title>Node1&#45;&gt;Node13</title>
<path fill="none" stroke="midnightblue" d="M272.401,-224.446C279.961,-214.929 288.382,-204.327 295.189,-195.758"/>
<polygon fill="midnightblue" stroke="midnightblue" points="298.114,-197.703 301.593,-187.695 292.632,-193.349 298.114,-197.703"/>
</g>
<!-- Node3 -->
<g id="node3" class="node"><title>Node3</title>
<g id="a_node3"><a xlink:href="../../de/d4c/_misc_8h.html" target="_top" xlink:title="Auxiliary structures. ">
<polygon fill="white" stroke="black" points="194,-56.5 194,-75.5 239,-75.5 239,-56.5 194,-56.5"/>
<text text-anchor="middle" x="216.5" y="-63.5" font-family="Helvetica,sans-Serif" font-size="10.00">Misc.h</text>
</a>
</g>
</g>
<!-- Node2&#45;&gt;Node3 -->
<g id="edge2" class="edge"><title>Node2&#45;&gt;Node3</title>
<path fill="none" stroke="midnightblue" d="M124.612,-168.393C98.5855,-156.864 60.6559,-135.158 77.5,-112 101.666,-78.7753 150.895,-69.5792 183.799,-67.3061"/>
<polygon fill="midnightblue" stroke="midnightblue" points="184.048,-70.798 193.856,-66.7896 183.689,-63.8072 184.048,-70.798"/>
</g>
<!-- Node4 -->
<g id="node4" class="node"><title>Node4</title>
<polygon fill="white" stroke="#bfbfbf" points="0,-0.5 0,-19.5 41,-19.5 41,-0.5 0,-0.5"/>
<text text-anchor="middle" x="20.5" y="-7.5" font-family="Helvetica,sans-Serif" font-size="10.00">string</text>
</g>
<!-- Node2&#45;&gt;Node4 -->
<g id="edge13" class="edge"><title>Node2&#45;&gt;Node4</title>
<path fill="none" stroke="midnightblue" d="M123.559,-168.378C106.629,-160.991 84.0899,-148.86 69.5,-132 43.1456,-101.545 29.7686,-55.0673 24.0512,-29.4859"/>
<polygon fill="midnightblue" stroke="midnightblue" points="27.4625,-28.699 21.999,-19.6216 20.6093,-30.1249 27.4625,-28.699"/>
</g>
<!-- Node2&#45;&gt;Node10 -->
<g id="edge9" class="edge"><title>Node2&#45;&gt;Node10</title>
<path fill="none" stroke="midnightblue" d="M167.574,-168.444C189.56,-159.517 224.234,-145.439 249.164,-135.317"/>
<polygon fill="midnightblue" stroke="midnightblue" points="250.576,-138.521 258.524,-131.516 247.942,-132.035 250.576,-138.521"/>
</g>
<!-- Node11 -->
<g id="node11" class="node"><title>Node11</title>
<polygon fill="white" stroke="#bfbfbf" points="87,-112.5 87,-131.5 152,-131.5 152,-112.5 87,-112.5"/>
<text text-anchor="middle" x="119.5" y="-119.5" font-family="Helvetica,sans-Serif" font-size="10.00">mgl2/mgl.h</text>
</g>
<!-- Node2&#45;&gt;Node11 -->
<g id="edge11" class="edge"><title>Node2&#45;&gt;Node11</title>
<path fill="none" stroke="midnightblue" d="M142.041,-168.083C138.346,-160.691 132.977,-149.953 128.406,-140.811"/>
<polygon fill="midnightblue" stroke="midnightblue" points="131.478,-139.13 123.876,-131.751 125.217,-142.261 131.478,-139.13"/>
</g>
<!-- Node12 -->
<g id="node12" class="node"><title>Node12</title>
<polygon fill="white" stroke="#bfbfbf" points="170,-112.5 170,-131.5 227,-131.5 227,-112.5 170,-112.5"/>
<text text-anchor="middle" x="198.5" y="-119.5" font-family="Helvetica,sans-Serif" font-size="10.00">mgl2/qt.h</text>
</g>
<!-- Node2&#45;&gt;Node12 -->
<g id="edge12" class="edge"><title>Node2&#45;&gt;Node12</title>
<path fill="none" stroke="midnightblue" d="M155.087,-168.083C162.659,-160.22 173.878,-148.569 183.014,-139.081"/>
<polygon fill="midnightblue" stroke="midnightblue" points="185.658,-141.382 190.073,-131.751 180.615,-136.527 185.658,-141.382"/>
</g>
<!-- Node3&#45;&gt;Node4 -->
<g id="edge3" class="edge"><title>Node3&#45;&gt;Node4</title>
<path fill="none" stroke="midnightblue" d="M193.735,-59.1563C163.282,-51.2771 107.388,-36.598 50.8757,-20.3266"/>
<polygon fill="midnightblue" stroke="midnightblue" points="51.6451,-16.9057 41.0663,-17.4876 49.6991,-23.6297 51.6451,-16.9057"/>
</g>
<!-- Node5 -->
<g id="node5" class="node"><title>Node5</title>
<polygon fill="white" stroke="#bfbfbf" points="59,-0.5 59,-19.5 114,-19.5 114,-0.5 59,-0.5"/>
<text text-anchor="middle" x="86.5" y="-7.5" font-family="Helvetica,sans-Serif" font-size="10.00">complex</text>
</g>
<!-- Node3&#45;&gt;Node5 -->
<g id="edge4" class="edge"><title>Node3&#45;&gt;Node5</title>
<path fill="none" stroke="midnightblue" d="M195.901,-56.4435C174.507,-47.5566 140.819,-33.5632 116.476,-23.4514"/>
<polygon fill="midnightblue" stroke="midnightblue" points="117.58,-20.1203 107.003,-19.5164 114.895,-26.5848 117.58,-20.1203"/>
</g>
<!-- Node6 -->
<g id="node6" class="node"><title>Node6</title>
<polygon fill="white" stroke="#bfbfbf" points="132,-0.5 132,-19.5 207,-19.5 207,-0.5 132,-0.5"/>
<text text-anchor="middle" x="169.5" y="-7.5" font-family="Helvetica,sans-Serif" font-size="10.00">Eigen/Dense</text>
</g>
<!-- Node3&#45;&gt;Node6 -->
<g id="edge5" class="edge"><title>Node3&#45;&gt;Node6</title>
<path fill="none" stroke="midnightblue" d="M208.739,-56.083C201.963,-48.2982 191.957,-36.8015 183.745,-27.3665"/>
<polygon fill="midnightblue" stroke="midnightblue" points="186.322,-24.9963 177.117,-19.7511 181.042,-29.592 186.322,-24.9963"/>
</g>
<!-- Node7 -->
<g id="node7" class="node"><title>Node7</title>
<polygon fill="white" stroke="#bfbfbf" points="225,-0.5 225,-19.5 302,-19.5 302,-0.5 225,-0.5"/>
<text text-anchor="middle" x="263.5" y="-7.5" font-family="Helvetica,sans-Serif" font-size="10.00">Eigen/Sparse</text>
</g>
<!-- Node3&#45;&gt;Node7 -->
<g id="edge6" class="edge"><title>Node3&#45;&gt;Node7</title>
<path fill="none" stroke="midnightblue" d="M224.261,-56.083C231.037,-48.2982 241.043,-36.8015 249.255,-27.3665"/>
<polygon fill="midnightblue" stroke="midnightblue" points="251.958,-29.592 255.883,-19.7511 246.678,-24.9963 251.958,-29.592"/>
</g>
<!-- Node8 -->
<g id="node8" class="node"><title>Node8</title>
<polygon fill="white" stroke="#bfbfbf" points="320.5,-0.5 320.5,-19.5 408.5,-19.5 408.5,-0.5 320.5,-0.5"/>
<text text-anchor="middle" x="364.5" y="-7.5" font-family="Helvetica,sans-Serif" font-size="10.00">Eigen/Cholesky</text>
</g>
<!-- Node3&#45;&gt;Node8 -->
<g id="edge7" class="edge"><title>Node3&#45;&gt;Node8</title>
<path fill="none" stroke="midnightblue" d="M239.301,-56.6808C263.962,-47.6829 303.503,-33.2558 331.544,-23.0247"/>
<polygon fill="midnightblue" stroke="midnightblue" points="332.745,-26.3122 340.939,-19.5966 330.345,-19.7363 332.745,-26.3122"/>
</g>
<!-- Node9 -->
<g id="node9" class="node"><title>Node9</title>
<polygon fill="white" stroke="#bfbfbf" points="427,-0.5 427,-19.5 528,-19.5 528,-0.5 427,-0.5"/>
<text text-anchor="middle" x="477.5" y="-7.5" font-family="Helvetica,sans-Serif" font-size="10.00">Eigen/Eigenvalues</text>
</g>
<!-- Node3&#45;&gt;Node9 -->
<g id="edge8" class="edge"><title>Node3&#45;&gt;Node9</title>
<path fill="none" stroke="midnightblue" d="M239.205,-60.3023C280.623,-51.7332 369.388,-33.3681 426.116,-21.6312"/>
<polygon fill="midnightblue" stroke="midnightblue" points="426.887,-25.0459 435.97,-19.5924 425.468,-18.1911 426.887,-25.0459"/>
</g>
<!-- Node10&#45;&gt;Node3 -->
<g id="edge10" class="edge"><title>Node10&#45;&gt;Node3</title>
<path fill="none" stroke="midnightblue" d="M269.378,-112.324C259.974,-104.263 245.756,-92.0765 234.431,-82.3695"/>
<polygon fill="midnightblue" stroke="midnightblue" points="236.677,-79.6844 226.806,-75.8339 232.121,-84.9993 236.677,-79.6844"/>
</g>
</g>
</svg>
