<?xml version="1.0" encoding="UTF-8" standalone="no"?>
<!DOCTYPE svg PUBLIC "-//W3C//DTD SVG 1.1//EN"
 "http://www.w3.org/Graphics/SVG/1.1/DTD/svg11.dtd">
<!-- Generated by graphviz version 2.38.0 (20140413.2041)
 -->
<!-- Title: MGLTriMesh Pages: 1 -->
<svg width="250pt" height="353pt"
 viewBox="0.00 0.00 250.00 353.00" xmlns="http://www.w3.org/2000/svg" xmlns:xlink="http://www.w3.org/1999/xlink">
<g id="graph0" class="graph" transform="scale(1 1) rotate(0) translate(4 349)">
<title>MGLTriMesh</title>
<polygon fill="white" stroke="none" points="-4,4 -4,-349 246,-349 246,4 -4,4"/>
<!-- Node1 -->
<g id="node1" class="node"><title>Node1</title>
<polygon fill="#bfbfbf" stroke="black" points="57,-0.5 57,-112.5 154,-112.5 154,-0.5 57,-0.5"/>
<text text-anchor="middle" x="105.5" y="-100.5" font-family="Helvetica,sans-Serif" font-size="10.00">MGLTriMesh</text>
<polyline fill="none" stroke="black" points="57,-93.5 154,-93.5 "/>
<text text-anchor="start" x="65" y="-81.5" font-family="Helvetica,sans-Serif" font-size="10.00">+ Ntri</text>
<text text-anchor="start" x="65" y="-70.5" font-family="Helvetica,sans-Serif" font-size="10.00">+ Nvert</text>
<text text-anchor="start" x="65" y="-59.5" font-family="Helvetica,sans-Serif" font-size="10.00">+ vertices</text>
<polyline fill="none" stroke="black" points="57,-52.5 154,-52.5 "/>
<text text-anchor="start" x="65" y="-40.5" font-family="Helvetica,sans-Serif" font-size="10.00">+ MGLTriMesh()</text>
<text text-anchor="start" x="65" y="-29.5" font-family="Helvetica,sans-Serif" font-size="10.00">+ ~MGLTriMesh()</text>
<text text-anchor="start" x="65" y="-18.5" font-family="Helvetica,sans-Serif" font-size="10.00">+ updateFval()</text>
<text text-anchor="start" x="65" y="-7.5" font-family="Helvetica,sans-Serif" font-size="10.00">+ Draw()</text>
</g>
<!-- Node2 -->
<g id="node2" class="node"><title>Node2</title>
<polygon fill="white" stroke="#bfbfbf" points="0,-171.5 0,-228.5 57,-228.5 57,-171.5 0,-171.5"/>
<text text-anchor="middle" x="28.5" y="-216.5" font-family="Helvetica,sans-Serif" font-size="10.00">mglDraw</text>
<polyline fill="none" stroke="#bfbfbf" points="0,-209.5 57,-209.5 "/>
<text text-anchor="middle" x="28.5" y="-197.5" font-family="Helvetica,sans-Serif" font-size="10.00"> </text>
<polyline fill="none" stroke="#bfbfbf" points="0,-190.5 57,-190.5 "/>
<text text-anchor="middle" x="28.5" y="-178.5" font-family="Helvetica,sans-Serif" font-size="10.00"> </text>
</g>
<!-- Node2&#45;&gt;Node1 -->
<g id="edge1" class="edge"><title>Node2&#45;&gt;Node1</title>
<path fill="none" stroke="midnightblue" d="M48.4547,-162.33C56.7064,-147.166 66.4513,-129.258 75.53,-112.575"/>
<polygon fill="none" stroke="midnightblue" points="45.2347,-160.925 43.5292,-171.381 51.3833,-164.271 45.2347,-160.925"/>
</g>
<!-- Node3 -->
<g id="node3" class="node"><title>Node3</title>
<g id="a_node3"><a xlink:title="STL class. ">
<polygon fill="white" stroke="#bfbfbf" points="75.5,-171.5 75.5,-228.5 135.5,-228.5 135.5,-171.5 75.5,-171.5"/>
<text text-anchor="middle" x="105.5" y="-216.5" font-family="Helvetica,sans-Serif" font-size="10.00">std::string</text>
<polyline fill="none" stroke="#bfbfbf" points="75.5,-209.5 135.5,-209.5 "/>
<text text-anchor="middle" x="105.5" y="-197.5" font-family="Helvetica,sans-Serif" font-size="10.00"> </text>
<polyline fill="none" stroke="#bfbfbf" points="75.5,-190.5 135.5,-190.5 "/>
<text text-anchor="middle" x="105.5" y="-178.5" font-family="Helvetica,sans-Serif" font-size="10.00"> </text>
</a>
</g>
</g>
<!-- Node3&#45;&gt;Node1 -->
<g id="edge2" class="edge"><title>Node3&#45;&gt;Node1</title>
<path fill="none" stroke="#404040" d="M105.5,-171.381C105.5,-158.051 105.5,-141.416 105.5,-125.014"/>
<polygon fill="none" stroke="#404040" points="105.5,-124.575 101.5,-118.575 105.5,-112.575 109.5,-118.575 105.5,-124.575"/>
<text text-anchor="middle" x="136" y="-145" font-family="Helvetica,sans-Serif" font-size="10.00"> +VertexStyle</text>
<text text-anchor="middle" x="136" y="-134" font-family="Helvetica,sans-Serif" font-size="10.00">+LineStyle</text>
</g>
<!-- Node4 -->
<g id="node4" class="node"><title>Node4</title>
<g id="a_node4"><a xlink:title="STL class. ">
<polygon fill="white" stroke="#bfbfbf" points="58,-276.5 58,-344.5 153,-344.5 153,-276.5 58,-276.5"/>
<text text-anchor="start" x="66" y="-332.5" font-family="Helvetica,sans-Serif" font-size="10.00">std::basic_string&lt;</text>
<text text-anchor="middle" x="105.5" y="-321.5" font-family="Helvetica,sans-Serif" font-size="10.00"> char &gt;</text>
<polyline fill="none" stroke="#bfbfbf" points="58,-314.5 153,-314.5 "/>
<text text-anchor="middle" x="105.5" y="-302.5" font-family="Helvetica,sans-Serif" font-size="10.00"> </text>
<polyline fill="none" stroke="#bfbfbf" points="58,-295.5 153,-295.5 "/>
<text text-anchor="middle" x="105.5" y="-283.5" font-family="Helvetica,sans-Serif" font-size="10.00"> </text>
</a>
</g>
</g>
<!-- Node4&#45;&gt;Node3 -->
<g id="edge3" class="edge"><title>Node4&#45;&gt;Node3</title>
<path fill="none" stroke="midnightblue" d="M105.5,-266.064C105.5,-253.511 105.5,-240.152 105.5,-228.827"/>
<polygon fill="none" stroke="midnightblue" points="102,-266.357 105.5,-276.357 109,-266.357 102,-266.357"/>
</g>
<!-- Node5 -->
<g id="node5" class="node"><title>Node5</title>
<g id="a_node5"><a xlink:href="../../d9/db2/structelement.html" target="_top" xlink:title="A template for element indices. Template struct for indices of the elements. ">
<polygon fill="white" stroke="black" points="153,-171.5 153,-228.5 242,-228.5 242,-171.5 153,-171.5"/>
<text text-anchor="middle" x="197.5" y="-216.5" font-family="Helvetica,sans-Serif" font-size="10.00">element&lt; T, n &gt;</text>
<polyline fill="none" stroke="black" points="153,-209.5 242,-209.5 "/>
<text text-anchor="middle" x="197.5" y="-197.5" font-family="Helvetica,sans-Serif" font-size="10.00"> </text>
<polyline fill="none" stroke="black" points="153,-190.5 242,-190.5 "/>
<text text-anchor="middle" x="197.5" y="-178.5" font-family="Helvetica,sans-Serif" font-size="10.00"> </text>
</a>
</g>
</g>
<!-- Node5&#45;&gt;Node1 -->
<g id="edge4" class="edge"><title>Node5&#45;&gt;Node1</title>
<path fill="none" stroke="#404040" d="M189.029,-171.496C184.481,-158.692 178.215,-143.554 170.5,-131 167.716,-126.469 164.644,-121.95 161.396,-117.508"/>
<polygon fill="none" stroke="#404040" points="161.352,-117.451 154.526,-115.125 154.048,-107.93 160.874,-110.256 161.352,-117.451"/>
<text text-anchor="middle" x="205.5" y="-139.5" font-family="Helvetica,sans-Serif" font-size="10.00"> +Triangle</text>
</g>
<!-- Node6 -->
<g id="node6" class="node"><title>Node6</title>
<polygon fill="white" stroke="#bfbfbf" points="183,-282 183,-339 212,-339 212,-282 183,-282"/>
<text text-anchor="middle" x="197.5" y="-327" font-family="Helvetica,sans-Serif" font-size="10.00">T</text>
<polyline fill="none" stroke="#bfbfbf" points="183,-320 212,-320 "/>
<text text-anchor="middle" x="197.5" y="-308" font-family="Helvetica,sans-Serif" font-size="10.00"> </text>
<polyline fill="none" stroke="#bfbfbf" points="183,-301 212,-301 "/>
<text text-anchor="middle" x="197.5" y="-289" font-family="Helvetica,sans-Serif" font-size="10.00"> </text>
</g>
<!-- Node6&#45;&gt;Node5 -->
<g id="edge5" class="edge"><title>Node6&#45;&gt;Node5</title>
<path fill="none" stroke="#404040" d="M197.5,-281.84C197.5,-269.342 197.5,-254.342 197.5,-240.676"/>
<polygon fill="none" stroke="#404040" points="197.5,-240.609 193.5,-234.609 197.5,-228.609 201.5,-234.609 197.5,-240.609"/>
<text text-anchor="middle" x="210.5" y="-250" font-family="Helvetica,sans-Serif" font-size="10.00"> +vert</text>
</g>
</g>
</svg>
