<?xml version="1.0" encoding="UTF-8" standalone="no"?>
<!DOCTYPE svg PUBLIC "-//W3C//DTD SVG 1.1//EN"
 "http://www.w3.org/Graphics/SVG/1.1/DTD/svg11.dtd">
<!-- Generated by graphviz version 2.38.0 (20140413.2041)
 -->
<!-- Title: /home/solid/secondary/lebedev/bin/Master_Thesis_Num/FEM_EigenvalueDecomposition/tests/ArpackCshift.cpp Pages: 1 -->
<svg width="1145pt" height="296pt"
 viewBox="0.00 0.00 1144.50 296.00" xmlns="http://www.w3.org/2000/svg" xmlns:xlink="http://www.w3.org/1999/xlink">
<g id="graph0" class="graph" transform="scale(1 1) rotate(0) translate(4 292)">
<title>/home/solid/secondary/lebedev/bin/Master_Thesis_Num/FEM_EigenvalueDecomposition/tests/ArpackCshift.cpp</title>
<polygon fill="white" stroke="none" points="-4,4 -4,-292 1140.5,-292 1140.5,4 -4,4"/>
<!-- Node1 -->
<g id="node1" class="node"><title>Node1</title>
<polygon fill="#bfbfbf" stroke="black" points="325.5,-235.5 325.5,-287.5 513.5,-287.5 513.5,-235.5 325.5,-235.5"/>
<text text-anchor="start" x="333.5" y="-275.5" font-family="Helvetica,sans-Serif" font-size="10.00">/home/solid/secondary</text>
<text text-anchor="start" x="333.5" y="-264.5" font-family="Helvetica,sans-Serif" font-size="10.00">/lebedev/bin/Master_Thesis</text>
<text text-anchor="start" x="333.5" y="-253.5" font-family="Helvetica,sans-Serif" font-size="10.00">_Num/FEM_EigenvalueDecomposition</text>
<text text-anchor="middle" x="419.5" y="-242.5" font-family="Helvetica,sans-Serif" font-size="10.00">/tests/ArpackCshift.cpp</text>
</g>
<!-- Node2 -->
<g id="node2" class="node"><title>Node2</title>
<polygon fill="white" stroke="#bfbfbf" points="0,-174 0,-193 45,-193 45,-174 0,-174"/>
<text text-anchor="middle" x="22.5" y="-181" font-family="Helvetica,sans-Serif" font-size="10.00">cstdlib</text>
</g>
<!-- Node1&#45;&gt;Node2 -->
<g id="edge1" class="edge"><title>Node1&#45;&gt;Node2</title>
<path fill="none" stroke="midnightblue" d="M325.33,-251.407C250.699,-242.592 144.39,-226.431 54.5,-199 52.5749,-198.413 50.6143,-197.736 48.6595,-197.002"/>
<polygon fill="midnightblue" stroke="midnightblue" points="49.6993,-193.643 39.1232,-193.014 46.9985,-200.101 49.6993,-193.643"/>
</g>
<!-- Node3 -->
<g id="node3" class="node"><title>Node3</title>
<polygon fill="white" stroke="#bfbfbf" points="63.5,-174 63.5,-193 119.5,-193 119.5,-174 63.5,-174"/>
<text text-anchor="middle" x="91.5" y="-181" font-family="Helvetica,sans-Serif" font-size="10.00">iostream</text>
</g>
<!-- Node1&#45;&gt;Node3 -->
<g id="edge2" class="edge"><title>Node1&#45;&gt;Node3</title>
<path fill="none" stroke="midnightblue" d="M325.465,-244.707C267.984,-234.05 193.302,-218.4 128.5,-199 126.071,-198.273 123.577,-197.456 121.087,-196.589"/>
<polygon fill="midnightblue" stroke="midnightblue" points="122.238,-193.283 111.645,-193.09 119.805,-199.847 122.238,-193.283"/>
</g>
<!-- Node4 -->
<g id="node4" class="node"><title>Node4</title>
<polygon fill="white" stroke="#bfbfbf" points="137.5,-174 137.5,-193 189.5,-193 189.5,-174 137.5,-174"/>
<text text-anchor="middle" x="163.5" y="-181" font-family="Helvetica,sans-Serif" font-size="10.00">iomanip</text>
</g>
<!-- Node1&#45;&gt;Node4 -->
<g id="edge3" class="edge"><title>Node1&#45;&gt;Node4</title>
<path fill="none" stroke="midnightblue" d="M325.402,-236.646C286.175,-226.07 240.333,-212.883 199.5,-199 197.375,-198.277 195.193,-197.497 193.006,-196.687"/>
<polygon fill="midnightblue" stroke="midnightblue" points="194.125,-193.367 183.536,-193.025 191.6,-199.896 194.125,-193.367"/>
</g>
<!-- Node5 -->
<g id="node5" class="node"><title>Node5</title>
<polygon fill="white" stroke="#bfbfbf" points="208,-174 208,-193 261,-193 261,-174 208,-174"/>
<text text-anchor="middle" x="234.5" y="-181" font-family="Helvetica,sans-Serif" font-size="10.00">sstream</text>
</g>
<!-- Node1&#45;&gt;Node5 -->
<g id="edge4" class="edge"><title>Node1&#45;&gt;Node5</title>
<path fill="none" stroke="midnightblue" d="M358.411,-235.404C327.007,-222.503 290.121,-207.35 264.809,-196.951"/>
<polygon fill="midnightblue" stroke="midnightblue" points="265.96,-193.64 255.38,-193.078 263.3,-200.115 265.96,-193.64"/>
</g>
<!-- Node6 -->
<g id="node6" class="node"><title>Node6</title>
<polygon fill="white" stroke="#bfbfbf" points="279.5,-174 279.5,-193 329.5,-193 329.5,-174 279.5,-174"/>
<text text-anchor="middle" x="304.5" y="-181" font-family="Helvetica,sans-Serif" font-size="10.00">fstream</text>
</g>
<!-- Node1&#45;&gt;Node6 -->
<g id="edge5" class="edge"><title>Node1&#45;&gt;Node6</title>
<path fill="none" stroke="midnightblue" d="M381.526,-235.404C363.041,-223.188 341.5,-208.952 325.906,-198.647"/>
<polygon fill="midnightblue" stroke="midnightblue" points="327.752,-195.671 317.48,-193.078 323.893,-201.511 327.752,-195.671"/>
</g>
<!-- Node7 -->
<g id="node7" class="node"><title>Node7</title>
<g id="a_node7"><a xlink:href="../../d1/d4e/_geometry_8h.html" target="_top" xlink:title="Geometry.h">
<polygon fill="white" stroke="black" points="354,-112.5 354,-131.5 423,-131.5 423,-112.5 354,-112.5"/>
<text text-anchor="middle" x="388.5" y="-119.5" font-family="Helvetica,sans-Serif" font-size="10.00">Geometry.h</text>
</a>
</g>
</g>
<!-- Node1&#45;&gt;Node7 -->
<g id="edge6" class="edge"><title>Node1&#45;&gt;Node7</title>
<path fill="none" stroke="midnightblue" d="M397.305,-235.387C389.441,-224.889 381.545,-212.095 377.5,-199 371.554,-179.75 376.462,-156.742 381.48,-141.122"/>
<polygon fill="midnightblue" stroke="midnightblue" points="384.805,-142.22 384.841,-131.625 378.205,-139.885 384.805,-142.22"/>
</g>
<!-- Node15 -->
<g id="node15" class="node"><title>Node15</title>
<g id="a_node15"><a xlink:href="../../d6/d9b/_functions_8h.html" target="_top" xlink:title="Function declarations. ">
<polygon fill="white" stroke="black" points="386,-174 386,-193 453,-193 453,-174 386,-174"/>
<text text-anchor="middle" x="419.5" y="-181" font-family="Helvetica,sans-Serif" font-size="10.00">Functions.h</text>
</a>
</g>
</g>
<!-- Node1&#45;&gt;Node15 -->
<g id="edge14" class="edge"><title>Node1&#45;&gt;Node15</title>
<path fill="none" stroke="midnightblue" d="M419.5,-235.193C419.5,-224.765 419.5,-212.896 419.5,-203.266"/>
<polygon fill="midnightblue" stroke="midnightblue" points="423,-203.209 419.5,-193.209 416,-203.209 423,-203.209"/>
</g>
<!-- Node16 -->
<g id="node16" class="node"><title>Node16</title>
<g id="a_node16"><a xlink:href="../../d6/d1b/_gauss_quad_param_8h.html" target="_top" xlink:title="GaussQuadParam.h">
<polygon fill="white" stroke="black" points="471,-174 471,-193 580,-193 580,-174 471,-174"/>
<text text-anchor="middle" x="525.5" y="-181" font-family="Helvetica,sans-Serif" font-size="10.00">GaussQuadParam.h</text>
</a>
</g>
</g>
<!-- Node1&#45;&gt;Node16 -->
<g id="edge16" class="edge"><title>Node1&#45;&gt;Node16</title>
<path fill="none" stroke="midnightblue" d="M454.502,-235.404C471.282,-223.374 490.792,-209.385 505.11,-199.12"/>
<polygon fill="midnightblue" stroke="midnightblue" points="507.195,-201.931 513.282,-193.26 503.116,-196.242 507.195,-201.931"/>
</g>
<!-- Node17 -->
<g id="node17" class="node"><title>Node17</title>
<polygon fill="white" stroke="#bfbfbf" points="598,-168.5 598,-198.5 759,-198.5 759,-168.5 598,-168.5"/>
<text text-anchor="start" x="606" y="-186.5" font-family="Helvetica,sans-Serif" font-size="10.00">../lib/Eigen_3.2.6</text>
<text text-anchor="middle" x="678.5" y="-175.5" font-family="Helvetica,sans-Serif" font-size="10.00">/unsupported/Eigen/SparseExtra</text>
</g>
<!-- Node1&#45;&gt;Node17 -->
<g id="edge17" class="edge"><title>Node1&#45;&gt;Node17</title>
<path fill="none" stroke="midnightblue" d="M505.024,-235.404C542.977,-224.268 586.647,-211.453 620.677,-201.467"/>
<polygon fill="midnightblue" stroke="midnightblue" points="621.849,-204.771 630.458,-198.597 619.878,-198.054 621.849,-204.771"/>
</g>
<!-- Node18 -->
<g id="node18" class="node"><title>Node18</title>
<polygon fill="white" stroke="#bfbfbf" points="777,-174 777,-193 896,-193 896,-174 777,-174"/>
<text text-anchor="middle" x="836.5" y="-181" font-family="Helvetica,sans-Serif" font-size="10.00">Eigen/UmfPackSupport</text>
</g>
<!-- Node1&#45;&gt;Node18 -->
<g id="edge18" class="edge"><title>Node1&#45;&gt;Node18</title>
<path fill="none" stroke="midnightblue" d="M513.728,-244.831C584.055,-232.91 682.444,-215.752 768.5,-199 774.72,-197.789 781.249,-196.465 787.699,-195.125"/>
<polygon fill="midnightblue" stroke="midnightblue" points="788.646,-198.503 797.712,-193.021 787.206,-191.652 788.646,-198.503"/>
</g>
<!-- Node19 -->
<g id="node19" class="node"><title>Node19</title>
<polygon fill="white" stroke="#bfbfbf" points="914.5,-174 914.5,-193 972.5,-193 972.5,-174 914.5,-174"/>
<text text-anchor="middle" x="943.5" y="-181" font-family="Helvetica,sans-Serif" font-size="10.00">arcomp.h</text>
</g>
<!-- Node1&#45;&gt;Node19 -->
<g id="edge19" class="edge"><title>Node1&#45;&gt;Node19</title>
<path fill="none" stroke="midnightblue" d="M513.895,-255.242C612.727,-248.189 771.844,-232.446 905.5,-199 908.326,-198.293 911.227,-197.437 914.107,-196.499"/>
<polygon fill="midnightblue" stroke="midnightblue" points="915.428,-199.744 923.672,-193.089 913.077,-193.151 915.428,-199.744"/>
</g>
<!-- Node20 -->
<g id="node20" class="node"><title>Node20</title>
<polygon fill="white" stroke="#bfbfbf" points="991,-174 991,-193 1052,-193 1052,-174 991,-174"/>
<text text-anchor="middle" x="1021.5" y="-181" font-family="Helvetica,sans-Serif" font-size="10.00">arrgsym.h</text>
</g>
<!-- Node1&#45;&gt;Node20 -->
<g id="edge20" class="edge"><title>Node1&#45;&gt;Node20</title>
<path fill="none" stroke="midnightblue" d="M513.626,-257.056C626.188,-251.371 819.691,-236.61 981.5,-199 984.567,-198.287 987.721,-197.41 990.849,-196.442"/>
<polygon fill="midnightblue" stroke="midnightblue" points="992.262,-199.659 1000.61,-193.136 990.016,-193.029 992.262,-199.659"/>
</g>
<!-- Node21 -->
<g id="node21" class="node"><title>Node21</title>
<polygon fill="white" stroke="#bfbfbf" points="1070.5,-174 1070.5,-193 1136.5,-193 1136.5,-174 1070.5,-174"/>
<text text-anchor="middle" x="1103.5" y="-181" font-family="Helvetica,sans-Serif" font-size="10.00">arrgnsym.h</text>
</g>
<!-- Node1&#45;&gt;Node21 -->
<g id="edge21" class="edge"><title>Node1&#45;&gt;Node21</title>
<path fill="none" stroke="midnightblue" d="M513.597,-258.44C639.668,-254.106 869.75,-240.666 1061.5,-199 1065,-198.24 1068.61,-197.279 1072.17,-196.215"/>
<polygon fill="midnightblue" stroke="midnightblue" points="1073.55,-199.446 1081.98,-193.024 1071.39,-192.79 1073.55,-199.446"/>
</g>
<!-- Node8 -->
<g id="node8" class="node"><title>Node8</title>
<g id="a_node8"><a xlink:href="../../de/d4c/_misc_8h.html" target="_top" xlink:title="Auxiliary structures. ">
<polygon fill="white" stroke="black" points="366,-56.5 366,-75.5 411,-75.5 411,-56.5 366,-56.5"/>
<text text-anchor="middle" x="388.5" y="-63.5" font-family="Helvetica,sans-Serif" font-size="10.00">Misc.h</text>
</a>
</g>
</g>
<!-- Node7&#45;&gt;Node8 -->
<g id="edge7" class="edge"><title>Node7&#45;&gt;Node8</title>
<path fill="none" stroke="midnightblue" d="M388.5,-112.083C388.5,-105.006 388.5,-94.8611 388.5,-85.9865"/>
<polygon fill="midnightblue" stroke="midnightblue" points="392,-85.751 388.5,-75.7511 385,-85.7511 392,-85.751"/>
</g>
<!-- Node9 -->
<g id="node9" class="node"><title>Node9</title>
<polygon fill="white" stroke="#bfbfbf" points="172,-0.5 172,-19.5 213,-19.5 213,-0.5 172,-0.5"/>
<text text-anchor="middle" x="192.5" y="-7.5" font-family="Helvetica,sans-Serif" font-size="10.00">string</text>
</g>
<!-- Node8&#45;&gt;Node9 -->
<g id="edge8" class="edge"><title>Node8&#45;&gt;Node9</title>
<path fill="none" stroke="midnightblue" d="M365.893,-59.0766C335.648,-51.1079 280.118,-36.324 223.051,-20.099"/>
<polygon fill="midnightblue" stroke="midnightblue" points="223.712,-16.6481 213.136,-17.2696 221.791,-23.3794 223.712,-16.6481"/>
</g>
<!-- Node10 -->
<g id="node10" class="node"><title>Node10</title>
<polygon fill="white" stroke="#bfbfbf" points="231,-0.5 231,-19.5 286,-19.5 286,-0.5 231,-0.5"/>
<text text-anchor="middle" x="258.5" y="-7.5" font-family="Helvetica,sans-Serif" font-size="10.00">complex</text>
</g>
<!-- Node8&#45;&gt;Node10 -->
<g id="edge9" class="edge"><title>Node8&#45;&gt;Node10</title>
<path fill="none" stroke="midnightblue" d="M367.901,-56.4435C346.507,-47.5566 312.819,-33.5632 288.476,-23.4514"/>
<polygon fill="midnightblue" stroke="midnightblue" points="289.58,-20.1203 279.003,-19.5164 286.895,-26.5848 289.58,-20.1203"/>
</g>
<!-- Node11 -->
<g id="node11" class="node"><title>Node11</title>
<polygon fill="white" stroke="#bfbfbf" points="304,-0.5 304,-19.5 379,-19.5 379,-0.5 304,-0.5"/>
<text text-anchor="middle" x="341.5" y="-7.5" font-family="Helvetica,sans-Serif" font-size="10.00">Eigen/Dense</text>
</g>
<!-- Node8&#45;&gt;Node11 -->
<g id="edge10" class="edge"><title>Node8&#45;&gt;Node11</title>
<path fill="none" stroke="midnightblue" d="M380.739,-56.083C373.963,-48.2982 363.957,-36.8015 355.745,-27.3665"/>
<polygon fill="midnightblue" stroke="midnightblue" points="358.322,-24.9963 349.117,-19.7511 353.042,-29.592 358.322,-24.9963"/>
</g>
<!-- Node12 -->
<g id="node12" class="node"><title>Node12</title>
<polygon fill="white" stroke="#bfbfbf" points="397,-0.5 397,-19.5 474,-19.5 474,-0.5 397,-0.5"/>
<text text-anchor="middle" x="435.5" y="-7.5" font-family="Helvetica,sans-Serif" font-size="10.00">Eigen/Sparse</text>
</g>
<!-- Node8&#45;&gt;Node12 -->
<g id="edge11" class="edge"><title>Node8&#45;&gt;Node12</title>
<path fill="none" stroke="midnightblue" d="M396.261,-56.083C403.037,-48.2982 413.043,-36.8015 421.255,-27.3665"/>
<polygon fill="midnightblue" stroke="midnightblue" points="423.958,-29.592 427.883,-19.7511 418.678,-24.9963 423.958,-29.592"/>
</g>
<!-- Node13 -->
<g id="node13" class="node"><title>Node13</title>
<polygon fill="white" stroke="#bfbfbf" points="492.5,-0.5 492.5,-19.5 580.5,-19.5 580.5,-0.5 492.5,-0.5"/>
<text text-anchor="middle" x="536.5" y="-7.5" font-family="Helvetica,sans-Serif" font-size="10.00">Eigen/Cholesky</text>
</g>
<!-- Node8&#45;&gt;Node13 -->
<g id="edge12" class="edge"><title>Node8&#45;&gt;Node13</title>
<path fill="none" stroke="midnightblue" d="M411.301,-56.6808C435.962,-47.6829 475.503,-33.2558 503.544,-23.0247"/>
<polygon fill="midnightblue" stroke="midnightblue" points="504.745,-26.3122 512.939,-19.5966 502.345,-19.7363 504.745,-26.3122"/>
</g>
<!-- Node14 -->
<g id="node14" class="node"><title>Node14</title>
<polygon fill="white" stroke="#bfbfbf" points="599,-0.5 599,-19.5 700,-19.5 700,-0.5 599,-0.5"/>
<text text-anchor="middle" x="649.5" y="-7.5" font-family="Helvetica,sans-Serif" font-size="10.00">Eigen/Eigenvalues</text>
</g>
<!-- Node8&#45;&gt;Node14 -->
<g id="edge13" class="edge"><title>Node8&#45;&gt;Node14</title>
<path fill="none" stroke="midnightblue" d="M411.205,-60.3023C452.623,-51.7332 541.388,-33.3681 598.116,-21.6312"/>
<polygon fill="midnightblue" stroke="midnightblue" points="598.887,-25.0459 607.97,-19.5924 597.468,-18.1911 598.887,-25.0459"/>
</g>
<!-- Node15&#45;&gt;Node7 -->
<g id="edge15" class="edge"><title>Node15&#45;&gt;Node7</title>
<path fill="none" stroke="midnightblue" d="M415.058,-173.975C410.547,-165.315 403.426,-151.649 397.693,-140.645"/>
<polygon fill="midnightblue" stroke="midnightblue" points="400.658,-138.76 392.933,-131.509 394.45,-141.995 400.658,-138.76"/>
</g>
</g>
</svg>
