<?xml version="1.0" encoding="UTF-8" standalone="no"?>
<!DOCTYPE svg PUBLIC "-//W3C//DTD SVG 1.1//EN"
 "http://www.w3.org/Graphics/SVG/1.1/DTD/svg11.dtd">
<!-- Generated by graphviz version 2.38.0 (20140413.2041)
 -->
<!-- Title: /home/solid/secondary/lebedev/bin/Master_Thesis_Num/FEM_EigenvalueDecomposition/Geometry.cpp Pages: 1 -->
<svg width="536pt" height="229pt"
 viewBox="0.00 0.00 536.00 229.00" xmlns="http://www.w3.org/2000/svg" xmlns:xlink="http://www.w3.org/1999/xlink">
<g id="graph0" class="graph" transform="scale(1 1) rotate(0) translate(4 225)">
<title>/home/solid/secondary/lebedev/bin/Master_Thesis_Num/FEM_EigenvalueDecomposition/Geometry.cpp</title>
<polygon fill="white" stroke="none" points="-4,4 -4,-225 532,-225 532,4 -4,4"/>
<!-- Node1 -->
<g id="node1" class="node"><title>Node1</title>
<polygon fill="#bfbfbf" stroke="black" points="122.5,-168.5 122.5,-220.5 310.5,-220.5 310.5,-168.5 122.5,-168.5"/>
<text text-anchor="start" x="130.5" y="-208.5" font-family="Helvetica,sans-Serif" font-size="10.00">/home/solid/secondary</text>
<text text-anchor="start" x="130.5" y="-197.5" font-family="Helvetica,sans-Serif" font-size="10.00">/lebedev/bin/Master_Thesis</text>
<text text-anchor="start" x="130.5" y="-186.5" font-family="Helvetica,sans-Serif" font-size="10.00">_Num/FEM_EigenvalueDecomposition</text>
<text text-anchor="middle" x="216.5" y="-175.5" font-family="Helvetica,sans-Serif" font-size="10.00">/Geometry.cpp</text>
</g>
<!-- Node2 -->
<g id="node2" class="node"><title>Node2</title>
<g id="a_node2"><a xlink:href="../../d1/d4e/_geometry_8h.html" target="_top" xlink:title="Geometry.h">
<polygon fill="white" stroke="black" points="182,-112.5 182,-131.5 251,-131.5 251,-112.5 182,-112.5"/>
<text text-anchor="middle" x="216.5" y="-119.5" font-family="Helvetica,sans-Serif" font-size="10.00">Geometry.h</text>
</a>
</g>
</g>
<!-- Node1&#45;&gt;Node2 -->
<g id="edge1" class="edge"><title>Node1&#45;&gt;Node2</title>
<path fill="none" stroke="midnightblue" d="M216.5,-168.446C216.5,-159.73 216.5,-150.104 216.5,-141.964"/>
<polygon fill="midnightblue" stroke="midnightblue" points="220,-141.695 216.5,-131.695 213,-141.696 220,-141.695"/>
</g>
<!-- Node3 -->
<g id="node3" class="node"><title>Node3</title>
<g id="a_node3"><a xlink:href="../../de/d4c/_misc_8h.html" target="_top" xlink:title="Auxiliary structures. ">
<polygon fill="white" stroke="black" points="194,-56.5 194,-75.5 239,-75.5 239,-56.5 194,-56.5"/>
<text text-anchor="middle" x="216.5" y="-63.5" font-family="Helvetica,sans-Serif" font-size="10.00">Misc.h</text>
</a>
</g>
</g>
<!-- Node2&#45;&gt;Node3 -->
<g id="edge2" class="edge"><title>Node2&#45;&gt;Node3</title>
<path fill="none" stroke="midnightblue" d="M216.5,-112.083C216.5,-105.006 216.5,-94.8611 216.5,-85.9865"/>
<polygon fill="midnightblue" stroke="midnightblue" points="220,-85.751 216.5,-75.7511 213,-85.7511 220,-85.751"/>
</g>
<!-- Node4 -->
<g id="node4" class="node"><title>Node4</title>
<polygon fill="white" stroke="#bfbfbf" points="0,-0.5 0,-19.5 41,-19.5 41,-0.5 0,-0.5"/>
<text text-anchor="middle" x="20.5" y="-7.5" font-family="Helvetica,sans-Serif" font-size="10.00">string</text>
</g>
<!-- Node3&#45;&gt;Node4 -->
<g id="edge3" class="edge"><title>Node3&#45;&gt;Node4</title>
<path fill="none" stroke="midnightblue" d="M193.735,-59.1563C163.282,-51.2771 107.388,-36.598 50.8757,-20.3266"/>
<polygon fill="midnightblue" stroke="midnightblue" points="51.6451,-16.9057 41.0663,-17.4876 49.6991,-23.6297 51.6451,-16.9057"/>
</g>
<!-- Node5 -->
<g id="node5" class="node"><title>Node5</title>
<polygon fill="white" stroke="#bfbfbf" points="59,-0.5 59,-19.5 114,-19.5 114,-0.5 59,-0.5"/>
<text text-anchor="middle" x="86.5" y="-7.5" font-family="Helvetica,sans-Serif" font-size="10.00">complex</text>
</g>
<!-- Node3&#45;&gt;Node5 -->
<g id="edge4" class="edge"><title>Node3&#45;&gt;Node5</title>
<path fill="none" stroke="midnightblue" d="M195.901,-56.4435C174.507,-47.5566 140.819,-33.5632 116.476,-23.4514"/>
<polygon fill="midnightblue" stroke="midnightblue" points="117.58,-20.1203 107.003,-19.5164 114.895,-26.5848 117.58,-20.1203"/>
</g>
<!-- Node6 -->
<g id="node6" class="node"><title>Node6</title>
<polygon fill="white" stroke="#bfbfbf" points="132,-0.5 132,-19.5 207,-19.5 207,-0.5 132,-0.5"/>
<text text-anchor="middle" x="169.5" y="-7.5" font-family="Helvetica,sans-Serif" font-size="10.00">Eigen/Dense</text>
</g>
<!-- Node3&#45;&gt;Node6 -->
<g id="edge5" class="edge"><title>Node3&#45;&gt;Node6</title>
<path fill="none" stroke="midnightblue" d="M208.739,-56.083C201.963,-48.2982 191.957,-36.8015 183.745,-27.3665"/>
<polygon fill="midnightblue" stroke="midnightblue" points="186.322,-24.9963 177.117,-19.7511 181.042,-29.592 186.322,-24.9963"/>
</g>
<!-- Node7 -->
<g id="node7" class="node"><title>Node7</title>
<polygon fill="white" stroke="#bfbfbf" points="225,-0.5 225,-19.5 302,-19.5 302,-0.5 225,-0.5"/>
<text text-anchor="middle" x="263.5" y="-7.5" font-family="Helvetica,sans-Serif" font-size="10.00">Eigen/Sparse</text>
</g>
<!-- Node3&#45;&gt;Node7 -->
<g id="edge6" class="edge"><title>Node3&#45;&gt;Node7</title>
<path fill="none" stroke="midnightblue" d="M224.261,-56.083C231.037,-48.2982 241.043,-36.8015 249.255,-27.3665"/>
<polygon fill="midnightblue" stroke="midnightblue" points="251.958,-29.592 255.883,-19.7511 246.678,-24.9963 251.958,-29.592"/>
</g>
<!-- Node8 -->
<g id="node8" class="node"><title>Node8</title>
<polygon fill="white" stroke="#bfbfbf" points="320.5,-0.5 320.5,-19.5 408.5,-19.5 408.5,-0.5 320.5,-0.5"/>
<text text-anchor="middle" x="364.5" y="-7.5" font-family="Helvetica,sans-Serif" font-size="10.00">Eigen/Cholesky</text>
</g>
<!-- Node3&#45;&gt;Node8 -->
<g id="edge7" class="edge"><title>Node3&#45;&gt;Node8</title>
<path fill="none" stroke="midnightblue" d="M239.301,-56.6808C263.962,-47.6829 303.503,-33.2558 331.544,-23.0247"/>
<polygon fill="midnightblue" stroke="midnightblue" points="332.745,-26.3122 340.939,-19.5966 330.345,-19.7363 332.745,-26.3122"/>
</g>
<!-- Node9 -->
<g id="node9" class="node"><title>Node9</title>
<polygon fill="white" stroke="#bfbfbf" points="427,-0.5 427,-19.5 528,-19.5 528,-0.5 427,-0.5"/>
<text text-anchor="middle" x="477.5" y="-7.5" font-family="Helvetica,sans-Serif" font-size="10.00">Eigen/Eigenvalues</text>
</g>
<!-- Node3&#45;&gt;Node9 -->
<g id="edge8" class="edge"><title>Node3&#45;&gt;Node9</title>
<path fill="none" stroke="midnightblue" d="M239.205,-60.3023C280.623,-51.7332 369.388,-33.3681 426.116,-21.6312"/>
<polygon fill="midnightblue" stroke="midnightblue" points="426.887,-25.0459 435.97,-19.5924 425.468,-18.1911 426.887,-25.0459"/>
</g>
</g>
</svg>
