<?xml version="1.0" encoding="UTF-8" standalone="no"?>
<!DOCTYPE svg PUBLIC "-//W3C//DTD SVG 1.1//EN"
 "http://www.w3.org/Graphics/SVG/1.1/DTD/svg11.dtd">
<!-- Generated by graphviz version 2.38.0 (20140413.2041)
 -->
<!-- Title: /home/solid/secondary/lebedev/bin/Master_Thesis_Num/FEM_EigenvalueDecomposition/Mesh.h Pages: 1 -->
<svg width="536pt" height="229pt"
 viewBox="0.00 0.00 536.00 229.00" xmlns="http://www.w3.org/2000/svg" xmlns:xlink="http://www.w3.org/1999/xlink">
<g id="graph0" class="graph" transform="scale(1 1) rotate(0) translate(4 225)">
<title>/home/solid/secondary/lebedev/bin/Master_Thesis_Num/FEM_EigenvalueDecomposition/Mesh.h</title>
<polygon fill="white" stroke="none" points="-4,4 -4,-225 532,-225 532,4 -4,4"/>
<!-- Node1 -->
<g id="node1" class="node"><title>Node1</title>
<polygon fill="#bfbfbf" stroke="black" points="74,-168.5 74,-220.5 265,-220.5 265,-168.5 74,-168.5"/>
<text text-anchor="start" x="82" y="-208.5" font-family="Helvetica,sans-Serif" font-size="10.00">/home/solid/secondary</text>
<text text-anchor="start" x="82" y="-197.5" font-family="Helvetica,sans-Serif" font-size="10.00">/lebedev/bin/Master_Thesis</text>
<text text-anchor="start" x="82" y="-186.5" font-family="Helvetica,sans-Serif" font-size="10.00">_Num/FEM_EigenvalueDecomposition/</text>
<text text-anchor="middle" x="169.5" y="-175.5" font-family="Helvetica,sans-Serif" font-size="10.00">Mesh.h</text>
</g>
<!-- Node2 -->
<g id="node2" class="node"><title>Node2</title>
<g id="a_node2"><a xlink:href="../../de/d4c/_misc_8h.html" target="_top" xlink:title="Auxiliary structures. ">
<polygon fill="white" stroke="black" points="147,-56.5 147,-75.5 192,-75.5 192,-56.5 147,-56.5"/>
<text text-anchor="middle" x="169.5" y="-63.5" font-family="Helvetica,sans-Serif" font-size="10.00">Misc.h</text>
</a>
</g>
</g>
<!-- Node1&#45;&gt;Node2 -->
<g id="edge1" class="edge"><title>Node1&#45;&gt;Node2</title>
<path fill="none" stroke="midnightblue" d="M146.03,-168.251C137.871,-157.83 129.712,-145.126 125.5,-132 122.784,-123.536 122.145,-120.231 125.5,-112 130.3,-100.225 139.829,-89.8564 148.795,-82.0486"/>
<polygon fill="midnightblue" stroke="midnightblue" points="151.15,-84.6448 156.719,-75.6314 146.745,-79.2048 151.15,-84.6448"/>
</g>
<!-- Node3 -->
<g id="node3" class="node"><title>Node3</title>
<polygon fill="white" stroke="#bfbfbf" points="0,-0.5 0,-19.5 41,-19.5 41,-0.5 0,-0.5"/>
<text text-anchor="middle" x="20.5" y="-7.5" font-family="Helvetica,sans-Serif" font-size="10.00">string</text>
</g>
<!-- Node1&#45;&gt;Node3 -->
<g id="edge12" class="edge"><title>Node1&#45;&gt;Node3</title>
<path fill="none" stroke="midnightblue" d="M148.782,-168.124C117.791,-130.166 60.2143,-59.6433 34.0575,-27.6057"/>
<polygon fill="midnightblue" stroke="midnightblue" points="36.5969,-25.1817 27.5614,-19.649 31.1745,-29.6087 36.5969,-25.1817"/>
</g>
<!-- Node9 -->
<g id="node9" class="node"><title>Node9</title>
<g id="a_node9"><a xlink:href="../../d1/d4e/_geometry_8h.html" target="_top" xlink:title="Geometry.h">
<polygon fill="white" stroke="black" points="135,-112.5 135,-131.5 204,-131.5 204,-112.5 135,-112.5"/>
<text text-anchor="middle" x="169.5" y="-119.5" font-family="Helvetica,sans-Serif" font-size="10.00">Geometry.h</text>
</a>
</g>
</g>
<!-- Node1&#45;&gt;Node9 -->
<g id="edge8" class="edge"><title>Node1&#45;&gt;Node9</title>
<path fill="none" stroke="midnightblue" d="M169.5,-168.446C169.5,-159.73 169.5,-150.104 169.5,-141.964"/>
<polygon fill="midnightblue" stroke="midnightblue" points="173,-141.695 169.5,-131.695 166,-141.696 173,-141.695"/>
</g>
<!-- Node10 -->
<g id="node10" class="node"><title>Node10</title>
<polygon fill="white" stroke="#bfbfbf" points="222,-112.5 222,-131.5 287,-131.5 287,-112.5 222,-112.5"/>
<text text-anchor="middle" x="254.5" y="-119.5" font-family="Helvetica,sans-Serif" font-size="10.00">mgl2/mgl.h</text>
</g>
<!-- Node1&#45;&gt;Node10 -->
<g id="edge10" class="edge"><title>Node1&#45;&gt;Node10</title>
<path fill="none" stroke="midnightblue" d="M199.707,-168.446C211.906,-158.328 225.584,-146.983 236.222,-138.16"/>
<polygon fill="midnightblue" stroke="midnightblue" points="238.553,-140.774 244.016,-131.695 234.085,-135.386 238.553,-140.774"/>
</g>
<!-- Node11 -->
<g id="node11" class="node"><title>Node11</title>
<polygon fill="white" stroke="#bfbfbf" points="305,-112.5 305,-131.5 362,-131.5 362,-112.5 305,-112.5"/>
<text text-anchor="middle" x="333.5" y="-119.5" font-family="Helvetica,sans-Serif" font-size="10.00">mgl2/qt.h</text>
</g>
<!-- Node1&#45;&gt;Node11 -->
<g id="edge11" class="edge"><title>Node1&#45;&gt;Node11</title>
<path fill="none" stroke="midnightblue" d="M227.782,-168.446C253.692,-157.308 283.06,-144.683 304.255,-135.572"/>
<polygon fill="midnightblue" stroke="midnightblue" points="305.859,-138.692 313.664,-131.527 303.095,-132.261 305.859,-138.692"/>
</g>
<!-- Node2&#45;&gt;Node3 -->
<g id="edge2" class="edge"><title>Node2&#45;&gt;Node3</title>
<path fill="none" stroke="midnightblue" d="M146.87,-56.7986C121.236,-47.5083 79.3365,-32.3233 50.8729,-22.0076"/>
<polygon fill="midnightblue" stroke="midnightblue" points="52.0082,-18.6964 41.414,-18.5796 49.623,-25.2775 52.0082,-18.6964"/>
</g>
<!-- Node4 -->
<g id="node4" class="node"><title>Node4</title>
<polygon fill="white" stroke="#bfbfbf" points="59,-0.5 59,-19.5 114,-19.5 114,-0.5 59,-0.5"/>
<text text-anchor="middle" x="86.5" y="-7.5" font-family="Helvetica,sans-Serif" font-size="10.00">complex</text>
</g>
<!-- Node2&#45;&gt;Node4 -->
<g id="edge3" class="edge"><title>Node2&#45;&gt;Node4</title>
<path fill="none" stroke="midnightblue" d="M156.165,-56.324C143.338,-47.979 123.715,-35.2122 108.56,-25.3524"/>
<polygon fill="midnightblue" stroke="midnightblue" points="110.093,-22.1742 99.8023,-19.6545 106.276,-28.0417 110.093,-22.1742"/>
</g>
<!-- Node5 -->
<g id="node5" class="node"><title>Node5</title>
<polygon fill="white" stroke="#bfbfbf" points="132,-0.5 132,-19.5 207,-19.5 207,-0.5 132,-0.5"/>
<text text-anchor="middle" x="169.5" y="-7.5" font-family="Helvetica,sans-Serif" font-size="10.00">Eigen/Dense</text>
</g>
<!-- Node2&#45;&gt;Node5 -->
<g id="edge4" class="edge"><title>Node2&#45;&gt;Node5</title>
<path fill="none" stroke="midnightblue" d="M169.5,-56.083C169.5,-49.0059 169.5,-38.8611 169.5,-29.9865"/>
<polygon fill="midnightblue" stroke="midnightblue" points="173,-29.751 169.5,-19.7511 166,-29.7511 173,-29.751"/>
</g>
<!-- Node6 -->
<g id="node6" class="node"><title>Node6</title>
<polygon fill="white" stroke="#bfbfbf" points="225,-0.5 225,-19.5 302,-19.5 302,-0.5 225,-0.5"/>
<text text-anchor="middle" x="263.5" y="-7.5" font-family="Helvetica,sans-Serif" font-size="10.00">Eigen/Sparse</text>
</g>
<!-- Node2&#45;&gt;Node6 -->
<g id="edge5" class="edge"><title>Node2&#45;&gt;Node6</title>
<path fill="none" stroke="midnightblue" d="M184.603,-56.324C199.403,-47.8215 222.194,-34.7288 239.482,-24.7975"/>
<polygon fill="midnightblue" stroke="midnightblue" points="241.507,-27.6707 248.435,-19.6545 238.02,-21.6009 241.507,-27.6707"/>
</g>
<!-- Node7 -->
<g id="node7" class="node"><title>Node7</title>
<polygon fill="white" stroke="#bfbfbf" points="320.5,-0.5 320.5,-19.5 408.5,-19.5 408.5,-0.5 320.5,-0.5"/>
<text text-anchor="middle" x="364.5" y="-7.5" font-family="Helvetica,sans-Serif" font-size="10.00">Eigen/Cholesky</text>
</g>
<!-- Node2&#45;&gt;Node7 -->
<g id="edge6" class="edge"><title>Node2&#45;&gt;Node7</title>
<path fill="none" stroke="midnightblue" d="M192.251,-58.6998C224.482,-49.7743 283.949,-33.3066 323.866,-22.2525"/>
<polygon fill="midnightblue" stroke="midnightblue" points="324.861,-25.6086 333.565,-19.5667 322.993,-18.8625 324.861,-25.6086"/>
</g>
<!-- Node8 -->
<g id="node8" class="node"><title>Node8</title>
<polygon fill="white" stroke="#bfbfbf" points="427,-0.5 427,-19.5 528,-19.5 528,-0.5 427,-0.5"/>
<text text-anchor="middle" x="477.5" y="-7.5" font-family="Helvetica,sans-Serif" font-size="10.00">Eigen/Eigenvalues</text>
</g>
<!-- Node2&#45;&gt;Node8 -->
<g id="edge7" class="edge"><title>Node2&#45;&gt;Node8</title>
<path fill="none" stroke="midnightblue" d="M192.148,-61.0293C239.388,-52.7469 349.746,-33.3984 418.545,-21.3362"/>
<polygon fill="midnightblue" stroke="midnightblue" points="419.553,-24.713 428.798,-19.5386 418.344,-17.8182 419.553,-24.713"/>
</g>
<!-- Node9&#45;&gt;Node2 -->
<g id="edge9" class="edge"><title>Node9&#45;&gt;Node2</title>
<path fill="none" stroke="midnightblue" d="M169.5,-112.083C169.5,-105.006 169.5,-94.8611 169.5,-85.9865"/>
<polygon fill="midnightblue" stroke="midnightblue" points="173,-85.751 169.5,-75.7511 166,-85.7511 173,-85.751"/>
</g>
</g>
</svg>
