<?xml version="1.0" encoding="UTF-8" standalone="no"?>
<!DOCTYPE svg PUBLIC "-//W3C//DTD SVG 1.1//EN"
 "http://www.w3.org/Graphics/SVG/1.1/DTD/svg11.dtd">
<!-- Generated by graphviz version 2.38.0 (20140413.2041)
 -->
<!-- Title: TransportCheck.cpp Pages: 1 -->
<svg width="570pt" height="252pt"
 viewBox="0.00 0.00 570.00 252.00" xmlns="http://www.w3.org/2000/svg" xmlns:xlink="http://www.w3.org/1999/xlink">
<g id="graph0" class="graph" transform="scale(1 1) rotate(0) translate(4 248)">
<title>TransportCheck.cpp</title>
<polygon fill="white" stroke="none" points="-4,4 -4,-248 566,-248 566,4 -4,4"/>
<!-- Node1 -->
<g id="node1" class="node"><title>Node1</title>
<polygon fill="#bfbfbf" stroke="black" points="295,-224.5 295,-243.5 402,-243.5 402,-224.5 295,-224.5"/>
<text text-anchor="middle" x="348.5" y="-231.5" font-family="Helvetica,sans-Serif" font-size="10.00">TransportCheck.cpp</text>
</g>
<!-- Node2 -->
<g id="node2" class="node"><title>Node2</title>
<polygon fill="white" stroke="#bfbfbf" points="115,-168.5 115,-187.5 160,-187.5 160,-168.5 115,-168.5"/>
<text text-anchor="middle" x="137.5" y="-175.5" font-family="Helvetica,sans-Serif" font-size="10.00">cstdlib</text>
</g>
<!-- Node1&#45;&gt;Node2 -->
<g id="edge1" class="edge"><title>Node1&#45;&gt;Node2</title>
<path fill="none" stroke="midnightblue" d="M313.44,-224.492C279.275,-216.134 225.625,-202.83 169.894,-188.049"/>
<polygon fill="midnightblue" stroke="midnightblue" points="170.768,-184.66 160.204,-185.47 168.967,-191.425 170.768,-184.66"/>
</g>
<!-- Node3 -->
<g id="node3" class="node"><title>Node3</title>
<polygon fill="white" stroke="#bfbfbf" points="178.5,-168.5 178.5,-187.5 234.5,-187.5 234.5,-168.5 178.5,-168.5"/>
<text text-anchor="middle" x="206.5" y="-175.5" font-family="Helvetica,sans-Serif" font-size="10.00">iostream</text>
</g>
<!-- Node1&#45;&gt;Node3 -->
<g id="edge2" class="edge"><title>Node1&#45;&gt;Node3</title>
<path fill="none" stroke="midnightblue" d="M326,-224.444C302.423,-215.478 265.178,-201.314 238.536,-191.183"/>
<polygon fill="midnightblue" stroke="midnightblue" points="239.486,-187.8 228.895,-187.516 236.998,-194.342 239.486,-187.8"/>
</g>
<!-- Node4 -->
<g id="node4" class="node"><title>Node4</title>
<g id="a_node4"><a xlink:href="../../d3/d8b/Geometry_8h_source.html" target="_top" xlink:title="Geometry.h">
<polygon fill="white" stroke="black" points="260,-112.5 260,-131.5 329,-131.5 329,-112.5 260,-112.5"/>
<text text-anchor="middle" x="294.5" y="-119.5" font-family="Helvetica,sans-Serif" font-size="10.00">Geometry.h</text>
</a>
</g>
</g>
<!-- Node1&#45;&gt;Node4 -->
<g id="edge3" class="edge"><title>Node1&#45;&gt;Node4</title>
<path fill="none" stroke="midnightblue" d="M347.018,-224.197C344.614,-211.322 339.135,-186.842 329.5,-168 324.216,-157.667 316.429,-147.358 309.54,-139.219"/>
<polygon fill="midnightblue" stroke="midnightblue" points="312.071,-136.797 302.83,-131.614 306.821,-141.428 312.071,-136.797"/>
</g>
<!-- Node9 -->
<g id="node9" class="node"><title>Node9</title>
<polygon fill="white" stroke="#bfbfbf" points="344,-0.5 344,-19.5 421,-19.5 421,-0.5 344,-0.5"/>
<text text-anchor="middle" x="382.5" y="-7.5" font-family="Helvetica,sans-Serif" font-size="10.00">Eigen/Sparse</text>
</g>
<!-- Node1&#45;&gt;Node9 -->
<g id="edge14" class="edge"><title>Node1&#45;&gt;Node9</title>
<path fill="none" stroke="midnightblue" d="M349.833,-224.297C354.836,-191.633 372.566,-75.8661 379.597,-29.9573"/>
<polygon fill="midnightblue" stroke="midnightblue" points="383.085,-30.2984 381.139,-19.8837 376.166,-29.2386 383.085,-30.2984"/>
</g>
<!-- Node10 -->
<g id="node10" class="node"><title>Node10</title>
<polygon fill="white" stroke="#bfbfbf" points="439.5,-0.5 439.5,-19.5 527.5,-19.5 527.5,-0.5 439.5,-0.5"/>
<text text-anchor="middle" x="483.5" y="-7.5" font-family="Helvetica,sans-Serif" font-size="10.00">Eigen/Cholesky</text>
</g>
<!-- Node1&#45;&gt;Node10 -->
<g id="edge13" class="edge"><title>Node1&#45;&gt;Node10</title>
<path fill="none" stroke="midnightblue" d="M353.792,-224.297C373.866,-191.286 445.552,-73.4041 472.845,-28.522"/>
<polygon fill="midnightblue" stroke="midnightblue" points="475.892,-30.2465 478.098,-19.8837 469.911,-26.6094 475.892,-30.2465"/>
</g>
<!-- Node12 -->
<g id="node12" class="node"><title>Node12</title>
<g id="a_node12"><a xlink:href="../../d8/db9/Functions_8h.html" target="_top" xlink:title="Function declarations. ">
<polygon fill="white" stroke="black" points="253,-168.5 253,-187.5 320,-187.5 320,-168.5 253,-168.5"/>
<text text-anchor="middle" x="286.5" y="-175.5" font-family="Helvetica,sans-Serif" font-size="10.00">Functions.h</text>
</a>
</g>
</g>
<!-- Node1&#45;&gt;Node12 -->
<g id="edge11" class="edge"><title>Node1&#45;&gt;Node12</title>
<path fill="none" stroke="midnightblue" d="M338.539,-224.324C329.373,-216.341 315.563,-204.313 304.472,-194.653"/>
<polygon fill="midnightblue" stroke="midnightblue" points="306.482,-191.762 296.643,-187.834 301.885,-197.041 306.482,-191.762"/>
</g>
<!-- Node13 -->
<g id="node13" class="node"><title>Node13</title>
<g id="a_node13"><a xlink:href="../../db/d2d/GaussQuadParam_8h.html" target="_top" xlink:title="Parameters of the Gauss quadrature. ">
<polygon fill="white" stroke="black" points="453,-168.5 453,-187.5 562,-187.5 562,-168.5 453,-168.5"/>
<text text-anchor="middle" x="507.5" y="-175.5" font-family="Helvetica,sans-Serif" font-size="10.00">GaussQuadParam.h</text>
</a>
</g>
</g>
<!-- Node1&#45;&gt;Node13 -->
<g id="edge15" class="edge"><title>Node1&#45;&gt;Node13</title>
<path fill="none" stroke="midnightblue" d="M373.694,-224.444C400.443,-215.359 442.903,-200.939 472.805,-190.783"/>
<polygon fill="midnightblue" stroke="midnightblue" points="474.081,-194.046 482.424,-187.516 471.829,-187.418 474.081,-194.046"/>
</g>
<!-- Node5 -->
<g id="node5" class="node"><title>Node5</title>
<g id="a_node5"><a xlink:href="../../d5/d88/Misc_8h.html" target="_top" xlink:title="Auxiliary structures. ">
<polygon fill="white" stroke="black" points="272,-56.5 272,-75.5 317,-75.5 317,-56.5 272,-56.5"/>
<text text-anchor="middle" x="294.5" y="-63.5" font-family="Helvetica,sans-Serif" font-size="10.00">Misc.h</text>
</a>
</g>
</g>
<!-- Node4&#45;&gt;Node5 -->
<g id="edge4" class="edge"><title>Node4&#45;&gt;Node5</title>
<path fill="none" stroke="midnightblue" d="M294.5,-112.083C294.5,-105.006 294.5,-94.8611 294.5,-85.9865"/>
<polygon fill="midnightblue" stroke="midnightblue" points="298,-85.751 294.5,-75.7511 291,-85.7511 298,-85.751"/>
</g>
<!-- Node6 -->
<g id="node6" class="node"><title>Node6</title>
<polygon fill="white" stroke="#bfbfbf" points="212,-0.5 212,-19.5 253,-19.5 253,-0.5 212,-0.5"/>
<text text-anchor="middle" x="232.5" y="-7.5" font-family="Helvetica,sans-Serif" font-size="10.00">string</text>
</g>
<!-- Node5&#45;&gt;Node6 -->
<g id="edge5" class="edge"><title>Node5&#45;&gt;Node6</title>
<path fill="none" stroke="midnightblue" d="M284.539,-56.324C275.373,-48.3414 261.563,-36.3128 250.472,-26.6529"/>
<polygon fill="midnightblue" stroke="midnightblue" points="252.482,-23.7624 242.643,-19.8339 247.885,-29.041 252.482,-23.7624"/>
</g>
<!-- Node7 -->
<g id="node7" class="node"><title>Node7</title>
<polygon fill="white" stroke="#bfbfbf" points="271,-0.5 271,-19.5 326,-19.5 326,-0.5 271,-0.5"/>
<text text-anchor="middle" x="298.5" y="-7.5" font-family="Helvetica,sans-Serif" font-size="10.00">complex</text>
</g>
<!-- Node5&#45;&gt;Node7 -->
<g id="edge6" class="edge"><title>Node5&#45;&gt;Node7</title>
<path fill="none" stroke="midnightblue" d="M295.161,-56.083C295.685,-49.0059 296.436,-38.8611 297.094,-29.9865"/>
<polygon fill="midnightblue" stroke="midnightblue" points="300.603,-29.9823 297.852,-19.7511 293.623,-29.4652 300.603,-29.9823"/>
</g>
<!-- Node8 -->
<g id="node8" class="node"><title>Node8</title>
<polygon fill="white" stroke="#bfbfbf" points="0,-0.5 0,-19.5 75,-19.5 75,-0.5 0,-0.5"/>
<text text-anchor="middle" x="37.5" y="-7.5" font-family="Helvetica,sans-Serif" font-size="10.00">Eigen/Dense</text>
</g>
<!-- Node5&#45;&gt;Node8 -->
<g id="edge7" class="edge"><title>Node5&#45;&gt;Node8</title>
<path fill="none" stroke="midnightblue" d="M271.693,-60.2079C229.944,-51.4357 140.436,-32.6286 84.965,-20.9732"/>
<polygon fill="midnightblue" stroke="midnightblue" points="85.5286,-17.5153 75.0226,-18.8841 84.0892,-24.3657 85.5286,-17.5153"/>
</g>
<!-- Node5&#45;&gt;Node9 -->
<g id="edge8" class="edge"><title>Node5&#45;&gt;Node9</title>
<path fill="none" stroke="midnightblue" d="M308.639,-56.324C322.366,-47.9002 343.436,-34.9709 359.564,-25.0741"/>
<polygon fill="midnightblue" stroke="midnightblue" points="361.704,-27.8678 368.396,-19.6545 358.043,-21.9016 361.704,-27.8678"/>
</g>
<!-- Node5&#45;&gt;Node10 -->
<g id="edge9" class="edge"><title>Node5&#45;&gt;Node10</title>
<path fill="none" stroke="midnightblue" d="M317.298,-58.4863C348.572,-49.551 405.262,-33.3538 443.639,-22.389"/>
<polygon fill="midnightblue" stroke="midnightblue" points="444.803,-25.6963 453.457,-19.5837 442.88,-18.9657 444.803,-25.6963"/>
</g>
<!-- Node11 -->
<g id="node11" class="node"><title>Node11</title>
<polygon fill="white" stroke="#bfbfbf" points="93,-0.5 93,-19.5 194,-19.5 194,-0.5 93,-0.5"/>
<text text-anchor="middle" x="143.5" y="-7.5" font-family="Helvetica,sans-Serif" font-size="10.00">Eigen/Eigenvalues</text>
</g>
<!-- Node5&#45;&gt;Node11 -->
<g id="edge10" class="edge"><title>Node5&#45;&gt;Node11</title>
<path fill="none" stroke="midnightblue" d="M271.894,-56.9157C246.798,-47.9408 206.032,-33.3624 177.175,-23.0429"/>
<polygon fill="midnightblue" stroke="midnightblue" points="178.105,-19.6583 167.51,-19.5865 175.748,-26.2495 178.105,-19.6583"/>
</g>
<!-- Node12&#45;&gt;Node4 -->
<g id="edge12" class="edge"><title>Node12&#45;&gt;Node4</title>
<path fill="none" stroke="midnightblue" d="M287.821,-168.083C288.881,-160.927 290.406,-150.635 291.731,-141.691"/>
<polygon fill="midnightblue" stroke="midnightblue" points="295.2,-142.156 293.204,-131.751 288.276,-141.13 295.2,-142.156"/>
</g>
</g>
</svg>
