<?xml version="1.0" encoding="UTF-8" standalone="no"?>
<!DOCTYPE svg PUBLIC "-//W3C//DTD SVG 1.1//EN"
 "http://www.w3.org/Graphics/SVG/1.1/DTD/svg11.dtd">
<!-- Generated by graphviz version 2.38.0 (20140413.2041)
 -->
<!-- Title: P2_MeshTest.cpp Pages: 1 -->
<svg width="707pt" height="252pt"
 viewBox="0.00 0.00 706.50 252.00" xmlns="http://www.w3.org/2000/svg" xmlns:xlink="http://www.w3.org/1999/xlink">
<g id="graph0" class="graph" transform="scale(1 1) rotate(0) translate(4 248)">
<title>P2_MeshTest.cpp</title>
<polygon fill="white" stroke="none" points="-4,4 -4,-248 702.5,-248 702.5,4 -4,4"/>
<!-- Node1 -->
<g id="node1" class="node"><title>Node1</title>
<polygon fill="#bfbfbf" stroke="black" points="331.5,-224.5 331.5,-243.5 429.5,-243.5 429.5,-224.5 331.5,-224.5"/>
<text text-anchor="middle" x="380.5" y="-231.5" font-family="Helvetica,sans-Serif" font-size="10.00">P2_MeshTest.cpp</text>
</g>
<!-- Node2 -->
<g id="node2" class="node"><title>Node2</title>
<polygon fill="white" stroke="#bfbfbf" points="169,-168.5 169,-187.5 216,-187.5 216,-168.5 169,-168.5"/>
<text text-anchor="middle" x="192.5" y="-175.5" font-family="Helvetica,sans-Serif" font-size="10.00">stdlib.h</text>
</g>
<!-- Node1&#45;&gt;Node2 -->
<g id="edge1" class="edge"><title>Node1&#45;&gt;Node2</title>
<path fill="none" stroke="midnightblue" d="M350.711,-224.444C316.786,-214.699 261.488,-198.816 226.066,-188.641"/>
<polygon fill="midnightblue" stroke="midnightblue" points="226.775,-185.203 216.197,-185.807 224.842,-191.931 226.775,-185.203"/>
</g>
<!-- Node3 -->
<g id="node3" class="node"><title>Node3</title>
<polygon fill="white" stroke="#bfbfbf" points="234.5,-168.5 234.5,-187.5 290.5,-187.5 290.5,-168.5 234.5,-168.5"/>
<text text-anchor="middle" x="262.5" y="-175.5" font-family="Helvetica,sans-Serif" font-size="10.00">iostream</text>
</g>
<!-- Node1&#45;&gt;Node3 -->
<g id="edge2" class="edge"><title>Node1&#45;&gt;Node3</title>
<path fill="none" stroke="midnightblue" d="M361.803,-224.444C342.556,-215.636 312.348,-201.812 290.3,-191.722"/>
<polygon fill="midnightblue" stroke="midnightblue" points="291.66,-188.495 281.11,-187.516 288.747,-194.86 291.66,-188.495"/>
</g>
<!-- Node4 -->
<g id="node4" class="node"><title>Node4</title>
<g id="a_node4"><a xlink:href="../../d3/d8b/Geometry_8h_source.html" target="_top" xlink:title="Geometry.h">
<polygon fill="white" stroke="black" points="284,-112.5 284,-131.5 353,-131.5 353,-112.5 284,-112.5"/>
<text text-anchor="middle" x="318.5" y="-119.5" font-family="Helvetica,sans-Serif" font-size="10.00">Geometry.h</text>
</a>
</g>
</g>
<!-- Node1&#45;&gt;Node4 -->
<g id="edge3" class="edge"><title>Node1&#45;&gt;Node4</title>
<path fill="none" stroke="midnightblue" d="M370.104,-224.37C360.621,-215.982 346.852,-202.428 338.5,-188 330.182,-173.63 324.968,-155.434 321.957,-141.951"/>
<polygon fill="midnightblue" stroke="midnightblue" points="325.341,-141.028 319.926,-131.922 318.48,-142.417 325.341,-141.028"/>
</g>
<!-- Node8 -->
<g id="node8" class="node"><title>Node8</title>
<polygon fill="white" stroke="#bfbfbf" points="453,-0.5 453,-19.5 528,-19.5 528,-0.5 453,-0.5"/>
<text text-anchor="middle" x="490.5" y="-7.5" font-family="Helvetica,sans-Serif" font-size="10.00">Eigen/Dense</text>
</g>
<!-- Node1&#45;&gt;Node8 -->
<g id="edge14" class="edge"><title>Node1&#45;&gt;Node8</title>
<path fill="none" stroke="midnightblue" d="M390.944,-224.294C400.512,-215.852 414.513,-202.262 423.5,-188 456.863,-135.052 477.669,-62.912 486.135,-29.4483"/>
<polygon fill="midnightblue" stroke="midnightblue" points="489.552,-30.2119 488.534,-19.6661 482.753,-28.545 489.552,-30.2119"/>
</g>
<!-- Node12 -->
<g id="node12" class="node"><title>Node12</title>
<g id="a_node12"><a xlink:href="../../d8/db9/Functions_8h.html" target="_top" xlink:title="Function declarations. ">
<polygon fill="white" stroke="black" points="347,-168.5 347,-187.5 414,-187.5 414,-168.5 347,-168.5"/>
<text text-anchor="middle" x="380.5" y="-175.5" font-family="Helvetica,sans-Serif" font-size="10.00">Functions.h</text>
</a>
</g>
</g>
<!-- Node1&#45;&gt;Node12 -->
<g id="edge11" class="edge"><title>Node1&#45;&gt;Node12</title>
<path fill="none" stroke="midnightblue" d="M380.5,-224.083C380.5,-217.006 380.5,-206.861 380.5,-197.986"/>
<polygon fill="midnightblue" stroke="midnightblue" points="384,-197.751 380.5,-187.751 377,-197.751 384,-197.751"/>
</g>
<!-- Node13 -->
<g id="node13" class="node"><title>Node13</title>
<g id="a_node13"><a xlink:href="../../db/d2d/GaussQuadParam_8h.html" target="_top" xlink:title="Parameters of the Gauss quadrature. ">
<polygon fill="white" stroke="black" points="471,-168.5 471,-187.5 580,-187.5 580,-168.5 471,-168.5"/>
<text text-anchor="middle" x="525.5" y="-175.5" font-family="Helvetica,sans-Serif" font-size="10.00">GaussQuadParam.h</text>
</a>
</g>
</g>
<!-- Node1&#45;&gt;Node13 -->
<g id="edge13" class="edge"><title>Node1&#45;&gt;Node13</title>
<path fill="none" stroke="midnightblue" d="M403.476,-224.444C427.657,-215.438 465.918,-201.189 493.146,-191.049"/>
<polygon fill="midnightblue" stroke="midnightblue" points="494.482,-194.286 502.632,-187.516 492.039,-187.727 494.482,-194.286"/>
</g>
<!-- Node14 -->
<g id="node14" class="node"><title>Node14</title>
<polygon fill="white" stroke="#bfbfbf" points="598.5,-168.5 598.5,-187.5 698.5,-187.5 698.5,-168.5 598.5,-168.5"/>
<text text-anchor="middle" x="648.5" y="-175.5" font-family="Helvetica,sans-Serif" font-size="10.00">Eigen/SparseCore</text>
</g>
<!-- Node1&#45;&gt;Node14 -->
<g id="edge15" class="edge"><title>Node1&#45;&gt;Node14</title>
<path fill="none" stroke="midnightblue" d="M422.965,-224.444C469.913,-214.984 545.576,-199.738 596.154,-189.547"/>
<polygon fill="midnightblue" stroke="midnightblue" points="597.122,-192.923 606.233,-187.516 595.739,-186.061 597.122,-192.923"/>
</g>
<!-- Node5 -->
<g id="node5" class="node"><title>Node5</title>
<g id="a_node5"><a xlink:href="../../d5/d88/Misc_8h.html" target="_top" xlink:title="Auxiliary structures. ">
<polygon fill="white" stroke="black" points="249,-56.5 249,-75.5 294,-75.5 294,-56.5 249,-56.5"/>
<text text-anchor="middle" x="271.5" y="-63.5" font-family="Helvetica,sans-Serif" font-size="10.00">Misc.h</text>
</a>
</g>
</g>
<!-- Node4&#45;&gt;Node5 -->
<g id="edge4" class="edge"><title>Node4&#45;&gt;Node5</title>
<path fill="none" stroke="midnightblue" d="M310.739,-112.083C303.963,-104.298 293.957,-92.8015 285.745,-83.3665"/>
<polygon fill="midnightblue" stroke="midnightblue" points="288.322,-80.9963 279.117,-75.7511 283.042,-85.592 288.322,-80.9963"/>
</g>
<!-- Node6 -->
<g id="node6" class="node"><title>Node6</title>
<polygon fill="white" stroke="#bfbfbf" points="0,-0.5 0,-19.5 41,-19.5 41,-0.5 0,-0.5"/>
<text text-anchor="middle" x="20.5" y="-7.5" font-family="Helvetica,sans-Serif" font-size="10.00">string</text>
</g>
<!-- Node5&#45;&gt;Node6 -->
<g id="edge5" class="edge"><title>Node5&#45;&gt;Node6</title>
<path fill="none" stroke="midnightblue" d="M248.957,-61.207C210.306,-54.5385 128.751,-39.7498 50.9769,-20.1859"/>
<polygon fill="midnightblue" stroke="midnightblue" points="51.5766,-16.727 41.0221,-17.6497 49.8484,-23.5103 51.5766,-16.727"/>
</g>
<!-- Node7 -->
<g id="node7" class="node"><title>Node7</title>
<polygon fill="white" stroke="#bfbfbf" points="59,-0.5 59,-19.5 114,-19.5 114,-0.5 59,-0.5"/>
<text text-anchor="middle" x="86.5" y="-7.5" font-family="Helvetica,sans-Serif" font-size="10.00">complex</text>
</g>
<!-- Node5&#45;&gt;Node7 -->
<g id="edge6" class="edge"><title>Node5&#45;&gt;Node7</title>
<path fill="none" stroke="midnightblue" d="M248.815,-58.3785C217.771,-49.317 161.645,-32.9341 124.22,-22.0101"/>
<polygon fill="midnightblue" stroke="midnightblue" points="124.777,-18.5266 114.196,-19.0843 122.815,-25.2462 124.777,-18.5266"/>
</g>
<!-- Node5&#45;&gt;Node8 -->
<g id="edge7" class="edge"><title>Node5&#45;&gt;Node8</title>
<path fill="none" stroke="midnightblue" d="M294.112,-59.4244C329.849,-50.6126 400.047,-33.3036 446.108,-21.9459"/>
<polygon fill="midnightblue" stroke="midnightblue" points="446.963,-25.34 455.835,-19.5476 445.288,-18.5435 446.963,-25.34"/>
</g>
<!-- Node9 -->
<g id="node9" class="node"><title>Node9</title>
<polygon fill="white" stroke="#bfbfbf" points="132,-0.5 132,-19.5 209,-19.5 209,-0.5 132,-0.5"/>
<text text-anchor="middle" x="170.5" y="-7.5" font-family="Helvetica,sans-Serif" font-size="10.00">Eigen/Sparse</text>
</g>
<!-- Node5&#45;&gt;Node9 -->
<g id="edge8" class="edge"><title>Node5&#45;&gt;Node9</title>
<path fill="none" stroke="midnightblue" d="M255.273,-56.324C239.149,-47.7034 214.2,-34.3643 195.536,-24.3855"/>
<polygon fill="midnightblue" stroke="midnightblue" points="197.156,-21.283 186.687,-19.6545 193.856,-27.456 197.156,-21.283"/>
</g>
<!-- Node10 -->
<g id="node10" class="node"><title>Node10</title>
<polygon fill="white" stroke="#bfbfbf" points="227.5,-0.5 227.5,-19.5 315.5,-19.5 315.5,-0.5 227.5,-0.5"/>
<text text-anchor="middle" x="271.5" y="-7.5" font-family="Helvetica,sans-Serif" font-size="10.00">Eigen/Cholesky</text>
</g>
<!-- Node5&#45;&gt;Node10 -->
<g id="edge9" class="edge"><title>Node5&#45;&gt;Node10</title>
<path fill="none" stroke="midnightblue" d="M271.5,-56.083C271.5,-49.0059 271.5,-38.8611 271.5,-29.9865"/>
<polygon fill="midnightblue" stroke="midnightblue" points="275,-29.751 271.5,-19.7511 268,-29.7511 275,-29.751"/>
</g>
<!-- Node11 -->
<g id="node11" class="node"><title>Node11</title>
<polygon fill="white" stroke="#bfbfbf" points="334,-0.5 334,-19.5 435,-19.5 435,-0.5 334,-0.5"/>
<text text-anchor="middle" x="384.5" y="-7.5" font-family="Helvetica,sans-Serif" font-size="10.00">Eigen/Eigenvalues</text>
</g>
<!-- Node5&#45;&gt;Node11 -->
<g id="edge10" class="edge"><title>Node5&#45;&gt;Node11</title>
<path fill="none" stroke="midnightblue" d="M289.405,-56.4435C307.754,-47.6751 336.505,-33.9355 357.594,-23.8579"/>
<polygon fill="midnightblue" stroke="midnightblue" points="359.165,-26.9862 366.679,-19.5164 356.147,-20.6703 359.165,-26.9862"/>
</g>
<!-- Node12&#45;&gt;Node4 -->
<g id="edge12" class="edge"><title>Node12&#45;&gt;Node4</title>
<path fill="none" stroke="midnightblue" d="M370.539,-168.324C361.373,-160.341 347.563,-148.313 336.472,-138.653"/>
<polygon fill="midnightblue" stroke="midnightblue" points="338.482,-135.762 328.643,-131.834 333.885,-141.041 338.482,-135.762"/>
</g>
</g>
</svg>
