<?xml version="1.0" encoding="UTF-8" standalone="no"?>
<!DOCTYPE svg PUBLIC "-//W3C//DTD SVG 1.1//EN"
 "http://www.w3.org/Graphics/SVG/1.1/DTD/svg11.dtd">
<!-- Generated by graphviz version 2.38.0 (20140413.2041)
 -->
<!-- Title: Functions.h Pages: 1 -->
<svg width="1241pt" height="84pt"
 viewBox="0.00 0.00 1241.00 84.00" xmlns="http://www.w3.org/2000/svg" xmlns:xlink="http://www.w3.org/1999/xlink">
<g id="graph0" class="graph" transform="scale(1 1) rotate(0) translate(4 80)">
<title>Functions.h</title>
<polygon fill="white" stroke="none" points="-4,4 -4,-80 1237,-80 1237,4 -4,4"/>
<!-- Node1 -->
<g id="node1" class="node"><title>Node1</title>
<polygon fill="#bfbfbf" stroke="black" points="519,-56.5 519,-75.5 586,-75.5 586,-56.5 519,-56.5"/>
<text text-anchor="middle" x="552.5" y="-63.5" font-family="Helvetica,sans-Serif" font-size="10.00">Functions.h</text>
</g>
<!-- Node2 -->
<g id="node2" class="node"><title>Node2</title>
<g id="a_node2"><a xlink:href="../../db/db8/Functions_8cpp_source.html" target="_top" xlink:title="Functions.cpp">
<polygon fill="white" stroke="black" points="0,-0.5 0,-19.5 77,-19.5 77,-0.5 0,-0.5"/>
<text text-anchor="middle" x="38.5" y="-7.5" font-family="Helvetica,sans-Serif" font-size="10.00">Functions.cpp</text>
</a>
</g>
</g>
<!-- Node1&#45;&gt;Node2 -->
<g id="edge1" class="edge"><title>Node1&#45;&gt;Node2</title>
<path fill="none" stroke="midnightblue" d="M508.706,-62.0786C425.951,-56.2687 241.041,-41.9056 86.5,-20 83.4779,-19.5716 80.3566,-19.0858 77.2237,-18.567"/>
<polygon fill="midnightblue" stroke="midnightblue" points="508.534,-65.575 518.753,-62.777 509.02,-58.5919 508.534,-65.575"/>
</g>
<!-- Node3 -->
<g id="node3" class="node"><title>Node3</title>
<g id="a_node3"><a xlink:href="../../df/d0a/main_8cpp_source.html" target="_top" xlink:title="main.cpp">
<polygon fill="white" stroke="black" points="95.5,-0.5 95.5,-19.5 151.5,-19.5 151.5,-0.5 95.5,-0.5"/>
<text text-anchor="middle" x="123.5" y="-7.5" font-family="Helvetica,sans-Serif" font-size="10.00">main.cpp</text>
</a>
</g>
</g>
<!-- Node1&#45;&gt;Node3 -->
<g id="edge2" class="edge"><title>Node1&#45;&gt;Node3</title>
<path fill="none" stroke="midnightblue" d="M508.851,-61.7722C436.19,-56.001 286.002,-42.3779 160.5,-20 157.636,-19.4894 154.664,-18.8884 151.705,-18.2433"/>
<polygon fill="midnightblue" stroke="midnightblue" points="508.755,-65.2753 518.997,-62.5668 509.301,-58.2966 508.755,-65.2753"/>
</g>
<!-- Node4 -->
<g id="node4" class="node"><title>Node4</title>
<g id="a_node4"><a xlink:href="../../d9/d65/ArpackCshift_8cpp_source.html" target="_top" xlink:title="ArpackCshift.cpp">
<polygon fill="white" stroke="black" points="170,-0.5 170,-19.5 261,-19.5 261,-0.5 170,-0.5"/>
<text text-anchor="middle" x="215.5" y="-7.5" font-family="Helvetica,sans-Serif" font-size="10.00">ArpackCshift.cpp</text>
</a>
</g>
</g>
<!-- Node1&#45;&gt;Node4 -->
<g id="edge3" class="edge"><title>Node1&#45;&gt;Node4</title>
<path fill="none" stroke="midnightblue" d="M508.452,-58.0264C452.952,-49.2269 354.642,-33.5978 270.5,-20 267.443,-19.506 264.292,-18.995 261.116,-18.4787"/>
<polygon fill="midnightblue" stroke="midnightblue" points="508.21,-61.5316 518.635,-59.6403 509.306,-54.6179 508.21,-61.5316"/>
</g>
<!-- Node5 -->
<g id="node5" class="node"><title>Node5</title>
<g id="a_node5"><a xlink:href="../../d7/d40/MeshIOTest_8cpp_source.html" target="_top" xlink:title="MeshIOTest.cpp">
<polygon fill="white" stroke="black" points="279.5,-0.5 279.5,-19.5 369.5,-19.5 369.5,-0.5 279.5,-0.5"/>
<text text-anchor="middle" x="324.5" y="-7.5" font-family="Helvetica,sans-Serif" font-size="10.00">MeshIOTest.cpp</text>
</a>
</g>
</g>
<!-- Node1&#45;&gt;Node5 -->
<g id="edge4" class="edge"><title>Node1&#45;&gt;Node5</title>
<path fill="none" stroke="midnightblue" d="M508.952,-54.6859C465.894,-44.488 400.781,-29.0664 360.541,-19.536"/>
<polygon fill="midnightblue" stroke="midnightblue" points="508.32,-58.1332 518.858,-57.0321 509.934,-51.3216 508.32,-58.1332"/>
</g>
<!-- Node6 -->
<g id="node6" class="node"><title>Node6</title>
<g id="a_node6"><a xlink:href="../../de/d94/P2__MeshTest_8cpp.html" target="_top" xlink:title="Unit tests for the quadratic basis. ">
<polygon fill="white" stroke="black" points="387.5,-0.5 387.5,-19.5 485.5,-19.5 485.5,-0.5 387.5,-0.5"/>
<text text-anchor="middle" x="436.5" y="-7.5" font-family="Helvetica,sans-Serif" font-size="10.00">P2_MeshTest.cpp</text>
</a>
</g>
</g>
<!-- Node1&#45;&gt;Node6 -->
<g id="edge5" class="edge"><title>Node1&#45;&gt;Node6</title>
<path fill="none" stroke="midnightblue" d="M524.78,-52.096C503.108,-42.0073 473.598,-28.2697 454.795,-19.5164"/>
<polygon fill="midnightblue" stroke="midnightblue" points="523.577,-55.3962 534.119,-56.4435 526.531,-49.0501 523.577,-55.3962"/>
</g>
<!-- Node7 -->
<g id="node7" class="node"><title>Node7</title>
<g id="a_node7"><a xlink:href="../../d9/d7a/P3__MeshTest_8cpp.html" target="_top" xlink:title="Unit tests for the cubic basis. ">
<polygon fill="white" stroke="black" points="503.5,-0.5 503.5,-19.5 601.5,-19.5 601.5,-0.5 503.5,-0.5"/>
<text text-anchor="middle" x="552.5" y="-7.5" font-family="Helvetica,sans-Serif" font-size="10.00">P3_MeshTest.cpp</text>
</a>
</g>
</g>
<!-- Node1&#45;&gt;Node7 -->
<g id="edge6" class="edge"><title>Node1&#45;&gt;Node7</title>
<path fill="none" stroke="midnightblue" d="M552.5,-45.8045C552.5,-36.9102 552.5,-26.7798 552.5,-19.7511"/>
<polygon fill="midnightblue" stroke="midnightblue" points="549,-46.083 552.5,-56.083 556,-46.083 549,-46.083"/>
</g>
<!-- Node8 -->
<g id="node8" class="node"><title>Node8</title>
<g id="a_node8"><a xlink:href="../../d3/d19/PertTheoSolution_8cpp_source.html" target="_top" xlink:title="PertTheoSolution.cpp">
<polygon fill="white" stroke="black" points="620,-0.5 620,-19.5 733,-19.5 733,-0.5 620,-0.5"/>
<text text-anchor="middle" x="676.5" y="-7.5" font-family="Helvetica,sans-Serif" font-size="10.00">PertTheoSolution.cpp</text>
</a>
</g>
</g>
<!-- Node1&#45;&gt;Node8 -->
<g id="edge7" class="edge"><title>Node1&#45;&gt;Node8</title>
<path fill="none" stroke="midnightblue" d="M581.507,-52.3678C604.729,-42.2553 636.663,-28.3486 656.944,-19.5164"/>
<polygon fill="midnightblue" stroke="midnightblue" points="579.919,-49.2419 572.148,-56.4435 582.714,-55.6597 579.919,-49.2419"/>
</g>
<!-- Node9 -->
<g id="node9" class="node"><title>Node9</title>
<g id="a_node9"><a xlink:href="../../d9/db7/QualityCheck_8cpp.html" target="_top" xlink:title="Integrated test using Poisson equation on a square with polynomial solutions. ">
<polygon fill="white" stroke="black" points="751,-0.5 751,-19.5 846,-19.5 846,-0.5 751,-0.5"/>
<text text-anchor="middle" x="798.5" y="-7.5" font-family="Helvetica,sans-Serif" font-size="10.00">QualityCheck.cpp</text>
</a>
</g>
</g>
<!-- Node1&#45;&gt;Node9 -->
<g id="edge8" class="edge"><title>Node1&#45;&gt;Node9</title>
<path fill="none" stroke="midnightblue" d="M596.234,-55.3999C642.585,-45.2253 715.098,-29.3079 759.546,-19.5509"/>
<polygon fill="midnightblue" stroke="midnightblue" points="595.206,-52.042 586.189,-57.6048 596.707,-58.8792 595.206,-52.042"/>
</g>
<!-- Node10 -->
<g id="node10" class="node"><title>Node10</title>
<g id="a_node10"><a xlink:href="../../d8/ddc/TransportCheck_8cpp.html" target="_top" xlink:title="Integration test with an augmented Poisson equation. ">
<polygon fill="white" stroke="black" points="864,-0.5 864,-19.5 971,-19.5 971,-0.5 864,-0.5"/>
<text text-anchor="middle" x="917.5" y="-7.5" font-family="Helvetica,sans-Serif" font-size="10.00">TransportCheck.cpp</text>
</a>
</g>
</g>
<!-- Node1&#45;&gt;Node10 -->
<g id="edge9" class="edge"><title>Node1&#45;&gt;Node10</title>
<path fill="none" stroke="midnightblue" d="M596.406,-58.5043C663.456,-48.5846 791.201,-29.6853 863.717,-18.957"/>
<polygon fill="midnightblue" stroke="midnightblue" points="595.564,-55.0907 586.184,-60.0166 596.589,-62.0153 595.564,-55.0907"/>
</g>
<!-- Node11 -->
<g id="node11" class="node"><title>Node11</title>
<g id="a_node11"><a xlink:href="../../db/dbe/TrigQualityCheck_8cpp.html" target="_top" xlink:title="Implementation of the Poisson equation test with trigonometric solutions. ">
<polygon fill="white" stroke="black" points="989,-0.5 989,-19.5 1102,-19.5 1102,-0.5 989,-0.5"/>
<text text-anchor="middle" x="1045.5" y="-7.5" font-family="Helvetica,sans-Serif" font-size="10.00">TrigQualityCheck.cpp</text>
</a>
</g>
</g>
<!-- Node1&#45;&gt;Node11 -->
<g id="edge10" class="edge"><title>Node1&#45;&gt;Node11</title>
<path fill="none" stroke="midnightblue" d="M596.464,-60.8582C674.076,-53.439 840.423,-37.0569 980.5,-20 983.214,-19.6695 985.991,-19.3219 988.794,-18.9632"/>
<polygon fill="midnightblue" stroke="midnightblue" points="595.736,-57.4116 586.113,-61.8447 596.4,-64.38 595.736,-57.4116"/>
</g>
<!-- Node12 -->
<g id="node12" class="node"><title>Node12</title>
<g id="a_node12"><a xlink:href="../../d8/da4/VisualizationTest_8cpp_source.html" target="_top" xlink:title="VisualizationTest.cpp">
<polygon fill="white" stroke="black" points="1120,-0.5 1120,-19.5 1233,-19.5 1233,-0.5 1120,-0.5"/>
<text text-anchor="middle" x="1176.5" y="-7.5" font-family="Helvetica,sans-Serif" font-size="10.00">VisualizationTest.cpp</text>
</a>
</g>
</g>
<!-- Node1&#45;&gt;Node12 -->
<g id="edge11" class="edge"><title>Node1&#45;&gt;Node12</title>
<path fill="none" stroke="midnightblue" d="M596.307,-62.3302C690.654,-56.3922 920.026,-40.9454 1111.5,-20 1114.22,-19.7027 1117,-19.382 1119.8,-19.045"/>
<polygon fill="midnightblue" stroke="midnightblue" points="596.037,-58.8402 586.275,-62.9577 596.474,-65.8265 596.037,-58.8402"/>
</g>
</g>
</svg>
